<?xml version="1.0" encoding="UTF-8"?>
<svg xmlns="http://www.w3.org/2000/svg" version="1.1" viewBox="0 0 16 16">
  <defs>
    <style>
      .cls-1 {
        fill: #f36522;
      }
    </style>
  </defs>
  <!-- Generator: Adobe Illustrator 28.7.1, SVG Export Plug-In . SVG Version: 1.2.0 Build 142)  -->
  <g>
    <g id="Layer_1">
      <g>
        <path class="cls-1" d="M13.84129,4.9733H5.60887c-.27148,0-.52393.13525-.6748.36084l-.7002,1.04883c-.10742.16113-.11719.36768-.02588.53809.09131.17139.26904.27783.46289.27783h.31641l-.70361.71387-1.01904.25293c-.43555.10742-.73975.49512-.73975.94434v.54297c-.05908.03027-.11377.07031-.16113.11914-.11621.11816-.17822.27246-.1748.43457.00586.33008.2793.59863.60986.59863h.5907c.14746.66101.73669,1.15723,1.44153,1.15723.70441,0,1.29364-.49622,1.4411-1.15723h4.24768c.14856.65948.73694,1.15436,1.44067,1.15436.70142,0,1.28802-.49237,1.43854-1.14917l.44226-.00519c.38379,0,.69629-.3125.69629-.69629v-4.43945c0-.38379-.3125-.69629-.69629-.69629ZM2.58885,10.19791c-.00098-.05371.02051-.10547.06006-.14551.03076-.03223.07178-.05371.11572-.0625l.13525-.02734.5484.01141c-.05048.13629-.08051.28149-.0885.43317l-.56097-.0022c-.11182,0-.20752-.09375-.20996-.20703ZM7.77488,8.01725l1.20117-.00195-.01465,1.96973h1.612c-.04755.13232-.07635.27252-.08411.41913l-4.18774.00073c-.00793-.14691-.03687-.28735-.08478-.41986h1.56006l-.00195-1.96777ZM4.83103,11.56217c-.59473,0-1.07861-.4834-1.07861-1.07812,0-.18402.05829-.34912.13989-.50079l.08521.00177.06006-.0791c.39062-.51172,1.22705-.51172,1.6167,0l.06006.0791h.05627c.08087.15118.13855.3158.13855.49902,0,.59473-.4834,1.07812-1.07812,1.07812ZM11.96049,11.5593c-.59473,0-1.07861-.4834-1.07861-1.07812,0-.18201.05676-.34564.13672-.49615h.07269l.06055-.0791c.39062-.51172,1.22656-.51172,1.61719,0l.06055.0791h.07239c.0799.15051.13666.31415.13666.49615,0,.59473-.4834,1.07812-1.07812,1.07812ZM14.13719,10.10905c0,.16309-.13281.2959-.2959.2959h-.40997c-.00769-.14691-.03656-.28735-.08417-.41992h.79004v.12402ZM14.13719,9.58463h-1.00922c-.27063-.35138-.69092-.58197-1.16748-.58197-.47687,0-.89722.23059-1.16791.58197h-1.42883l.0127-1.63574c0-.19434-.17285-.34082-.40332-.34082l-1.22266.00879c-.21094,0-.37598.15381-.37598.34961l.00195,1.61816h-1.38031c-.27075-.34973-.68988-.5791-1.1651-.5791-.47552,0-.89478.22937-1.16553.5791h-.74023v-.47461c0-.26465.17871-.49316.43555-.55566l1.01758-.25293c.08838-.02051.16846-.06641.23145-.13281l.94238-.97314,8.58496.00342v2.38574ZM14.13719,6.7985H4.67088c-.04639,0-.08838-.02539-.11035-.06592-.02148-.04053-.01904-.08984.00635-.12793l.7002-1.04834c.07617-.11426.2041-.18262.3418-.18262h8.23242c.16309,0,.2959.13281.2959.2959v1.12891Z"/>
        <path class="cls-1" d="M5.03074,8.736c.0542.12402.17725.20508.31299.20508h1.3916c.21045,0,.38184-.17188.38184-.38184v-.73779c0-.21045-.17139-.38184-.38184-.38184h-.54639c-.15479,0-.30371.06543-.40869.17969l-.68799.74854c-.0918.10059-.11572.24512-.06152.36816ZM6.07518,7.88981c.02881-.03174.0708-.0498.11377-.0498l.52783-.01855.01855.71924h-1.2583l.59814-.65088Z"/>
        <path class="cls-1" d="M10.32762,8.90787h.69727c.21973,0,.39941-.17969.39941-.39941v-.69727c0-.22021-.17969-.3999-.39941-.3999h-.69727c-.21973,0-.39941.17969-.39941.3999v.69727c0,.21973.17969.39941.39941.39941ZM11.02391,7.81119l.00098.69629h-.69629l-.00098-.6958.69629-.00049Z"/>
        <path class="cls-1" d="M12.31101,8.89908h.69727c.21973,0,.39941-.17969.39941-.39941v-.69727c0-.22021-.17969-.3999-.39941-.3999h-.69727c-.2207,0-.40039.17969-.40039.3999v.69727c0,.21973.17969.39941.40039.39941ZM12.31101,7.80289l.69629-.00049.00098.69629h-.69727v-.6958Z"/>
      </g>
      <path class="cls-1" d="M1.2961,7.52042c-.03711.07696-.02489.16211.03039.21995s.13256.0808.2108.06135l.5697-.171.15507.33593c.03391.06442.10364.10844.17433.11004.05655.00128.10652-.01881.14267-.05335.01446-.01382.03647-.04868.03647-.04868l.25123-.47527c.05879-.09769.01926-.2259-.07875-.27055-.09769-.05879-.21867-.02617-.27055.07875l-.06634.11874-.06781-.12885c-.0405-.08579-.14541-.13768-.23811-.10441l-.30638.09916.19372-.43413c.02265-.06314.02393-.1197-.00307-.17689-.03423-.05028-.08291-.08675-.13915-.10217l-.09865-.01638.16467-.08822c.09302-.0474.11663-.15296.08336-.24566l-.15379-.39249.38513.17139c.08387.04434.19762.01862.24918-.07216l.1396-.23025.09884.32052s.06154.09334.11055.11567c.049.02233.10556.02361.15552.00352l.22846-.09385-.11695.1671c-.05879.09769-.04031.21835.05015.28405.09769.05879.21835.04031.28405-.05015l.50426-.71709c.05124-.07664.05348-.17561-.0087-.24067-.04804-.06474-.14637-.09526-.22494-.06167l-.65677.26805-.15782-.52696c-.01945-.07824-.08195-.12917-.15955-.138-.07728-.02297-.14893.01785-.19295.08758l-.2861.45326-.68607-.31259c-.14701-.06698-.32775.10575-.26748.25564l.28123.69951-.46574.2653c-.07165.04082-.11567.11055-.09654.20293.01945.07824.0744.15021.15891.16627l.366.07901-.28271.61602.00064-.02828Z"/>
      <path class="cls-1" d="M2.44606,6.71185l.47674.49882c.076.07952.20325.0824.28277.0064s.0824-.20325.0064-.28277l-.47674-.49882c-.076-.07952-.20325-.0824-.28277-.0064s-.0824.20325-.0064.28277Z"/>
      <path class="cls-1" d="M3.22182,7.43669s.01881.10652.05335.14266.08355.05847.14011.05975c.05655.00128.10652-.01881.14267-.05335.04338-.04146.0657-.09046.05975-.14011.00128-.05655-.01881-.10652-.05335-.14266s-.14011-.05975-.14011-.05975c-.10588-.00947-.20709.08726-.20242.19346Z"/>
    </g>
  </g>
</svg>