<svg width="952" height="928" viewBox="0 0 952 928" fill="none" xmlns="http://www.w3.org/2000/svg">
<g clip-path="url(#clip0_4211_235)">
<g opacity="0.2">
<path d="M100.16 128.73C100.28 129.1 100.38 129.35 100.38 129.35L100.16 128.73Z" fill="#F36522"/>
<path d="M918.041 559.617L882.783 481.518L860.213 418.405L843.048 363.967L855.267 361.34L860.443 369.235L863.26 385.541L869.844 413.414L906.98 520.178L906.041 509.655L881.124 432.336L877.367 410.246V395.524C877.367 395.524 875.489 386.057 875.489 382.373C875.489 378.69 873.611 368.695 873.611 368.695L870.324 360.284L852.461 336.094L822.837 260.359L803.565 205.129L790.396 162.522L783.342 126.226C783.342 126.226 773.941 78.3632 773.941 75.2076C773.941 72.0519 772.532 53.646 772.532 53.646L766.418 52.5901L751.371 48.9065L733.977 37.8558L717.521 28.9168L705.303 32.6003L701.066 41.5393L701.536 56.2617L706.711 69.9402L707.65 85.7184L702.005 99.9248L697.769 104.664L689.776 103.08L687.428 100.981L679.905 82.0468L677.557 69.9522L643.708 72.9278C643.708 72.9278 340.002 52.5901 340.002 50.4903C340.002 48.3906 335.295 36.2839 335.295 36.2839C335.295 36.2839 335.765 24.7172 335.765 23.1334C335.765 21.5496 325.894 1.97978 325.894 1.97978L4.31307 0L5.25213 6.83923C5.25213 6.83923 4.7826 8.41105 4.31307 10.7868C3.84355 13.1625 0 18.154 0 18.154V24.4653L2.63152 29.1927L7.38136 33.4043L10.1985 40.7714L15.6035 46.8188L24.0659 49.4465L32.0587 57.3416L32.5282 62.597C32.5282 62.597 30.6501 74.6916 28.772 75.7475C26.8939 76.8034 25.0158 75.7475 25.0158 75.7475L28.772 82.5868L32.5282 85.2145L35.3454 90.4699V98.365L32.0587 102.049L26.883 103.632L24.0659 108.888H28.772L41.4601 106.26L43.8078 104.16C43.8078 104.16 49.453 97.3211 49.9225 95.7493C50.392 94.1775 52.7397 92.5936 52.7397 92.5936C52.7397 92.5936 56.9763 77.8713 56.9763 76.2875V74.7036L60.263 72.9398L66.607 92.8816C66.2794 91.7297 65.8318 89.51 66.8473 88.3701C68.2558 86.7863 70.6035 84.1586 70.6035 84.1586L73.4206 72.9278L74.8292 67.8524C74.8292 67.8524 75.2987 64.3368 80.4744 72.9278C85.6501 81.5189 83.7611 81.0029 83.7611 81.0029L89.8758 90.4699V93.0976L79.7646 95.7253L76.7073 98.353L60.9618 99.4089L54.6177 104.928L53.908 107.028L67.3059 106.236L79.0549 100.717C79.0549 100.717 97.3882 96.5052 99.5065 95.9773C101.625 95.4493 113.843 97.813 115.722 98.077C117.6 98.341 128.18 100.441 128.18 100.441L126.772 93.6015C131.707 91.2378 126.772 95.4373 131.707 91.2378L136.643 87.0263L138.99 82.8147H147.693L152.628 88.3341L164.618 89.654L173.79 83.6066L182.962 85.1785L189.775 91.7537L193.302 98.8569V100.957L188.836 101.749L178.725 97.801L171.442 93.0616L167.686 95.4253L165.098 98.317H160.861L160.621 99.6368L165.797 103.056L202.704 115.151C202.704 115.151 222.446 127.246 223.155 127.774C223.865 128.302 241.259 141.188 241.489 141.98C241.729 142.772 250.191 152.239 250.191 152.239L260.062 159.87L269.704 165.389L275.109 168.545L284.51 181.696L287.327 188.271L291.564 196.682L292.503 206.677L291.095 208.249C291.095 208.249 291.564 211.932 292.503 212.196C293.442 212.46 301.435 212.988 301.435 212.988L311.077 215.556L313.195 217.452L313.435 208.249C313.435 208.249 316.023 206.677 316.722 206.677C317.421 206.677 324.944 211.932 327.062 208.777L329.181 205.621C329.181 205.621 331.998 196.946 336.464 194.318C340.93 191.691 343.277 190.623 343.277 190.623L345.155 197.474L345.625 202.993C345.625 202.993 355.496 197.738 356.435 197.21C357.374 196.682 381.112 179.332 381.112 179.332L398.976 171.437L408.378 175.648C408.378 175.648 410.725 177.22 410.965 175.384C411.206 173.549 408.618 164.598 408.618 164.598L405.56 154.867L412.145 147.763L427.421 146.18L433.066 148.543L445.055 145.652L448.811 144.596L457.274 146.18L459.621 154.591C459.621 154.591 471.61 159.066 473.489 160.11C475.367 161.166 494.41 169.049 494.41 169.049L505.689 183.255L508.277 196.934L516.27 206.929L523.553 212.448L524.962 213.768L526.61 217.452L530.847 244.281L543.775 245.864C543.775 245.864 554.356 250.604 554.585 251.384C554.815 252.164 561.399 264.534 561.399 264.534L571.739 277.157C571.739 277.157 577.144 284.788 577.144 286.624C577.144 288.46 586.546 294.771 586.546 294.771L593.829 292.407L602.051 296.355L609.804 312.133L614.029 329.231L622.263 334.75L624.85 378.138L614.979 419.425L610.044 450.718L607.456 453.609L604.639 484.11L603.46 493.841L602.051 498.052L603.23 504.627L606.048 508.839L612.632 518.042L615.689 530.401L621.564 525.661C621.564 525.661 624.621 520.406 624.85 519.614C625.08 518.822 626.969 511.983 626.969 511.983C626.969 511.983 627.438 505.671 626.728 504.088C626.019 502.504 623.442 500.404 621.083 497.248C618.736 494.093 613.8 486.725 613.8 486.725L621.083 481.47L621.553 476.995L627.111 476.731L633.302 479.094L636.588 486.989L638.707 500.14L640.825 504.088C642.474 503.56 643.883 500.14 643.883 500.14L644.123 493.565L646.001 483.57L651.176 482.514L655.883 488.825L656.822 502.24L654.005 510.915L645.073 520.91C645.073 520.91 645.313 526.957 644.603 528.013C643.893 529.069 633.793 540.899 633.793 540.899L630.037 548.267L626.281 551.686L622.754 557.733C622.754 557.733 622.284 562.209 623.693 562.989C625.101 563.781 636.152 571.4 636.152 571.4L637.8 582.451V587.706L638.74 595.073L649.08 623.474L661.299 645.3H669.291L670.94 642.936L671.18 638.724L678.464 637.669L682.22 633.721L690.442 630.829L702.901 631.093L704.549 637.141L692.331 653.711L698.206 661.858L698.675 663.178L697.026 679.484L702.202 695.262L701.962 701.573L701.023 705.521C701.023 705.521 702.431 707.105 703.141 707.357C703.851 707.621 709.015 710.248 709.015 710.248L710.195 714.724L713.012 721.035L720.764 724.719L722.173 726.039V735.11L729.347 748.128L730.406 763.115L735.691 785.204L740.626 800.586C740.626 800.586 739.567 809.657 740.626 810.053C741.686 810.449 745.562 810.053 745.562 810.053H749.799L753.675 806.898L761.078 810.053L768.132 814.001C768.132 814.001 784.707 824.656 785.057 825.831C785.406 827.019 793.868 838.454 793.868 838.454L803.04 854.232L805.159 865.667L806.917 878.686L810.444 885.393L812.202 890.516L820.315 894.464L829.836 896.828L840.417 908.658V913.002C840.417 913.002 829.836 920.105 828.777 920.105C827.718 920.105 824.191 917.345 823.492 915.365C822.782 913.398 819.616 907.086 819.616 907.086L813.272 903.931L809.046 912.606L812.922 922.865L821.734 927.604L835.481 928L843.594 923.261L852.057 923.656L868.272 928L883.438 921.689C883.438 921.689 884.847 919.721 890.143 917.345L895.428 914.982L899.664 913.41L908.476 905.131L911.654 898.423V893.684L909.896 882.249L910.955 869.231L920.826 852.66L925.412 842.402L928.229 832.143L931.406 820.312L933.874 805.722L935.632 798.618L937.39 792.307L948.32 681.068L952 642.408L917.998 559.569L918.041 559.617Z" fill="#F36522"/>
</g>
<path opacity="0.2" d="M525.085 402.604C525.085 385.381 510 372.447 494.929 376.763C430.299 387.525 374.304 383.223 331.209 368.145C329.063 366 324.759 366 322.587 366H223.497C221.352 366 217.034 366 214.876 368.145C171.794 385.368 115.786 387.525 51.1562 376.763C33.9259 374.618 21 387.525 21 402.604V579.174L21.9508 632.924C22.7346 644.675 23.1072 655.579 23.5698 665.854C24.8289 693.429 32.5511 720.259 45.7083 744.52L57.6191 766.508C85.6167 807.401 128.712 844.004 201.937 919.382C206.241 923.685 214.863 928 221.326 928H320.416C326.879 928 335.488 925.855 339.805 919.382C359.194 897.857 376.424 880.634 393.654 865.556L447.504 811.729C490.586 764.35 512.133 732.062 520.742 667.472L525.046 598.568C527.192 551.201 525.046 488.757 525.046 402.629L525.085 402.604ZM372.685 580.304L249.902 703.036L183.126 636.276C178.822 631.973 178.822 629.816 178.822 627.658C178.822 621.198 183.126 614.75 191.748 614.75C193.907 614.75 198.224 614.75 200.37 619.04L228.367 647.026C239.147 657.788 256.378 657.788 267.145 647.026L353.309 560.911C357.613 556.596 366.222 556.596 372.698 560.911C377.002 565.201 377.002 573.818 372.698 580.292L372.685 580.304Z" fill="#F36522"/>
</g>
<defs>
<clipPath id="clip0_4211_235">
<rect width="952" height="928" fill="white"/>
</clipPath>
</defs>
</svg>
