<svg width="952" height="928" viewBox="0 0 952 928" fill="none" xmlns="http://www.w3.org/2000/svg">
<g opacity="0.2">
<path d="M100.16 128.73C100.28 129.1 100.38 129.35 100.38 129.35L100.16 128.73Z" fill="#F36522"/>
<path d="M918.041 559.617L882.783 481.518L860.213 418.405L843.048 363.967L855.267 361.34L860.443 369.235L863.26 385.541L869.844 413.414L906.98 520.178L906.041 509.655L881.124 432.336L877.367 410.246V395.524C877.367 395.524 875.489 386.057 875.489 382.373C875.489 378.69 873.611 368.695 873.611 368.695L870.324 360.284L852.461 336.094L822.837 260.359L803.565 205.129L790.396 162.522L783.342 126.226C783.342 126.226 773.941 78.3632 773.941 75.2076C773.941 72.0519 772.532 53.646 772.532 53.646L766.418 52.5901L751.371 48.9065L733.977 37.8558L717.521 28.9168L705.303 32.6003L701.066 41.5393L701.536 56.2617L706.711 69.9402L707.65 85.7184L702.005 99.9248L697.769 104.664L689.776 103.08L687.428 100.981L679.905 82.0468L677.557 69.9522L643.708 72.9278C643.708 72.9278 340.002 52.5901 340.002 50.4903C340.002 48.3906 335.295 36.2839 335.295 36.2839C335.295 36.2839 335.765 24.7172 335.765 23.1334C335.765 21.5496 325.894 1.97978 325.894 1.97978L4.31307 0L5.25213 6.83923C5.25213 6.83923 4.7826 8.41105 4.31307 10.7868C3.84355 13.1625 0 18.154 0 18.154V24.4653L2.63152 29.1927L7.38136 33.4043L10.1985 40.7714L15.6035 46.8188L24.0659 49.4465L32.0587 57.3416L32.5282 62.597C32.5282 62.597 30.6501 74.6916 28.772 75.7475C26.8939 76.8034 25.0158 75.7475 25.0158 75.7475L28.772 82.5868L32.5282 85.2145L35.3454 90.4699V98.365L32.0587 102.049L26.883 103.632L24.0659 108.888H28.772L41.4601 106.26L43.8078 104.16C43.8078 104.16 49.453 97.3211 49.9225 95.7493C50.392 94.1775 52.7397 92.5936 52.7397 92.5936C52.7397 92.5936 56.9763 77.8713 56.9763 76.2875V74.7036L60.263 72.9398L66.607 92.8816C66.2794 91.7297 65.8318 89.51 66.8473 88.3701C68.2558 86.7863 70.6035 84.1586 70.6035 84.1586L73.4206 72.9278L74.8292 67.8524C74.8292 67.8524 75.2987 64.3368 80.4744 72.9278C85.6501 81.5189 83.7611 81.0029 83.7611 81.0029L89.8758 90.4699V93.0976L79.7646 95.7253L76.7073 98.353L60.9618 99.4089L54.6177 104.928L53.908 107.028L67.3059 106.236L79.0549 100.717C79.0549 100.717 97.3882 96.5052 99.5065 95.9773C101.625 95.4493 113.843 97.813 115.722 98.077C117.6 98.341 128.18 100.441 128.18 100.441L126.772 93.6015C131.707 91.2378 126.772 95.4373 131.707 91.2378L136.643 87.0263L138.99 82.8147H147.693L152.628 88.3341L164.618 89.654L173.79 83.6066L182.962 85.1785L189.775 91.7537L193.302 98.8569V100.957L188.836 101.749L178.725 97.801L171.442 93.0616L167.686 95.4253L165.098 98.317H160.861L160.621 99.6368L165.797 103.056L202.704 115.151C202.704 115.151 222.446 127.246 223.155 127.774C223.865 128.302 241.259 141.188 241.489 141.98C241.729 142.772 250.191 152.239 250.191 152.239L260.062 159.87L269.704 165.389L275.109 168.545L284.51 181.696L287.327 188.271L291.564 196.682L292.503 206.677L291.095 208.249C291.095 208.249 291.564 211.932 292.503 212.196C293.442 212.46 301.435 212.988 301.435 212.988L311.077 215.556L313.195 217.452L313.435 208.249C313.435 208.249 316.023 206.677 316.722 206.677C317.421 206.677 324.944 211.932 327.062 208.777L329.181 205.621C329.181 205.621 331.998 196.946 336.464 194.318C340.93 191.691 343.277 190.623 343.277 190.623L345.155 197.474L345.625 202.993C345.625 202.993 355.496 197.738 356.435 197.21C357.374 196.682 381.112 179.332 381.112 179.332L398.976 171.437L408.378 175.648C408.378 175.648 410.725 177.22 410.965 175.384C411.206 173.549 408.618 164.598 408.618 164.598L405.56 154.867L412.145 147.763L427.421 146.18L433.066 148.543L445.055 145.652L448.811 144.596L457.274 146.18L459.621 154.591C459.621 154.591 471.61 159.066 473.489 160.11C475.367 161.166 494.41 169.049 494.41 169.049L505.689 183.255L508.277 196.934L516.27 206.929L523.553 212.448L524.962 213.768L526.61 217.452L530.847 244.281L543.775 245.864C543.775 245.864 554.356 250.604 554.585 251.384C554.815 252.164 561.399 264.534 561.399 264.534L571.739 277.157C571.739 277.157 577.144 284.788 577.144 286.624C577.144 288.46 586.546 294.771 586.546 294.771L593.829 292.407L602.051 296.355L609.804 312.133L614.029 329.231L622.263 334.75L624.85 378.138L614.979 419.425L610.044 450.718L607.456 453.609L604.639 484.11L603.46 493.841L602.051 498.052L603.23 504.627L606.048 508.839L612.632 518.042L615.689 530.401L621.564 525.661C621.564 525.661 624.621 520.406 624.85 519.614C625.08 518.822 626.969 511.983 626.969 511.983C626.969 511.983 627.438 505.671 626.728 504.088C626.019 502.504 623.442 500.404 621.083 497.248C618.736 494.093 613.8 486.725 613.8 486.725L621.083 481.47L621.553 476.995L627.111 476.731L633.302 479.094L636.588 486.989L638.707 500.14L640.825 504.088C642.474 503.56 643.883 500.14 643.883 500.14L644.123 493.565L646.001 483.57L651.176 482.514L655.883 488.825L656.822 502.24L654.005 510.915L645.073 520.91C645.073 520.91 645.313 526.957 644.603 528.013C643.893 529.069 633.793 540.899 633.793 540.899L630.037 548.267L626.281 551.686L622.754 557.733C622.754 557.733 622.284 562.209 623.693 562.989C625.101 563.781 636.152 571.4 636.152 571.4L637.8 582.451V587.706L638.74 595.073L649.08 623.474L661.299 645.3H669.291L670.94 642.936L671.18 638.724L678.464 637.669L682.22 633.721L690.442 630.829L702.901 631.093L704.549 637.141L692.331 653.711L698.206 661.858L698.675 663.178L697.026 679.484L702.202 695.262L701.962 701.573L701.023 705.521C701.023 705.521 702.431 707.105 703.141 707.357C703.851 707.621 709.015 710.248 709.015 710.248L710.195 714.724L713.012 721.035L720.764 724.719L722.173 726.039V735.11L729.347 748.128L730.406 763.115L735.691 785.204L740.626 800.586C740.626 800.586 739.567 809.657 740.626 810.053C741.686 810.449 745.562 810.053 745.562 810.053H749.799L753.675 806.898L761.078 810.053L768.132 814.001C768.132 814.001 784.707 824.656 785.057 825.831C785.406 827.019 793.868 838.454 793.868 838.454L803.04 854.232L805.159 865.667L806.917 878.686L810.444 885.393L812.202 890.516L820.315 894.464L829.836 896.828L840.417 908.658V913.002C840.417 913.002 829.836 920.105 828.777 920.105C827.718 920.105 824.191 917.345 823.492 915.365C822.782 913.398 819.616 907.086 819.616 907.086L813.272 903.931L809.046 912.606L812.922 922.865L821.734 927.604L835.481 928L843.594 923.261L852.057 923.656L868.272 928L883.438 921.689C883.438 921.689 884.847 919.721 890.143 917.345L895.428 914.982L899.664 913.41L908.476 905.131L911.654 898.423V893.684L909.896 882.249L910.955 869.231L920.826 852.66L925.412 842.402L928.229 832.143L931.406 820.312L933.874 805.722L935.632 798.618L937.39 792.307L948.32 681.068L952 642.408L917.998 559.569L918.041 559.617Z" fill="#F36522"/>
</g>
<path opacity="0.2" d="M525.085 402.604C525.085 385.381 510 372.447 494.929 376.763C430.299 387.525 374.304 383.223 331.209 368.145C329.063 366 324.759 366 322.587 366H223.497C221.352 366 217.034 366 214.876 368.145C171.794 385.368 115.786 387.525 51.1562 376.763C33.9259 374.618 21 387.525 21 402.604V579.174L21.9508 632.924C22.7346 644.675 23.1072 655.579 23.5698 665.854C24.8289 693.429 32.5511 720.259 45.7083 744.52L57.6191 766.508C85.6167 807.401 128.712 844.004 201.937 919.382C206.241 923.685 214.863 928 221.326 928H320.416C326.879 928 335.488 925.855 339.805 919.382C359.194 897.857 376.424 880.634 393.654 865.556L447.504 811.729C490.586 764.35 512.133 732.062 520.742 667.472L525.046 598.568C527.192 551.201 525.046 488.757 525.046 402.629L525.085 402.604ZM372.685 580.304L249.902 703.036L183.126 636.276C178.822 631.973 178.822 629.816 178.822 627.658C178.822 621.198 183.126 614.75 191.748 614.75C193.907 614.75 198.224 614.75 200.37 619.04L228.367 647.026C239.147 657.788 256.378 657.788 267.145 647.026L353.309 560.911C357.613 556.596 366.222 556.596 372.698 560.911C377.002 565.201 377.002 573.818 372.698 580.292L372.685 580.304Z" fill="#F36522"/>
<path d="M521.52 542.67H396.75V469.82C396.75 443.28 399.62 423.36 405.36 410.08C411.1 396.8 423.28 378.84 441.88 356.17L497.71 288.18C505.91 276.53 510.02 261.47 510.02 243.02C510.02 224.57 505.64 209.18 496.88 196.87C488.12 184.56 476.63 178.41 462.41 178.41C448.19 178.41 436.28 185.71 426.7 200.27C417.12 214.85 411.24 234.11 409.06 258.07H278.54C284.55 193.32 304.53 142.49 338.46 105.56C372.39 68.6502 414.93 50.1902 466.1 50.1902C517.27 50.1902 558.85 66.7102 590.87 99.7402C622.88 132.77 638.33 178.42 638.89 236.7C639.17 265.49 628.04 312.81 604 346.47C594.93 359.17 590.73 364.6 588 367.84C574.86 383.37 562.41 397.95 550.64 411.55C538.88 425.16 531.08 436.34 527.26 445.08C523.42 453.82 521.52 466.93 521.52 484.4V542.68V542.67ZM409.47 724.67C395.51 710.63 388.54 693.41 388.54 673.04C388.54 652.67 395.51 635.45 409.47 621.41C423.42 607.37 440.53 600.34 460.77 600.34C481.01 600.34 498.11 607.37 512.07 621.41C526.02 635.45 533 652.67 533 673.04C533 693.41 526.01 710.63 512.07 724.67C498.11 738.71 481.01 745.73 460.77 745.73C440.53 745.73 423.41 738.71 409.47 724.67Z" fill="#45B4FE" stroke="white" stroke-width="3" stroke-miterlimit="10"/>
<path d="M436 189L381 71" stroke="white" stroke-width="3" stroke-miterlimit="10"/>
<path d="M509.5 224.5L635.05 192.42" stroke="white" stroke-width="3" stroke-miterlimit="10"/>
<path d="M475.5 314.5L533 435.5" stroke="white" stroke-width="3" stroke-miterlimit="10"/>
<path d="M461.44 704.18C476.617 704.18 488.92 691.877 488.92 676.7C488.92 661.523 476.617 649.22 461.44 649.22C446.263 649.22 433.96 661.523 433.96 676.7C433.96 691.877 446.263 704.18 461.44 704.18Z" fill="white" stroke="#45B4FE" stroke-width="1.94" stroke-miterlimit="10"/>
<path d="M470.42 691.43V691.37H461.08L461.01 691.13L465.71 684.23C466.18 684.31 466.7 684.39 467.27 684.47L467.54 684.51V682.99L467.33 682.96C466.64 682.87 466.04 682.77 465.5 682.67C464.61 682.5 463.95 682.31 463.54 682.11L463.04 681.44C463.02 681.37 462.99 681.31 462.97 681.23C462.85 680.8 462.76 680.24 462.72 679.63L462.8 679.56C464.64 677.79 466.17 676.23 466.28 675.01L466.31 674.68C466.6 674.56 466.96 674.28 467.18 673.64L467.25 673.45C467.47 672.82 467.49 672.76 467.88 672.14C468.4 671.31 468.47 669.76 468.02 668.94C467.82 668.58 467.52 668.35 467.16 668.27C467.28 667.69 467.37 667.13 467.44 666.62C468.37 661.14 467.55 658.04 464.85 656.85C464 656.48 463.21 656.29 462.5 656.29C462.3 656.29 462.1 656.31 461.93 656.34C461.31 655.84 460.2 655.25 458.34 655.25C457.89 655.25 457.41 655.28 456.91 655.35C454.91 655.62 453.78 655.98 452.96 656.24C452.17 656.49 451.82 656.59 451.28 656.46C450.96 656.38 450.62 656.53 450.45 656.82C450.38 656.95 449.72 658.13 449.41 659.64C448.79 662.63 448.89 665.38 449.74 668.28C449.4 668.37 449.12 668.6 448.93 668.94C448.48 669.76 448.55 671.31 449.07 672.14C449.46 672.75 449.48 672.82 449.7 673.46L449.76 673.63C449.98 674.27 450.35 674.55 450.63 674.67C450.64 674.79 450.65 674.9 450.66 675C450.77 676.22 452.3 677.78 454.14 679.55L454.22 679.63C454.19 680.18 454.11 680.69 454.01 681.1L453.18 682.21C452.77 682.37 452.18 682.53 451.44 682.67C451.03 682.75 450.58 682.83 450.06 682.9L447.84 683.18C444.13 683.61 443.6 684.77 443.18 687.51C442.9 689.36 442.87 691.68 442.87 692.12C442.87 692.32 442.95 692.51 443.09 692.65C443.23 692.79 443.42 692.87 443.62 692.87H470.75L470.4 691.43H470.42ZM459.67 685.37L460.31 686.03C460.44 686.17 460.64 686.25 460.85 686.25C461.06 686.25 461.25 686.17 461.39 686.03L463.63 683.74C463.79 683.79 463.95 683.84 464.13 683.89L460.48 689.24L459.45 685.58L459.67 685.38V685.37ZM460.3 683.67L459.81 683.24L461.83 682.4C461.88 682.5 461.93 682.58 461.98 682.66C462 682.69 462.02 682.72 462.04 682.75C462.1 682.83 462.16 682.91 462.24 683L460.84 684.44L460.54 684.13C460.51 683.96 460.43 683.8 460.3 683.68V683.67ZM457.11 683.26L455.97 684.43L454.64 683.07L454.7 683.01C454.78 682.92 454.86 682.83 454.94 682.71L454.98 682.65C455.03 682.58 455.07 682.5 455.12 682.41L457.1 683.27L457.11 683.26ZM456.51 686.03L457.2 685.32L457.49 685.63L456.48 689.24L452.83 683.89C452.97 683.85 453.1 683.82 453.22 683.78L455.42 686.04C455.55 686.18 455.75 686.26 455.95 686.26C456.16 686.26 456.35 686.18 456.49 686.04L456.51 686.03ZM451.24 673.25C451.24 673.25 451.21 673.18 451.19 673.13L451.13 672.96C450.88 672.24 450.82 672.07 450.35 671.32C450.12 670.95 450.11 670.17 450.18 669.81C450.42 670.68 450.63 671.3 450.69 671.48C450.8 671.78 451.09 671.97 451.41 671.97C451.82 671.97 452.16 671.63 452.16 671.22C452.16 671.17 452.16 671.1 452.14 671.06C452.1 670.52 451.84 666.26 452.48 664.62C452.87 663.62 453.95 663.16 454.79 663.16C455.13 663.16 455.43 663.24 455.56 663.37C456.47 664.24 457.81 664.34 458.34 664.34C458.41 664.34 458.46 664.34 458.48 664.34C458.51 664.34 458.56 664.34 458.63 664.34C459.16 664.34 460.5 664.25 461.41 663.37C461.54 663.24 461.84 663.16 462.18 663.16C462.9 663.16 463.66 663.49 464.11 663.99L464.41 664.43C464.44 664.49 464.47 664.55 464.5 664.61C465.18 666.35 464.83 671.11 464.83 671.16C464.8 671.53 465.05 671.87 465.42 671.95C465.79 672.03 466.16 671.82 466.29 671.46C466.35 671.29 466.56 670.68 466.79 669.83C466.85 670.2 466.86 670.93 466.63 671.3C466.16 672.04 466.09 672.22 465.85 672.93L465.79 673.11C465.79 673.11 465.76 673.2 465.74 673.23C465.56 673.21 465.36 673.26 465.21 673.37C465.04 673.5 464.92 673.69 464.9 673.9C464.86 674.26 464.83 674.58 464.81 674.83C464.74 675.59 462.67 677.58 461.78 678.44C461.35 678.85 460.99 679.2 460.77 679.45C460.59 679.65 460.33 679.75 459.94 679.75C459.74 679.75 459.55 679.73 459.39 679.71C459.27 679.7 459.17 679.68 459.1 679.68L458.52 679.65H458.5H458.46L457.9 679.68C457.82 679.68 457.72 679.69 457.6 679.71C457.44 679.73 457.25 679.75 457.06 679.75C456.67 679.75 456.41 679.66 456.23 679.45C456.02 679.21 455.69 678.89 455.23 678.45L455.21 678.43C454.33 677.58 452.26 675.59 452.19 674.83C452.17 674.58 452.14 674.26 452.1 673.9C452.08 673.69 451.97 673.49 451.79 673.37C451.64 673.26 451.45 673.21 451.26 673.23L451.24 673.25ZM466.16 665.03C466.09 664.65 466 664.33 465.89 664.07C465.84 663.95 465.79 663.84 465.72 663.71C465.71 663.68 465.69 663.66 465.67 663.63L465.32 663.12C465.32 663.12 465.29 663.08 465.27 663.06C464.53 662.2 463.34 661.66 462.17 661.66C461.42 661.66 460.78 661.88 460.36 662.29C459.83 662.8 458.9 662.84 458.62 662.84C458.56 662.84 458.53 662.84 458.51 662.84C458.48 662.84 458.45 662.84 458.42 662.84C458.4 662.84 458.37 662.84 458.32 662.84C458.05 662.84 457.11 662.8 456.58 662.29C456.16 661.89 455.51 661.66 454.77 661.66C453.44 661.66 451.71 662.42 451.06 664.08C450.9 664.49 450.77 665.04 450.69 665.72C450.39 663.81 450.45 661.95 450.87 659.93C451.04 659.11 451.34 658.38 451.52 658C452.19 658.04 452.78 657.86 453.4 657.66C454.16 657.42 455.21 657.09 457.1 656.83C457.53 656.77 457.95 656.74 458.33 656.74C460.05 656.74 460.85 657.32 461.17 657.67C461.34 657.85 461.59 657.94 461.83 657.9C461.91 657.89 461.98 657.87 462.04 657.84C462.16 657.79 462.82 657.59 464.24 658.22C465.37 658.72 466.76 659.97 466.14 665.05L466.16 665.03ZM461.37 680.91L461.18 680.99C461.24 680.96 461.3 680.92 461.36 680.89V680.91H461.37ZM455.61 680.89C456.01 681.14 456.5 681.27 457.05 681.27C457.33 681.27 457.59 681.24 457.77 681.22H457.84C457.89 681.22 457.93 681.21 457.96 681.21L458.48 681.18L459.03 681.21C459.03 681.21 459.11 681.21 459.21 681.23C459.4 681.25 459.65 681.29 459.94 681.29C460.3 681.29 460.62 681.24 460.92 681.13L458.43 682.2L455.61 680.98C455.61 680.98 455.62 680.93 455.62 680.9L455.61 680.89ZM458.45 684.45L458.25 684.24L458.41 684.08L458.62 684.3L458.45 684.46V684.45ZM459.41 690.81L459.03 691.36H457.94L457.56 690.81L458.48 687.27L459.4 690.81H459.41ZM444.4 691.37C444.42 690.51 444.49 688.97 444.68 687.73C445.01 685.58 445.09 685 448.03 684.66L448.26 684.63C448.54 684.6 448.88 684.56 449.26 684.51C450.01 684.42 450.66 684.32 451.25 684.22L455.95 691.12L455.88 691.36H444.39L444.4 691.37Z" fill="#45B4FE"/>
<path d="M472.731 689.91C473.061 690.24 473.581 690.24 473.901 689.91L478.191 685.62C478.971 684.84 478.971 683.54 478.191 682.76C477.411 681.98 476.111 681.98 475.331 682.76L473.311 684.78L473.051 684.52C472.661 684.13 472.141 683.93 471.621 683.93C470.511 683.93 469.601 684.84 469.601 685.95C469.601 686.47 469.801 686.99 470.191 687.38L472.731 689.92V689.91ZM471.561 685.49C471.631 685.49 471.761 685.49 471.821 685.62L472.671 686.47C473.001 686.8 473.521 686.8 473.841 686.47L476.441 683.87C476.571 683.74 476.831 683.74 477.031 683.87C477.161 684 477.161 684.26 477.031 684.46L473.321 688.17L471.301 686.15C471.171 686.02 471.171 685.95 471.171 685.89C471.171 685.69 471.301 685.5 471.561 685.5V685.49Z" fill="#45B4FE"/>
<path d="M467.98 680.02C469.8 680.22 471.36 680.02 472.66 679.56H475.391C476.691 680.02 478.251 680.15 480.081 680.02C480.081 687.76 480.21 688.22 477.93 690.63C477.15 691.48 476.3 692.26 475.13 693.43H472.79C469.93 690.44 468.76 689.59 468.3 688.09C467.91 686.66 467.91 684.45 467.97 680.02H467.98ZM481.711 685.03C481.771 683.6 481.711 681.71 481.711 679.11C481.711 678.59 481.25 678.2 480.8 678.33C478.85 678.66 477.16 678.53 475.85 678.07C475.79 678.01 475.651 678.01 475.591 678.01H472.6C472.54 678.01 472.401 678.01 472.341 678.07C471.041 678.59 469.351 678.66 467.391 678.33C466.871 678.27 466.48 678.66 466.48 679.11V684.45L466.51 686.07C466.53 686.43 466.54 686.75 466.56 687.07C466.6 687.9 466.83 688.71 467.23 689.45L467.591 690.11C468.441 691.35 469.741 692.45 471.951 694.73C472.081 694.86 472.34 694.99 472.54 694.99H475.531C475.731 694.99 475.99 694.93 476.12 694.73C476.71 694.08 477.23 693.56 477.75 693.1L479.38 691.47C480.68 690.04 481.331 689.06 481.591 687.11L481.72 685.03H481.711Z" fill="#45B4FE"/>
<path d="M361.36 209.83C376.537 209.83 388.84 197.527 388.84 182.35C388.84 167.173 376.537 154.87 361.36 154.87C346.183 154.87 333.88 167.173 333.88 182.35C333.88 197.527 346.183 209.83 361.36 209.83Z" fill="white" stroke="#45B4FE" stroke-width="1.94" stroke-miterlimit="10"/>
<path d="M362.989 190.98C362.469 190.78 361.949 190.65 361.879 190.65V189.41C362.079 189.41 362.209 189.48 362.399 189.54C362.659 189.61 362.989 189.74 363.179 189.87C363.239 189.93 363.309 189.93 363.309 190L363.959 188.76C363.699 188.63 363.439 188.5 363.049 188.37C362.719 188.24 362.329 188.17 361.939 188.11V187.2H361.349V188.11C360.499 188.17 359.789 188.57 359.459 189.35C359.329 189.61 359.329 189.87 359.329 190.2C359.329 190.85 359.589 191.31 360.309 191.63C360.769 191.89 361.289 191.96 361.479 192.02V193.19C361.279 193.19 361.089 193.13 360.829 193.06C360.499 192.93 360.179 192.8 359.919 192.6C359.789 192.54 359.719 192.47 359.719 192.47L359.069 193.77C359.719 194.23 360.569 194.49 361.349 194.55V195.59H361.939V194.55C362.199 194.55 362.529 194.48 362.789 194.42C363.049 194.36 363.249 194.22 363.509 194.09C363.709 193.96 363.899 193.76 363.969 193.5C364.099 193.24 364.169 192.98 364.169 192.65C364.169 192.39 364.109 192.13 364.039 191.93C363.839 191.47 363.519 191.15 362.999 190.95L362.989 190.98ZM361.429 190.46C361.229 190.39 361.039 190.33 360.969 190.26C360.839 190.19 360.839 190.06 360.839 189.93C360.839 189.6 361.039 189.47 361.489 189.41L361.429 190.45V190.46ZM361.889 193.2V192.16C362.089 192.23 362.279 192.29 362.409 192.42C362.539 192.49 362.609 192.62 362.609 192.81C362.539 193.07 362.349 193.2 361.889 193.2Z" fill="#45B4FE"/>
<path d="M362.41 181.68V178.3C362.48 176.8 363.71 175.63 365.14 175.63C366.25 175.63 367.22 176.35 367.61 177.32C367.61 177.367 367.63 177.41 367.67 177.45C367.8 177.78 367.87 178.1 367.87 178.49C367.87 178.95 368.26 179.27 368.72 179.27C369.18 179.27 369.57 178.88 369.57 178.49C369.57 176.93 370.81 175.69 372.3 175.69C373.41 175.69 374.38 176.34 374.77 177.38C374.9 177.77 375.36 177.97 375.75 177.84C376.14 177.71 376.4 177.32 376.34 176.93C375.04 170.03 369.64 164.5 362.48 164.18V163.01C362.48 162.55 362.09 162.16 361.63 162.16C361.17 162.16 360.85 162.55 360.85 163.01V164.18C353.69 164.57 348.29 170.1 346.99 176.93C346.92 177.32 347.19 177.71 347.58 177.84C347.97 177.97 348.43 177.78 348.56 177.38C349.08 176.14 350.38 175.43 351.68 175.75C352.92 176.08 353.76 177.18 353.76 178.48C353.76 178.94 354.15 179.26 354.61 179.26C355.07 179.26 355.46 178.87 355.46 178.48C355.46 178.09 355.53 177.76 355.66 177.44C355.66 177.38 355.72 177.38 355.72 177.31C356.18 176.33 357.09 175.68 358.19 175.68C359.69 175.68 360.92 176.92 360.92 178.48V181.67C355.91 182.06 351.94 186.29 351.94 191.37C351.94 196.77 356.3 201.13 361.7 201.13C367.1 201.13 371.46 196.77 371.46 191.37C371.33 186.29 367.43 182.06 362.42 181.67L362.41 181.68ZM362.41 174.98V165.87C363.45 166.2 364.49 167.24 365.34 168.8C366.19 170.36 366.84 172.31 367.23 174.59C365.67 173.68 363.78 173.81 362.41 174.98ZM373.86 174.33C372.23 173.68 370.28 174 369.04 175.44C368.58 172.38 367.61 168.8 365.72 166.4C369.36 167.57 372.36 170.5 373.85 174.34L373.86 174.33ZM349.33 174.26C350.89 170.49 353.82 167.62 357.53 166.39C355.64 168.8 354.67 172.38 354.21 175.37C352.97 174.07 351.02 173.61 349.33 174.26ZM355.97 174.52C356.36 172.24 357.01 170.29 357.92 168.73C358.77 167.17 359.81 166.19 360.78 165.87V174.98C359.41 173.81 357.53 173.68 355.96 174.52H355.97ZM361.56 199.51C357.07 199.51 353.43 195.87 353.43 191.38C353.43 186.89 357.14 183.25 361.56 183.25C365.98 183.25 369.69 186.89 369.69 191.38C369.69 195.87 366.05 199.51 361.56 199.51Z" fill="#45B4FE"/>
<path d="M361.56 184.87C357.98 184.87 355.05 187.8 355.05 191.38C355.05 194.96 357.98 197.89 361.56 197.89C365.14 197.89 368.07 194.96 368.07 191.38C368.07 187.8 365.21 184.87 361.56 184.87ZM361.56 196.25C358.89 196.25 356.68 194.04 356.68 191.37C356.68 188.7 358.89 186.49 361.56 186.49C364.23 186.49 366.44 188.7 366.44 191.37C366.44 194.04 364.29 196.25 361.56 196.25Z" fill="#45B4FE"/>
<path d="M459.68 495.1C474.857 495.1 487.16 482.797 487.16 467.62C487.16 452.443 474.857 440.14 459.68 440.14C444.503 440.14 432.2 452.443 432.2 467.62C432.2 482.797 444.503 495.1 459.68 495.1Z" fill="white" stroke="#45B4FE" stroke-width="1.94" stroke-miterlimit="10"/>
<path d="M455.02 472.35C454.82 472.17 453.9 471.43 452.72 471.13C453.68 470.4 454.3 469.26 454.3 467.97C454.3 465.77 452.51 463.98 450.31 463.98C448.11 463.98 446.32 465.77 446.32 467.97C446.32 469.26 446.95 470.4 447.9 471.13C446.71 471.42 445.8 472.17 445.61 472.34C442.6 474.5 442.29 476.23 442.27 476.7C442.19 477.42 442.51 478.29 443.38 478.51C443.52 478.54 443.65 478.56 443.79 478.56C444.47 478.56 444.98 478.13 445.22 477.76C445.23 477.74 445.25 477.71 445.26 477.69C445.54 477.14 445.9 476.63 446.35 476.17C446.35 476.38 446.35 476.56 446.36 476.72C445.93 476.91 445.69 477.24 445.61 477.53C445.42 478.11 445.5 479.04 445.61 479.79C445.32 479.86 444.96 479.95 444.51 480.08C444.24 480.16 443.59 480.4 443.26 481.08C443.1 481.42 442.97 481.97 443.28 482.73C443.39 482.99 443.67 483.33 444.33 484.1C444.45 484.24 444.59 484.4 444.7 484.53C444.65 484.6 444.58 484.68 444.52 484.76L444.4 484.92C443.96 485.48 444.15 485.98 444.25 486.17C444.57 486.76 445.34 486.92 445.96 486.87C446.97 486.79 448.32 485.38 448.32 484.4C448.32 484 448.07 483.55 447.57 483.01C447.65 482.97 447.72 482.92 447.79 482.88C448.94 483.69 449.93 483.69 450.27 483.65C450.65 483.69 451.65 483.69 452.8 482.88C452.87 482.93 452.95 482.97 453.02 483.01C452.52 483.55 452.27 484.01 452.27 484.4C452.27 485.38 453.61 486.79 454.62 486.87C454.69 486.87 454.77 486.87 454.84 486.87C455.54 486.87 456.08 486.61 456.32 486.16C456.4 486.01 456.63 485.49 456.17 484.91L456.01 484.71C455.97 484.66 455.91 484.59 455.87 484.53C455.97 484.41 456.09 484.27 456.21 484.13L456.24 484.09C456.9 483.32 457.19 482.98 457.29 482.72C457.6 481.97 457.47 481.41 457.31 481.07C456.98 480.4 456.33 480.15 456.06 480.07C455.62 479.94 455.26 479.85 454.96 479.78C455.08 479.03 455.16 478.1 454.97 477.53C454.89 477.23 454.64 476.9 454.22 476.71C454.22 476.55 454.23 476.37 454.23 476.16C454.68 476.61 455.04 477.12 455.32 477.68C455.33 477.71 455.35 477.73 455.36 477.75C455.57 478.08 456.08 478.55 456.78 478.55C456.91 478.55 457.05 478.53 457.19 478.5C458.06 478.28 458.38 477.41 458.3 476.7C458.28 476.22 457.97 474.49 454.97 472.34L455.02 472.35ZM450.32 470.35C449.01 470.35 447.94 469.28 447.94 467.97C447.94 466.66 449.01 465.59 450.32 465.59C451.63 465.59 452.7 466.66 452.7 467.97C452.7 469.28 451.63 470.35 450.32 470.35ZM454.28 484.88C454.13 484.73 453.99 484.56 453.93 484.44C454 484.34 454.14 484.18 454.32 484C454.17 484.32 454.19 484.62 454.29 484.88H454.28ZM450.49 482.04C450.37 482.01 450.28 482.01 450.16 482.04C450.13 482.04 449.35 482.16 448.34 481.24L447.31 480.08C447.16 479.34 447.08 478.53 447.12 478.17C447.14 478.17 447.16 478.17 447.18 478.17H453.46C453.46 478.17 453.5 478.17 453.52 478.17C453.56 478.53 453.47 479.34 453.32 480.08L452.29 481.24C451.3 482.15 450.51 482.04 450.5 482.04H450.49ZM446.32 484C446.5 484.18 446.63 484.33 446.71 484.43C446.65 484.56 446.51 484.73 446.36 484.88C446.45 484.62 446.48 484.31 446.33 484H446.32ZM446.25 481.29L446.59 481.67C446.42 481.73 446.2 481.78 445.92 481.78C445.58 481.78 445.27 482 445.16 482.32C445.14 482.39 445.12 482.45 445.12 482.52C444.96 482.33 444.81 482.15 444.77 482.09C444.7 481.92 444.7 481.81 444.72 481.77C444.75 481.71 444.87 481.64 444.97 481.61C445.62 481.42 446.01 481.33 446.25 481.28V481.29ZM454.68 481.78C454.41 481.78 454.2 481.73 454.03 481.68L454.38 481.29C454.61 481.34 455 481.43 455.66 481.62C455.75 481.65 455.87 481.71 455.9 481.77C455.92 481.81 455.92 481.92 455.86 482.07C455.82 482.14 455.67 482.33 455.5 482.52C455.5 482.45 455.48 482.39 455.46 482.32C455.35 482 455.04 481.78 454.68 481.78ZM452.51 473.84C452.28 474.13 452.28 474.54 452.51 474.82C452.59 474.94 452.68 475.72 452.66 476.55H447.98C447.95 475.72 448.04 474.95 448.12 474.84C448.35 474.55 448.36 474.14 448.12 473.84C447.89 473.55 447.49 473.45 447.15 473.6C447.06 473.64 445.04 474.59 443.88 476.87C443.88 476.86 443.88 476.85 443.88 476.84C443.88 476.81 443.88 476.79 443.88 476.79C443.88 476.74 444.06 475.42 446.58 473.62C446.61 473.6 446.63 473.58 446.65 473.56C446.66 473.56 447.72 472.61 448.84 472.61H451.77C452.89 472.61 453.95 473.55 453.96 473.56C453.98 473.58 454.01 473.6 454.04 473.62C456.57 475.43 456.73 476.73 456.74 476.76C456.74 476.8 456.74 476.81 456.74 476.86C455.56 474.57 453.55 473.64 453.47 473.6C453.13 473.44 452.73 473.54 452.5 473.83L452.51 473.84Z" fill="#45B4FE"/>
<path d="M469.92 456.31H469.63C470.68 455.52 471.36 454.27 471.36 452.86C471.36 450.48 469.42 448.54 467.04 448.54C464.66 448.54 462.72 450.48 462.72 452.86C462.72 454.27 463.4 455.52 464.45 456.31H464.16C461.46 456.31 459.26 458.51 459.26 461.21V470.52C459.26 471.66 460.19 472.58 461.32 472.58C461.71 472.58 462.09 472.47 462.41 472.27V484.52C462.41 485.75 463.41 486.74 464.63 486.74C465.85 486.74 466.85 485.74 466.85 484.52V473.45H467.1V484.52C467.1 485.75 468.1 486.74 469.32 486.74C470.54 486.74 471.54 485.74 471.54 484.52V472.18C471.89 472.44 472.32 472.58 472.76 472.58C473.9 472.58 474.82 471.65 474.82 470.52V461.21C474.82 458.51 472.62 456.31 469.92 456.31ZM471.15 459.18C470.9 459.03 470.59 459.02 470.34 459.17C470.09 459.31 469.93 459.58 469.93 459.87V484.52C469.93 484.86 469.65 485.14 469.31 485.14C468.97 485.14 468.69 484.86 468.69 484.52V472.65C468.69 472.21 468.33 471.85 467.89 471.85H466.03C465.59 471.85 465.23 472.21 465.23 472.65V484.52C465.23 484.86 464.95 485.14 464.61 485.14C464.27 485.14 463.99 484.86 463.99 484.52V459.96C463.99 459.65 463.82 459.38 463.54 459.24C463.26 459.1 462.94 459.13 462.7 459.32C462.1 459.78 461.75 460.47 461.75 461.21V470.52C461.75 470.77 461.54 470.98 461.29 470.98C461.04 470.98 460.83 470.77 460.83 470.52V461.21C460.83 459.39 462.31 457.91 464.13 457.91H469.9C471.72 457.91 473.2 459.39 473.2 461.21V470.52C473.2 470.77 472.99 470.98 472.74 470.98C472.49 470.98 472.28 470.77 472.28 470.52V461.21C472.28 460.38 471.85 459.62 471.13 459.18H471.15ZM467.03 455.57C465.53 455.57 464.32 454.35 464.32 452.86C464.32 451.37 465.54 450.15 467.03 450.15C468.52 450.15 469.74 451.37 469.74 452.86C469.74 454.35 468.52 455.57 467.03 455.57Z" fill="#45B4FE"/>
<path d="M570.89 337.77C586.067 337.77 598.37 325.467 598.37 310.29C598.37 295.113 586.067 282.81 570.89 282.81C555.713 282.81 543.41 295.113 543.41 310.29C543.41 325.467 555.713 337.77 570.89 337.77Z" fill="white" stroke="#45B4FE" stroke-width="1.94" stroke-miterlimit="10"/>
<path d="M581.11 324.59V324.53H571.77L571.7 324.29L576.4 317.39C576.87 317.47 577.39 317.55 577.96 317.63L578.23 317.67V316.15L578.02 316.12C577.33 316.03 576.73 315.93 576.19 315.83C575.3 315.66 574.64 315.47 574.23 315.27L573.73 314.6C573.71 314.53 573.68 314.47 573.66 314.39C573.54 313.96 573.45 313.4 573.41 312.79L573.49 312.72C575.33 310.95 576.86 309.39 576.97 308.17L577 307.84C577.29 307.72 577.65 307.44 577.87 306.8L577.94 306.61C578.16 305.98 578.18 305.92 578.57 305.3C579.09 304.47 579.16 302.92 578.71 302.1C578.51 301.74 578.21 301.51 577.85 301.43C577.97 300.85 578.06 300.29 578.13 299.78C579.06 294.3 578.24 291.2 575.54 290.01C574.69 289.64 573.9 289.45 573.19 289.45C572.99 289.45 572.79 289.47 572.62 289.5C572 289 570.89 288.41 569.03 288.41C568.58 288.41 568.1 288.44 567.6 288.51C565.6 288.78 564.47 289.14 563.65 289.4C562.86 289.65 562.51 289.75 561.97 289.62C561.65 289.54 561.31 289.69 561.14 289.98C561.07 290.11 560.41 291.29 560.1 292.8C559.48 295.79 559.58 298.54 560.43 301.44C560.09 301.53 559.81 301.76 559.62 302.1C559.17 302.92 559.24 304.47 559.76 305.3C560.15 305.91 560.17 305.98 560.39 306.62L560.45 306.79C560.67 307.43 561.04 307.71 561.32 307.83C561.33 307.95 561.34 308.06 561.35 308.16C561.46 309.38 562.99 310.94 564.83 312.71L564.91 312.79C564.88 313.34 564.8 313.85 564.7 314.26L563.87 315.37C563.46 315.53 562.87 315.69 562.13 315.83C561.72 315.91 561.27 315.99 560.75 316.06L558.53 316.34C554.82 316.77 554.29 317.93 553.87 320.67C553.59 322.52 553.56 324.84 553.56 325.28C553.56 325.48 553.64 325.67 553.78 325.81C553.92 325.95 554.11 326.03 554.31 326.03H581.44L581.09 324.59H581.11ZM570.37 318.53L571.01 319.19C571.14 319.33 571.34 319.41 571.55 319.41C571.76 319.41 571.95 319.33 572.09 319.19L574.33 316.9C574.49 316.95 574.65 317 574.83 317.05L571.18 322.4L570.15 318.74L570.37 318.54V318.53ZM571 316.82L570.51 316.39L572.53 315.55C572.58 315.65 572.63 315.73 572.68 315.81C572.7 315.84 572.72 315.87 572.74 315.9C572.8 315.98 572.86 316.06 572.94 316.15L571.54 317.59L571.24 317.28C571.21 317.11 571.13 316.95 571 316.83V316.82ZM567.8 316.42L566.66 317.59L565.33 316.23L565.39 316.17C565.47 316.08 565.55 315.99 565.63 315.87L565.67 315.81C565.72 315.74 565.76 315.66 565.81 315.57L567.79 316.43L567.8 316.42ZM567.2 319.19L567.89 318.48L568.18 318.79L567.17 322.4L563.52 317.05C563.66 317.01 563.79 316.98 563.91 316.94L566.11 319.2C566.24 319.34 566.44 319.42 566.64 319.42C566.85 319.42 567.04 319.34 567.18 319.2L567.2 319.19ZM561.94 306.41C561.94 306.41 561.91 306.34 561.89 306.29L561.83 306.12C561.58 305.4 561.52 305.23 561.05 304.48C560.82 304.11 560.81 303.33 560.88 302.97C561.12 303.84 561.33 304.46 561.39 304.64C561.5 304.94 561.79 305.13 562.11 305.13C562.52 305.13 562.86 304.79 562.86 304.38C562.86 304.33 562.86 304.26 562.84 304.22C562.8 303.68 562.54 299.42 563.18 297.78C563.57 296.78 564.65 296.32 565.49 296.32C565.83 296.32 566.13 296.4 566.26 296.53C567.17 297.4 568.51 297.5 569.04 297.5C569.11 297.5 569.16 297.5 569.18 297.5C569.21 297.5 569.26 297.5 569.33 297.5C569.86 297.5 571.2 297.41 572.11 296.53C572.24 296.4 572.54 296.32 572.88 296.32C573.6 296.32 574.36 296.65 574.81 297.15L575.11 297.59C575.14 297.65 575.17 297.71 575.2 297.77C575.88 299.51 575.53 304.27 575.53 304.32C575.5 304.69 575.75 305.03 576.12 305.11C576.49 305.19 576.86 304.98 576.99 304.62C577.05 304.45 577.26 303.84 577.49 302.99C577.55 303.36 577.56 304.09 577.33 304.46C576.86 305.2 576.79 305.38 576.55 306.09L576.49 306.27C576.49 306.27 576.46 306.36 576.44 306.39C576.26 306.37 576.06 306.42 575.91 306.53C575.74 306.66 575.62 306.85 575.6 307.06C575.56 307.42 575.53 307.74 575.51 307.99C575.44 308.75 573.37 310.74 572.48 311.6C572.05 312.01 571.69 312.36 571.47 312.61C571.29 312.81 571.03 312.91 570.64 312.91C570.44 312.91 570.25 312.89 570.09 312.87C569.97 312.86 569.87 312.84 569.8 312.84L569.22 312.81H569.2H569.16L568.6 312.84C568.52 312.84 568.42 312.85 568.3 312.87C568.14 312.89 567.95 312.91 567.76 312.91C567.37 312.91 567.11 312.82 566.93 312.61C566.72 312.37 566.39 312.05 565.93 311.61L565.91 311.59C565.03 310.74 562.96 308.75 562.89 307.99C562.87 307.74 562.84 307.42 562.8 307.06C562.78 306.85 562.67 306.65 562.49 306.53C562.34 306.42 562.15 306.37 561.96 306.39L561.94 306.41ZM576.85 298.19C576.78 297.81 576.69 297.49 576.58 297.23C576.53 297.11 576.48 297 576.41 296.87C576.4 296.84 576.38 296.82 576.36 296.79L576.01 296.28C576.01 296.28 575.98 296.24 575.96 296.22C575.22 295.36 574.03 294.82 572.86 294.82C572.11 294.82 571.47 295.04 571.05 295.45C570.52 295.96 569.59 296 569.31 296C569.25 296 569.22 296 569.2 296C569.17 296 569.14 296 569.11 296C569.09 296 569.06 296 569.01 296C568.74 296 567.8 295.96 567.27 295.45C566.85 295.05 566.2 294.82 565.46 294.82C564.13 294.82 562.4 295.58 561.75 297.24C561.59 297.65 561.46 298.2 561.38 298.88C561.08 296.97 561.14 295.11 561.56 293.09C561.73 292.27 562.03 291.54 562.21 291.16C562.88 291.2 563.47 291.02 564.09 290.82C564.85 290.58 565.9 290.25 567.79 289.99C568.22 289.93 568.64 289.9 569.02 289.9C570.74 289.9 571.54 290.48 571.86 290.83C572.03 291.01 572.28 291.1 572.52 291.06C572.6 291.05 572.67 291.03 572.73 291C572.85 290.95 573.51 290.75 574.93 291.38C576.06 291.88 577.45 293.13 576.83 298.21L576.85 298.19ZM572.06 314.07L571.87 314.15C571.93 314.12 571.99 314.08 572.05 314.05V314.07H572.06ZM566.3 314.05C566.7 314.3 567.19 314.43 567.74 314.43C568.02 314.43 568.28 314.4 568.46 314.38H568.53C568.58 314.38 568.62 314.37 568.65 314.37L569.17 314.34L569.72 314.37C569.72 314.37 569.8 314.37 569.9 314.39C570.09 314.41 570.34 314.45 570.63 314.45C570.99 314.45 571.31 314.4 571.61 314.29L569.12 315.36L566.3 314.14C566.3 314.14 566.31 314.09 566.31 314.06L566.3 314.05ZM569.14 317.61L568.94 317.4L569.1 317.24L569.31 317.46L569.14 317.62V317.61ZM570.1 323.97L569.72 324.52H568.63L568.25 323.97L569.17 320.43L570.09 323.97H570.1ZM555.09 324.52C555.11 323.66 555.18 322.12 555.37 320.88C555.7 318.73 555.78 318.15 558.72 317.81L558.95 317.78C559.23 317.75 559.57 317.71 559.95 317.66C560.7 317.57 561.35 317.47 561.94 317.37L566.64 324.27L566.57 324.51H555.08L555.09 324.52Z" fill="#45B4FE"/>
<path d="M578.67 313.18C580.49 313.38 582.05 313.18 583.35 312.72H586.08C587.38 313.18 588.94 313.31 590.77 313.18C590.77 320.92 590.9 321.38 588.62 323.79C587.84 324.64 586.99 325.42 585.82 326.59H583.48C580.62 323.6 579.45 322.75 578.99 321.25C578.6 319.82 578.6 317.61 578.66 313.18H578.67ZM592.4 318.19C592.46 316.76 592.4 314.87 592.4 312.27C592.4 311.75 591.94 311.36 591.49 311.49C589.54 311.82 587.85 311.69 586.54 311.23C586.48 311.17 586.34 311.17 586.28 311.17H583.29C583.23 311.17 583.09 311.17 583.03 311.23C581.73 311.75 580.04 311.82 578.08 311.49C577.56 311.43 577.17 311.82 577.17 312.27V317.61L577.2 319.23C577.22 319.59 577.23 319.91 577.25 320.23C577.29 321.06 577.52 321.87 577.92 322.61L578.28 323.27C579.13 324.51 580.43 325.61 582.64 327.89C582.77 328.02 583.03 328.15 583.23 328.15H586.22C586.42 328.15 586.68 328.09 586.81 327.89C587.4 327.24 587.92 326.72 588.44 326.26L590.07 324.63C591.37 323.2 592.02 322.22 592.28 320.27L592.41 318.19H592.4Z" fill="#45B4FE"/>
<path d="M581.83 315.16C582.02 315 582.22 314.85 582.43 314.71C582.64 314.57 582.88 314.45 583.13 314.35C583.38 314.25 583.65 314.17 583.94 314.11C584.23 314.05 584.55 314.02 584.88 314.02C585.35 314.02 585.77 314.08 586.14 314.21C586.52 314.34 586.84 314.52 587.11 314.75C587.38 314.99 587.59 315.27 587.73 315.6C587.88 315.93 587.95 316.3 587.95 316.71C587.95 317.12 587.89 317.44 587.78 317.73C587.67 318.02 587.53 318.27 587.36 318.48C587.19 318.69 587.01 318.88 586.81 319.03C586.61 319.19 586.42 319.33 586.24 319.46C586.06 319.59 585.9 319.73 585.77 319.86C585.64 319.99 585.56 320.14 585.53 320.3L585.34 321.41H583.88L583.73 320.16C583.69 319.91 583.73 319.7 583.82 319.51C583.92 319.33 584.05 319.16 584.22 319.01C584.39 318.86 584.57 318.71 584.77 318.57C584.97 318.43 585.17 318.28 585.34 318.11C585.52 317.95 585.67 317.76 585.79 317.56C585.91 317.36 585.97 317.11 585.97 316.84C585.97 316.5 585.85 316.23 585.62 316.03C585.39 315.83 585.07 315.73 584.69 315.73C584.41 315.73 584.17 315.76 583.97 315.82C583.78 315.88 583.61 315.95 583.47 316.03C583.33 316.1 583.21 316.17 583.11 316.24C583.01 316.3 582.92 316.33 582.83 316.33C582.63 316.33 582.49 316.24 582.39 316.07L581.82 315.19L581.83 315.16ZM583.27 324.25C583.27 324.08 583.3 323.92 583.37 323.77C583.43 323.62 583.52 323.49 583.64 323.38C583.75 323.27 583.89 323.18 584.04 323.12C584.19 323.06 584.36 323.02 584.54 323.02C584.72 323.02 584.88 323.05 585.04 323.12C585.2 323.19 585.33 323.27 585.44 323.38C585.55 323.49 585.64 323.62 585.71 323.77C585.77 323.92 585.81 324.08 585.81 324.25C585.81 324.42 585.78 324.59 585.71 324.74C585.64 324.89 585.56 325.02 585.44 325.13C585.32 325.24 585.19 325.33 585.04 325.39C584.88 325.45 584.72 325.48 584.54 325.48C584.36 325.48 584.19 325.45 584.04 325.39C583.89 325.33 583.75 325.24 583.64 325.13C583.53 325.02 583.44 324.89 583.37 324.74C583.31 324.59 583.27 324.43 583.27 324.25Z" fill="#45B4FE"/>
<path d="M514 154.45C529.176 154.45 541.479 142.147 541.479 126.97C541.479 111.793 529.176 99.49 514 99.49C498.823 99.49 486.52 111.793 486.52 126.97C486.52 142.147 498.823 154.45 514 154.45Z" fill="white" stroke="#45B4FE" stroke-width="1.94" stroke-miterlimit="10"/>
<path d="M497.3 115.81L497.62 115.68L497.29 115.8L499.11 115.14L499.12 115.16L497.3 115.81Z" fill="#45B4FE"/>
<path d="M526.42 144.36L526.25 144.32C525.7 144.2 525.24 143.78 525.09 143.24C525 142.93 525.02 142.62 525.14 142.34C525.14 142.32 525.12 142.3 525.12 142.28L525.09 142.16C524.91 141.36 524.36 140.26 523.8 140.38L523.3 140.48L522.93 140.13C522.41 139.63 522.24 138.8 522.06 137.93C522.01 137.69 521.96 137.45 521.91 137.25C521.23 136.73 520.84 135.85 520.86 134.85C520.83 134.8 520.81 134.75 520.79 134.7C519.54 134.8 519.23 134.06 518.75 132.58L518.56 131.99C518.38 131.82 518.16 131.58 518.07 131.21L517.99 130.85L518.04 130.76L517.93 130.59C517.04 129.16 517.43 127.63 517.76 126.28C518.1 124.93 518.27 124.06 517.75 123.35L517.69 123.26C517.6 123.11 517.42 122.99 517.12 122.81C516.7 122.56 516.15 122.23 515.78 121.58C514.94 121.3 514.71 120.65 514.59 120.31C514.52 120.1 514.5 120.07 514.44 120.02L514.19 119.83L514.1 119.54C513.96 119.1 513.75 118.97 513.23 118.68C512.98 118.54 512.71 118.39 512.44 118.18C512.38 118.18 512.32 118.18 512.27 118.18C512.1 118.18 511.84 118.17 511.68 118.18C511.39 118.59 511.05 118.89 510.65 119.09C510.48 119.17 510.31 119.29 510.14 119.4C509.69 119.7 509.18 120.04 508.62 119.95C508.46 120.1 508.24 120.25 507.94 120.29C507.71 120.48 507.36 120.57 506.84 120.43C506.52 120.43 506.29 120.3 506.14 120.19C505.71 119.87 505.64 119.39 505.6 119.13C505.6 119.09 505.6 119.05 505.58 119.02C505.23 118.65 504.82 118.37 504.38 118.06C504.05 117.83 503.71 117.6 503.41 117.34L503.31 117.26C503.14 117.18 502.76 117.07 502.53 117C502.1 116.88 501.7 116.76 501.4 116.57L501.38 116.93L500.21 116.61C499.72 116.47 499.03 116.52 498.67 116.72L498.46 116.84H498.22C497.95 116.86 497.72 116.83 497.53 116.77C497.07 116.96 496.36 117.09 495.91 116.6C495.63 116.3 495.53 115.82 495.79 115.37L494.67 114L495.08 113.98C494.78 113.61 494.57 113.15 494.75 112.6C495.2 111.18 497.43 111.06 504.35 111.41C505.21 111.45 505.99 111.49 506.6 111.51C507.57 111.54 508.44 111.99 508.92 112.72C509.5 113.59 512.93 113.54 515.19 113.51C517.51 113.47 519.63 113.45 520.98 113.98C520.96 113.57 521.03 113.15 521.34 112.79L521.49 112.61L521.71 112.52C522.6 112.16 523.38 112.59 523.9 112.88C524.11 113 524.38 113.15 524.5 113.15L525.47 113.07L525.54 114.04C525.67 115.88 526.28 118.1 527.35 120.65C528.17 122.15 529.37 125.47 530.87 130.43L530.94 130.67C532.96 133.75 531.96 137.6 531.15 140.71C530.99 141.3 530.84 141.88 530.72 142.42C530.18 144.2 528.37 144.24 527.29 144.26C527.02 144.26 526.76 144.26 526.54 144.3L526.37 144.32L526.42 144.36ZM526.9 141.42C527.14 141.5 527.77 141.73 528.02 142.33C528.55 142.29 528.83 142.19 528.9 141.96C529.01 141.47 529.16 140.87 529.32 140.25C530.08 137.34 530.94 134.05 529.31 131.67C529.257 131.583 529.177 131.363 529.07 131.01C527.25 124.99 526.21 122.52 525.66 121.51C524.61 119.02 523.98 116.84 523.74 114.95C523.5 114.86 523.28 114.74 523.08 114.63C523.17 115.15 523.22 115.79 522.78 116.28C522.57 116.52 522.15 116.81 521.47 116.75L520.71 116.7L520.58 115.95C520.23 115.38 517 115.43 515.26 115.45C511.79 115.5 508.51 115.55 507.35 113.8C507.22 113.6 506.92 113.47 506.59 113.46C505.97 113.44 505.18 113.4 504.3 113.36C502.46 113.27 499.02 113.09 497.33 113.28C497.5 113.41 497.62 113.57 497.72 113.74L497.77 113.7L498.02 113.77C498.11 113.71 498.22 113.67 498.34 113.64C498.66 113.57 499.13 113.62 499.55 114.22L499.65 114.4C499.65 114.4 499.68 114.48 499.7 114.51C499.73 114.54 499.75 114.57 499.77 114.6C499.85 114.6 499.92 114.6 500 114.61C500.05 114.56 500.1 114.52 500.14 114.49C500.66 114.11 501.29 114.18 501.8 114.3C502.44 114.08 503.1 114.27 503.5 114.64C503.73 114.85 503.86 115.12 503.9 115.38C504.26 115.51 504.57 115.67 504.79 115.91C505.03 116.1 505.29 116.29 505.55 116.47C506.09 116.85 506.66 117.24 507.12 117.76C507.24 117.87 507.33 118.01 507.4 118.15L507.61 117.98L507.73 118.09C507.92 117.93 508.17 117.78 508.5 117.75L509.32 117.67C509.49 117.56 509.67 117.45 509.85 117.36C509.97 117.3 510.09 117.17 510.22 116.98C510.7 116.21 511.67 116.24 512.39 116.26C512.55 116.26 512.69 116.27 512.82 116.26L513.27 116.23L513.58 116.56C513.74 116.73 513.97 116.85 514.23 117C514.77 117.3 515.5 117.7 515.91 118.7C516.26 119.05 516.39 119.44 516.48 119.68C516.49 119.71 516.5 119.74 516.51 119.76C516.54 119.76 516.57 119.77 516.62 119.78L517.25 119.84L517.45 120.44C517.56 120.76 517.75 120.89 518.19 121.15C518.58 121.39 519.07 121.68 519.41 122.24C520.46 123.72 520.04 125.39 519.71 126.74C519.66 126.96 519.6 127.18 519.55 127.38C519.59 127.38 519.63 127.4 519.67 127.4L520.05 127.5C520.1 127.5 520.16 127.5 520.21 127.5L520.64 127.53L520.91 127.87C521.88 129.12 520.85 130.34 520.33 130.94C520.51 131.17 520.67 131.5 520.64 131.92L520.66 131.98C520.75 132.25 520.84 132.53 520.91 132.73C520.97 132.72 521.03 132.7 521.09 132.68C521.3 132.62 521.56 132.56 521.87 132.49L522.6 132.33L522.94 133C523.13 133.37 523.13 133.74 522.94 134.12L522.88 134.64C522.82 135.08 522.91 135.59 523.23 135.75L523.57 135.92L523.71 136.27C523.85 136.64 523.94 137.09 524.04 137.53C524.09 137.79 524.17 138.17 524.25 138.44C525.61 138.6 526.56 139.95 526.97 141.4L526.9 141.42ZM505.64 119.08C505.64 119.08 505.67 119.11 505.69 119.13C505.67 119.11 505.66 119.1 505.64 119.08ZM496.61 113.91C496.61 113.91 496.58 113.91 496.57 113.91H496.61Z" fill="#45B4FE"/>
<path d="M505.19 136.33C505.52 136.66 506.04 136.66 506.36 136.33L510.65 132.04C511.43 131.26 511.43 129.96 510.65 129.18C509.87 128.4 508.57 128.4 507.79 129.18L505.77 131.2L505.51 130.94C505.12 130.55 504.6 130.35 504.08 130.35C502.97 130.35 502.06 131.26 502.06 132.37C502.06 132.89 502.26 133.41 502.65 133.8L505.19 136.34V136.33ZM504.02 131.91C504.09 131.91 504.22 131.91 504.28 132.04L505.13 132.89C505.46 133.22 505.98 133.22 506.3 132.89L508.9 130.29C509.03 130.16 509.29 130.16 509.49 130.29C509.62 130.42 509.62 130.68 509.49 130.88L505.78 134.59L503.76 132.57C503.63 132.44 503.63 132.37 503.63 132.31C503.63 132.11 503.76 131.92 504.02 131.92V131.91Z" fill="#45B4FE"/>
<path d="M500.439 126.44C502.259 126.64 503.819 126.44 505.119 125.98H507.849C509.149 126.44 510.709 126.57 512.539 126.44C512.539 134.18 512.669 134.64 510.389 137.05C509.609 137.9 508.759 138.68 507.589 139.85H505.249C502.389 136.86 501.219 136.01 500.759 134.51C500.369 133.08 500.369 130.87 500.429 126.44H500.439ZM514.169 131.45C514.229 130.02 514.169 128.13 514.169 125.53C514.169 125.01 513.709 124.62 513.259 124.75C511.309 125.08 509.619 124.95 508.309 124.49C508.249 124.43 508.109 124.43 508.049 124.43H505.059C504.999 124.43 504.859 124.43 504.799 124.49C503.499 125.01 501.809 125.08 499.849 124.75C499.329 124.69 498.939 125.08 498.939 125.53V130.87L498.969 132.49C498.989 132.85 498.999 133.17 499.019 133.49C499.059 134.32 499.289 135.13 499.689 135.87L500.049 136.53C500.899 137.77 502.199 138.87 504.409 141.15C504.539 141.28 504.799 141.41 504.999 141.41H507.989C508.189 141.41 508.449 141.35 508.579 141.15C509.169 140.5 509.689 139.98 510.209 139.52L511.839 137.89C513.139 136.46 513.789 135.48 514.049 133.53L514.179 131.45H514.169Z" fill="#45B4FE"/>
</svg>
