<svg width="365" height="700" viewBox="0 0 365 700" fill="none" xmlns="http://www.w3.org/2000/svg">
<path d="M245.52 494.67H120.75V421.82C120.75 395.28 123.62 375.36 129.36 362.08C135.1 348.8 147.28 330.84 165.88 308.17L221.71 240.18C229.91 228.53 234.02 213.47 234.02 195.02C234.02 176.57 229.64 161.18 220.88 148.87C212.12 136.56 200.63 130.41 186.41 130.41C172.19 130.41 160.28 137.71 150.7 152.27C141.12 166.85 135.24 186.11 133.06 210.07H2.54004C8.55004 145.32 28.53 94.4902 62.46 57.5602C96.39 20.6502 138.93 2.19019 190.1 2.19019C241.27 2.19019 282.85 18.7102 314.87 51.7402C346.88 84.7702 362.33 130.42 362.89 188.7C363.17 217.49 352.04 264.81 328 298.47C318.93 311.17 314.73 316.6 312 319.84C298.86 335.37 286.41 349.95 274.64 363.55C262.88 377.16 255.08 388.34 251.26 397.08C247.42 405.82 245.52 418.93 245.52 436.4V494.68V494.67ZM133.47 676.67C119.51 662.63 112.54 645.41 112.54 625.04C112.54 604.67 119.51 587.45 133.47 573.41C147.42 559.37 164.53 552.34 184.77 552.34C205.01 552.34 222.11 559.37 236.07 573.41C250.02 587.45 257 604.67 257 625.04C257 645.41 250.01 662.63 236.07 676.67C222.11 690.71 205.01 697.73 184.77 697.73C164.53 697.73 147.41 690.71 133.47 676.67Z" fill="#45B4FE" stroke="white" stroke-width="3" stroke-miterlimit="10"/>
<path d="M160 141L105 23" stroke="white" stroke-width="3" stroke-miterlimit="10"/>
<path d="M233.5 176.5L359.05 144.42" stroke="white" stroke-width="3" stroke-miterlimit="10"/>
<path d="M199.5 266.5L257 387.5" stroke="white" stroke-width="3" stroke-miterlimit="10"/>
<path d="M185.44 656.18C200.617 656.18 212.92 643.877 212.92 628.7C212.92 613.523 200.617 601.22 185.44 601.22C170.263 601.22 157.96 613.523 157.96 628.7C157.96 643.877 170.263 656.18 185.44 656.18Z" fill="white" stroke="#45B4FE" stroke-width="1.94" stroke-miterlimit="10"/>
<path d="M194.42 643.43V643.37H185.08L185.01 643.13L189.71 636.23C190.18 636.31 190.7 636.39 191.27 636.47L191.54 636.51V634.99L191.33 634.96C190.64 634.87 190.04 634.77 189.5 634.67C188.61 634.5 187.95 634.31 187.54 634.11L187.04 633.44C187.02 633.37 186.99 633.31 186.97 633.23C186.85 632.8 186.76 632.24 186.72 631.63L186.8 631.56C188.64 629.79 190.17 628.23 190.28 627.01L190.31 626.68C190.6 626.56 190.96 626.28 191.18 625.64L191.25 625.45C191.47 624.82 191.49 624.76 191.88 624.14C192.4 623.31 192.47 621.76 192.02 620.94C191.82 620.58 191.52 620.35 191.16 620.27C191.28 619.69 191.37 619.13 191.44 618.62C192.37 613.14 191.55 610.04 188.85 608.85C188 608.48 187.21 608.29 186.5 608.29C186.3 608.29 186.1 608.31 185.93 608.34C185.31 607.84 184.2 607.25 182.34 607.25C181.89 607.25 181.41 607.28 180.91 607.35C178.91 607.62 177.78 607.98 176.96 608.24C176.17 608.49 175.82 608.59 175.28 608.46C174.96 608.38 174.62 608.53 174.45 608.82C174.38 608.95 173.72 610.13 173.41 611.64C172.79 614.63 172.89 617.38 173.74 620.28C173.4 620.37 173.12 620.6 172.93 620.94C172.48 621.76 172.55 623.31 173.07 624.14C173.46 624.75 173.48 624.82 173.7 625.46L173.76 625.63C173.98 626.27 174.35 626.55 174.63 626.67C174.64 626.79 174.65 626.9 174.66 627C174.77 628.22 176.3 629.78 178.14 631.55L178.22 631.63C178.19 632.18 178.11 632.69 178.01 633.1L177.18 634.21C176.77 634.37 176.18 634.53 175.44 634.67C175.03 634.75 174.58 634.83 174.06 634.9L171.84 635.18C168.13 635.61 167.6 636.77 167.18 639.51C166.9 641.36 166.87 643.68 166.87 644.12C166.87 644.32 166.95 644.51 167.09 644.65C167.23 644.79 167.42 644.87 167.62 644.87H194.75L194.4 643.43H194.42ZM183.67 637.37L184.31 638.03C184.44 638.17 184.64 638.25 184.85 638.25C185.06 638.25 185.25 638.17 185.39 638.03L187.63 635.74C187.79 635.79 187.95 635.84 188.13 635.89L184.48 641.24L183.45 637.58L183.67 637.38V637.37ZM184.3 635.67L183.81 635.24L185.83 634.4C185.88 634.5 185.93 634.58 185.98 634.66C186 634.69 186.02 634.72 186.04 634.75C186.1 634.83 186.16 634.91 186.24 635L184.84 636.44L184.54 636.13C184.51 635.96 184.43 635.8 184.3 635.68V635.67ZM181.11 635.26L179.97 636.43L178.64 635.07L178.7 635.01C178.78 634.92 178.86 634.83 178.94 634.71L178.98 634.65C179.03 634.58 179.07 634.5 179.12 634.41L181.1 635.27L181.11 635.26ZM180.51 638.03L181.2 637.32L181.49 637.63L180.48 641.24L176.83 635.89C176.97 635.85 177.1 635.82 177.22 635.78L179.42 638.04C179.55 638.18 179.75 638.26 179.95 638.26C180.16 638.26 180.35 638.18 180.49 638.04L180.51 638.03ZM175.24 625.25C175.24 625.25 175.21 625.18 175.19 625.13L175.13 624.96C174.88 624.24 174.82 624.07 174.35 623.32C174.12 622.95 174.11 622.17 174.18 621.81C174.42 622.68 174.63 623.3 174.69 623.48C174.8 623.78 175.09 623.97 175.41 623.97C175.82 623.97 176.16 623.63 176.16 623.22C176.16 623.17 176.16 623.1 176.14 623.06C176.1 622.52 175.84 618.26 176.48 616.62C176.87 615.62 177.95 615.16 178.79 615.16C179.13 615.16 179.43 615.24 179.56 615.37C180.47 616.24 181.81 616.34 182.34 616.34C182.41 616.34 182.46 616.34 182.48 616.34C182.51 616.34 182.56 616.34 182.63 616.34C183.16 616.34 184.5 616.25 185.41 615.37C185.54 615.24 185.84 615.16 186.18 615.16C186.9 615.16 187.66 615.49 188.11 615.99L188.41 616.43C188.44 616.49 188.47 616.55 188.5 616.61C189.18 618.35 188.83 623.11 188.83 623.16C188.8 623.53 189.05 623.87 189.42 623.95C189.79 624.03 190.16 623.82 190.29 623.46C190.35 623.29 190.56 622.68 190.79 621.83C190.85 622.2 190.86 622.93 190.63 623.3C190.16 624.04 190.09 624.22 189.85 624.93L189.79 625.11C189.79 625.11 189.76 625.2 189.74 625.23C189.56 625.21 189.36 625.26 189.21 625.37C189.04 625.5 188.92 625.69 188.9 625.9C188.86 626.26 188.83 626.58 188.81 626.83C188.74 627.59 186.67 629.58 185.78 630.44C185.35 630.85 184.99 631.2 184.77 631.45C184.59 631.65 184.33 631.75 183.94 631.75C183.74 631.75 183.55 631.73 183.39 631.71C183.27 631.7 183.17 631.68 183.1 631.68L182.52 631.65H182.5H182.46L181.9 631.68C181.82 631.68 181.72 631.69 181.6 631.71C181.44 631.73 181.25 631.75 181.06 631.75C180.67 631.75 180.41 631.66 180.23 631.45C180.02 631.21 179.69 630.89 179.23 630.45L179.21 630.43C178.33 629.58 176.26 627.59 176.19 626.83C176.17 626.58 176.14 626.26 176.1 625.9C176.08 625.69 175.97 625.49 175.79 625.37C175.64 625.26 175.45 625.21 175.26 625.23L175.24 625.25ZM190.16 617.03C190.09 616.65 190 616.33 189.89 616.07C189.84 615.95 189.79 615.84 189.72 615.71C189.71 615.68 189.69 615.66 189.67 615.63L189.32 615.12C189.32 615.12 189.29 615.08 189.27 615.06C188.53 614.2 187.34 613.66 186.17 613.66C185.42 613.66 184.78 613.88 184.36 614.29C183.83 614.8 182.9 614.84 182.62 614.84C182.56 614.84 182.53 614.84 182.51 614.84C182.48 614.84 182.45 614.84 182.42 614.84C182.4 614.84 182.37 614.84 182.32 614.84C182.05 614.84 181.11 614.8 180.58 614.29C180.16 613.89 179.51 613.66 178.77 613.66C177.44 613.66 175.71 614.42 175.06 616.08C174.9 616.49 174.77 617.04 174.69 617.72C174.39 615.81 174.45 613.95 174.87 611.93C175.04 611.11 175.34 610.38 175.52 610C176.19 610.04 176.78 609.86 177.4 609.66C178.16 609.42 179.21 609.09 181.1 608.83C181.53 608.77 181.95 608.74 182.33 608.74C184.05 608.74 184.85 609.32 185.17 609.67C185.34 609.85 185.59 609.94 185.83 609.9C185.91 609.89 185.98 609.87 186.04 609.84C186.16 609.79 186.82 609.59 188.24 610.22C189.37 610.72 190.76 611.97 190.14 617.05L190.16 617.03ZM185.37 632.91L185.18 632.99C185.24 632.96 185.3 632.92 185.36 632.89V632.91H185.37ZM179.61 632.89C180.01 633.14 180.5 633.27 181.05 633.27C181.33 633.27 181.59 633.24 181.77 633.22H181.84C181.89 633.22 181.93 633.21 181.96 633.21L182.48 633.18L183.03 633.21C183.03 633.21 183.11 633.21 183.21 633.23C183.4 633.25 183.65 633.29 183.94 633.29C184.3 633.29 184.62 633.24 184.92 633.13L182.43 634.2L179.61 632.98C179.61 632.98 179.62 632.93 179.62 632.9L179.61 632.89ZM182.45 636.45L182.25 636.24L182.41 636.08L182.62 636.3L182.45 636.46V636.45ZM183.41 642.81L183.03 643.36H181.94L181.56 642.81L182.48 639.27L183.4 642.81H183.41ZM168.4 643.37C168.42 642.51 168.49 640.97 168.68 639.73C169.01 637.58 169.09 637 172.03 636.66L172.26 636.63C172.54 636.6 172.88 636.56 173.26 636.51C174.01 636.42 174.66 636.32 175.25 636.22L179.95 643.12L179.88 643.36H168.39L168.4 643.37Z" fill="#45B4FE"/>
<path d="M196.731 641.91C197.061 642.24 197.581 642.24 197.901 641.91L202.191 637.62C202.971 636.84 202.971 635.54 202.191 634.76C201.411 633.98 200.111 633.98 199.331 634.76L197.311 636.78L197.051 636.52C196.661 636.13 196.141 635.93 195.621 635.93C194.511 635.93 193.601 636.84 193.601 637.95C193.601 638.47 193.801 638.99 194.191 639.38L196.731 641.92V641.91ZM195.561 637.49C195.631 637.49 195.761 637.49 195.821 637.62L196.671 638.47C197.001 638.8 197.521 638.8 197.841 638.47L200.441 635.87C200.571 635.74 200.831 635.74 201.031 635.87C201.161 636 201.161 636.26 201.031 636.46L197.321 640.17L195.301 638.15C195.171 638.02 195.171 637.95 195.171 637.89C195.171 637.69 195.301 637.5 195.561 637.5V637.49Z" fill="#45B4FE"/>
<path d="M191.98 632.02C193.8 632.22 195.36 632.02 196.66 631.56H199.391C200.691 632.02 202.251 632.15 204.081 632.02C204.081 639.76 204.21 640.22 201.93 642.63C201.15 643.48 200.3 644.26 199.13 645.43H196.79C193.93 642.44 192.76 641.59 192.3 640.09C191.91 638.66 191.91 636.45 191.97 632.02H191.98ZM205.711 637.03C205.771 635.6 205.711 633.71 205.711 631.11C205.711 630.59 205.25 630.2 204.8 630.33C202.85 630.66 201.16 630.53 199.85 630.07C199.79 630.01 199.651 630.01 199.591 630.01H196.6C196.54 630.01 196.401 630.01 196.341 630.07C195.041 630.59 193.351 630.66 191.391 630.33C190.871 630.27 190.48 630.66 190.48 631.11V636.45L190.51 638.07C190.53 638.43 190.54 638.75 190.56 639.07C190.6 639.9 190.83 640.71 191.23 641.45L191.591 642.11C192.441 643.35 193.741 644.45 195.951 646.73C196.081 646.86 196.34 646.99 196.54 646.99H199.531C199.731 646.99 199.99 646.93 200.12 646.73C200.71 646.08 201.23 645.56 201.75 645.1L203.38 643.47C204.68 642.04 205.331 641.06 205.591 639.11L205.72 637.03H205.711Z" fill="#45B4FE"/>
<path d="M85.3599 161.83C100.537 161.83 112.84 149.527 112.84 134.35C112.84 119.173 100.537 106.87 85.3599 106.87C70.1831 106.87 57.8799 119.173 57.8799 134.35C57.8799 149.527 70.1831 161.83 85.3599 161.83Z" fill="white" stroke="#45B4FE" stroke-width="1.94" stroke-miterlimit="10"/>
<path d="M86.9893 142.98C86.4693 142.78 85.9493 142.65 85.8793 142.65V141.41C86.0793 141.41 86.2093 141.48 86.3993 141.54C86.6593 141.61 86.9893 141.74 87.1793 141.87C87.2393 141.93 87.3093 141.93 87.3093 142L87.9593 140.76C87.6993 140.63 87.4393 140.5 87.0493 140.37C86.7193 140.24 86.3293 140.17 85.9393 140.11V139.2H85.3493V140.11C84.4993 140.17 83.7893 140.57 83.4593 141.35C83.3293 141.61 83.3293 141.87 83.3293 142.2C83.3293 142.85 83.5893 143.31 84.3093 143.63C84.7693 143.89 85.2893 143.96 85.4793 144.02V145.19C85.2793 145.19 85.0893 145.13 84.8293 145.06C84.4993 144.93 84.1793 144.8 83.9193 144.6C83.7893 144.54 83.7193 144.47 83.7193 144.47L83.0693 145.77C83.7193 146.23 84.5693 146.49 85.3493 146.55V147.59H85.9393V146.55C86.1993 146.55 86.5293 146.48 86.7893 146.42C87.0493 146.36 87.2493 146.22 87.5093 146.09C87.7093 145.96 87.8993 145.76 87.9693 145.5C88.0993 145.24 88.1693 144.98 88.1693 144.65C88.1693 144.39 88.1093 144.13 88.0393 143.93C87.8393 143.47 87.5193 143.15 86.9993 142.95L86.9893 142.98ZM85.4293 142.46C85.2293 142.39 85.0393 142.33 84.9693 142.26C84.8393 142.19 84.8393 142.06 84.8393 141.93C84.8393 141.6 85.0393 141.47 85.4893 141.41L85.4293 142.45V142.46ZM85.8893 145.2V144.16C86.0893 144.23 86.2793 144.29 86.4093 144.42C86.5393 144.49 86.6093 144.62 86.6093 144.81C86.5393 145.07 86.3493 145.2 85.8893 145.2Z" fill="#45B4FE"/>
<path d="M86.4096 133.68V130.3C86.4796 128.8 87.7096 127.63 89.1396 127.63C90.2496 127.63 91.2196 128.35 91.6096 129.32C91.6096 129.367 91.6296 129.41 91.6696 129.45C91.7996 129.78 91.8696 130.1 91.8696 130.49C91.8696 130.95 92.2596 131.27 92.7196 131.27C93.1796 131.27 93.5696 130.88 93.5696 130.49C93.5696 128.93 94.8096 127.69 96.2996 127.69C97.4096 127.69 98.3796 128.34 98.7696 129.38C98.8996 129.77 99.3596 129.97 99.7496 129.84C100.14 129.71 100.4 129.32 100.34 128.93C99.0396 122.03 93.6396 116.5 86.4796 116.18V115.01C86.4796 114.55 86.0896 114.16 85.6296 114.16C85.1696 114.16 84.8496 114.55 84.8496 115.01V116.18C77.6896 116.57 72.2896 122.1 70.9896 128.93C70.9196 129.32 71.1896 129.71 71.5796 129.84C71.9696 129.97 72.4296 129.78 72.5596 129.38C73.0796 128.14 74.3796 127.43 75.6796 127.75C76.9196 128.08 77.7596 129.18 77.7596 130.48C77.7596 130.94 78.1496 131.26 78.6096 131.26C79.0696 131.26 79.4596 130.87 79.4596 130.48C79.4596 130.09 79.5296 129.76 79.6596 129.44C79.6596 129.38 79.7196 129.38 79.7196 129.31C80.1796 128.33 81.0896 127.68 82.1896 127.68C83.6896 127.68 84.9196 128.92 84.9196 130.48V133.67C79.9096 134.06 75.9396 138.29 75.9396 143.37C75.9396 148.77 80.2996 153.13 85.6996 153.13C91.0996 153.13 95.4596 148.77 95.4596 143.37C95.3296 138.29 91.4296 134.06 86.4196 133.67L86.4096 133.68ZM86.4096 126.98V117.87C87.4496 118.2 88.4896 119.24 89.3396 120.8C90.1896 122.36 90.8396 124.31 91.2296 126.59C89.6696 125.68 87.7796 125.81 86.4096 126.98ZM97.8596 126.33C96.2296 125.68 94.2796 126 93.0396 127.44C92.5796 124.38 91.6096 120.8 89.7196 118.4C93.3596 119.57 96.3596 122.5 97.8496 126.34L97.8596 126.33ZM73.3296 126.26C74.8896 122.49 77.8196 119.62 81.5296 118.39C79.6396 120.8 78.6696 124.38 78.2096 127.37C76.9696 126.07 75.0196 125.61 73.3296 126.26ZM79.9696 126.52C80.3596 124.24 81.0096 122.29 81.9196 120.73C82.7696 119.17 83.8096 118.19 84.7796 117.87V126.98C83.4096 125.81 81.5296 125.68 79.9596 126.52H79.9696ZM85.5596 151.51C81.0696 151.51 77.4296 147.87 77.4296 143.38C77.4296 138.89 81.1396 135.25 85.5596 135.25C89.9796 135.25 93.6896 138.89 93.6896 143.38C93.6896 147.87 90.0496 151.51 85.5596 151.51Z" fill="#45B4FE"/>
<path d="M85.5598 136.87C81.9798 136.87 79.0498 139.8 79.0498 143.38C79.0498 146.96 81.9798 149.89 85.5598 149.89C89.1398 149.89 92.0698 146.96 92.0698 143.38C92.0698 139.8 89.2098 136.87 85.5598 136.87ZM85.5598 148.25C82.8898 148.25 80.6798 146.04 80.6798 143.37C80.6798 140.7 82.8898 138.49 85.5598 138.49C88.2298 138.49 90.4398 140.7 90.4398 143.37C90.4398 146.04 88.2898 148.25 85.5598 148.25Z" fill="#45B4FE"/>
<path d="M183.68 447.1C198.857 447.1 211.16 434.797 211.16 419.62C211.16 404.443 198.857 392.14 183.68 392.14C168.503 392.14 156.2 404.443 156.2 419.62C156.2 434.797 168.503 447.1 183.68 447.1Z" fill="white" stroke="#45B4FE" stroke-width="1.94" stroke-miterlimit="10"/>
<path d="M179.02 424.35C178.82 424.17 177.9 423.43 176.72 423.13C177.68 422.4 178.3 421.26 178.3 419.97C178.3 417.77 176.51 415.98 174.31 415.98C172.11 415.98 170.32 417.77 170.32 419.97C170.32 421.26 170.95 422.4 171.9 423.13C170.71 423.42 169.8 424.17 169.61 424.34C166.6 426.5 166.29 428.23 166.27 428.7C166.19 429.42 166.51 430.29 167.38 430.51C167.52 430.54 167.65 430.56 167.79 430.56C168.47 430.56 168.98 430.13 169.22 429.76C169.23 429.74 169.25 429.71 169.26 429.69C169.54 429.14 169.9 428.63 170.35 428.17C170.35 428.38 170.35 428.56 170.36 428.72C169.93 428.91 169.69 429.24 169.61 429.53C169.42 430.11 169.5 431.04 169.61 431.79C169.32 431.86 168.96 431.95 168.51 432.08C168.24 432.16 167.59 432.4 167.26 433.08C167.1 433.42 166.97 433.97 167.28 434.73C167.39 434.99 167.67 435.33 168.33 436.1C168.45 436.24 168.59 436.4 168.7 436.53C168.65 436.6 168.58 436.68 168.52 436.76L168.4 436.92C167.96 437.48 168.15 437.98 168.25 438.17C168.57 438.76 169.34 438.92 169.96 438.87C170.97 438.79 172.32 437.38 172.32 436.4C172.32 436 172.07 435.55 171.57 435.01C171.65 434.97 171.72 434.92 171.79 434.88C172.94 435.69 173.93 435.69 174.27 435.65C174.65 435.69 175.65 435.69 176.8 434.88C176.87 434.93 176.95 434.97 177.02 435.01C176.52 435.55 176.27 436.01 176.27 436.4C176.27 437.38 177.61 438.79 178.62 438.87C178.69 438.87 178.77 438.87 178.84 438.87C179.54 438.87 180.08 438.61 180.32 438.16C180.4 438.01 180.63 437.49 180.17 436.91L180.01 436.71C179.97 436.66 179.91 436.59 179.87 436.53C179.97 436.41 180.09 436.27 180.21 436.13L180.24 436.09C180.9 435.32 181.19 434.98 181.29 434.72C181.6 433.97 181.47 433.41 181.31 433.07C180.98 432.4 180.33 432.15 180.06 432.07C179.62 431.94 179.26 431.85 178.96 431.78C179.08 431.03 179.16 430.1 178.97 429.53C178.89 429.23 178.64 428.9 178.22 428.71C178.22 428.55 178.23 428.37 178.23 428.16C178.68 428.61 179.04 429.12 179.32 429.68C179.33 429.71 179.35 429.73 179.36 429.75C179.57 430.08 180.08 430.55 180.78 430.55C180.91 430.55 181.05 430.53 181.19 430.5C182.06 430.28 182.38 429.41 182.3 428.7C182.28 428.22 181.97 426.49 178.97 424.34L179.02 424.35ZM174.32 422.35C173.01 422.35 171.94 421.28 171.94 419.97C171.94 418.66 173.01 417.59 174.32 417.59C175.63 417.59 176.7 418.66 176.7 419.97C176.7 421.28 175.63 422.35 174.32 422.35ZM178.28 436.88C178.13 436.73 177.99 436.56 177.93 436.44C178 436.34 178.14 436.18 178.32 436C178.17 436.32 178.19 436.62 178.29 436.88H178.28ZM174.49 434.04C174.37 434.01 174.28 434.01 174.16 434.04C174.13 434.04 173.35 434.16 172.34 433.24L171.31 432.08C171.16 431.34 171.08 430.53 171.12 430.17C171.14 430.17 171.16 430.17 171.18 430.17H177.46C177.46 430.17 177.5 430.17 177.52 430.17C177.56 430.53 177.47 431.34 177.32 432.08L176.29 433.24C175.3 434.15 174.51 434.04 174.5 434.04H174.49ZM170.32 436C170.5 436.18 170.63 436.33 170.71 436.43C170.65 436.56 170.51 436.73 170.36 436.88C170.45 436.62 170.48 436.31 170.33 436H170.32ZM170.25 433.29L170.59 433.67C170.42 433.73 170.2 433.78 169.92 433.78C169.58 433.78 169.27 434 169.16 434.32C169.14 434.39 169.12 434.45 169.12 434.52C168.96 434.33 168.81 434.15 168.77 434.09C168.7 433.92 168.7 433.81 168.72 433.77C168.75 433.71 168.87 433.64 168.97 433.61C169.62 433.42 170.01 433.33 170.25 433.28V433.29ZM178.68 433.78C178.41 433.78 178.2 433.73 178.03 433.68L178.38 433.29C178.61 433.34 179 433.43 179.66 433.62C179.75 433.65 179.87 433.71 179.9 433.77C179.92 433.81 179.92 433.92 179.86 434.07C179.82 434.14 179.67 434.33 179.5 434.52C179.5 434.45 179.48 434.39 179.46 434.32C179.35 434 179.04 433.78 178.68 433.78ZM176.51 425.84C176.28 426.13 176.28 426.54 176.51 426.82C176.59 426.94 176.68 427.72 176.66 428.55H171.98C171.95 427.72 172.04 426.95 172.12 426.84C172.35 426.55 172.36 426.14 172.12 425.84C171.89 425.55 171.49 425.45 171.15 425.6C171.06 425.64 169.04 426.59 167.88 428.87C167.88 428.86 167.88 428.85 167.88 428.84C167.88 428.81 167.88 428.79 167.88 428.79C167.88 428.74 168.06 427.42 170.58 425.62C170.61 425.6 170.63 425.58 170.65 425.56C170.66 425.56 171.72 424.61 172.84 424.61H175.77C176.89 424.61 177.95 425.55 177.96 425.56C177.98 425.58 178.01 425.6 178.04 425.62C180.57 427.43 180.73 428.73 180.74 428.76C180.74 428.8 180.74 428.81 180.74 428.86C179.56 426.57 177.55 425.64 177.47 425.6C177.13 425.44 176.73 425.54 176.5 425.83L176.51 425.84Z" fill="#45B4FE"/>
<path d="M193.92 408.31H193.63C194.68 407.52 195.36 406.27 195.36 404.86C195.36 402.48 193.42 400.54 191.04 400.54C188.66 400.54 186.72 402.48 186.72 404.86C186.72 406.27 187.4 407.52 188.45 408.31H188.16C185.46 408.31 183.26 410.51 183.26 413.21V422.52C183.26 423.66 184.19 424.58 185.32 424.58C185.71 424.58 186.09 424.47 186.41 424.27V436.52C186.41 437.75 187.41 438.74 188.63 438.74C189.85 438.74 190.85 437.74 190.85 436.52V425.45H191.1V436.52C191.1 437.75 192.1 438.74 193.32 438.74C194.54 438.74 195.54 437.74 195.54 436.52V424.18C195.89 424.44 196.32 424.58 196.76 424.58C197.9 424.58 198.82 423.65 198.82 422.52V413.21C198.82 410.51 196.62 408.31 193.92 408.31ZM195.15 411.18C194.9 411.03 194.59 411.02 194.34 411.17C194.09 411.31 193.93 411.58 193.93 411.87V436.52C193.93 436.86 193.65 437.14 193.31 437.14C192.97 437.14 192.69 436.86 192.69 436.52V424.65C192.69 424.21 192.33 423.85 191.89 423.85H190.03C189.59 423.85 189.23 424.21 189.23 424.65V436.52C189.23 436.86 188.95 437.14 188.61 437.14C188.27 437.14 187.99 436.86 187.99 436.52V411.96C187.99 411.65 187.82 411.38 187.54 411.24C187.26 411.1 186.94 411.13 186.7 411.32C186.1 411.78 185.75 412.47 185.75 413.21V422.52C185.75 422.77 185.54 422.98 185.29 422.98C185.04 422.98 184.83 422.77 184.83 422.52V413.21C184.83 411.39 186.31 409.91 188.13 409.91H193.9C195.72 409.91 197.2 411.39 197.2 413.21V422.52C197.2 422.77 196.99 422.98 196.74 422.98C196.49 422.98 196.28 422.77 196.28 422.52V413.21C196.28 412.38 195.85 411.62 195.13 411.18H195.15ZM191.03 407.57C189.53 407.57 188.32 406.35 188.32 404.86C188.32 403.37 189.54 402.15 191.03 402.15C192.52 402.15 193.74 403.37 193.74 404.86C193.74 406.35 192.52 407.57 191.03 407.57Z" fill="#45B4FE"/>
<path d="M294.89 289.77C310.067 289.77 322.37 277.467 322.37 262.29C322.37 247.113 310.067 234.81 294.89 234.81C279.713 234.81 267.41 247.113 267.41 262.29C267.41 277.467 279.713 289.77 294.89 289.77Z" fill="white" stroke="#45B4FE" stroke-width="1.94" stroke-miterlimit="10"/>
<path d="M305.11 276.59V276.53H295.77L295.7 276.29L300.4 269.39C300.87 269.47 301.39 269.55 301.96 269.63L302.23 269.67V268.15L302.02 268.12C301.33 268.03 300.73 267.93 300.19 267.83C299.3 267.66 298.64 267.47 298.23 267.27L297.73 266.6C297.71 266.53 297.68 266.47 297.66 266.39C297.54 265.96 297.45 265.4 297.41 264.79L297.49 264.72C299.33 262.95 300.86 261.39 300.97 260.17L301 259.84C301.29 259.72 301.65 259.44 301.87 258.8L301.94 258.61C302.16 257.98 302.18 257.92 302.57 257.3C303.09 256.47 303.16 254.92 302.71 254.1C302.51 253.74 302.21 253.51 301.85 253.43C301.97 252.85 302.06 252.29 302.13 251.78C303.06 246.3 302.24 243.2 299.54 242.01C298.69 241.64 297.9 241.45 297.19 241.45C296.99 241.45 296.79 241.47 296.62 241.5C296 241 294.89 240.41 293.03 240.41C292.58 240.41 292.1 240.44 291.6 240.51C289.6 240.78 288.47 241.14 287.65 241.4C286.86 241.65 286.51 241.75 285.97 241.62C285.65 241.54 285.31 241.69 285.14 241.98C285.07 242.11 284.41 243.29 284.1 244.8C283.48 247.79 283.58 250.54 284.43 253.44C284.09 253.53 283.81 253.76 283.62 254.1C283.17 254.92 283.24 256.47 283.76 257.3C284.15 257.91 284.17 257.98 284.39 258.62L284.45 258.79C284.67 259.43 285.04 259.71 285.32 259.83C285.33 259.95 285.34 260.06 285.35 260.16C285.46 261.38 286.99 262.94 288.83 264.71L288.91 264.79C288.88 265.34 288.8 265.85 288.7 266.26L287.87 267.37C287.46 267.53 286.87 267.69 286.13 267.83C285.72 267.91 285.27 267.99 284.75 268.06L282.53 268.34C278.82 268.77 278.29 269.93 277.87 272.67C277.59 274.52 277.56 276.84 277.56 277.28C277.56 277.48 277.64 277.67 277.78 277.81C277.92 277.95 278.11 278.03 278.31 278.03H305.44L305.09 276.59H305.11ZM294.37 270.53L295.01 271.19C295.14 271.33 295.34 271.41 295.55 271.41C295.76 271.41 295.95 271.33 296.09 271.19L298.33 268.9C298.49 268.95 298.65 269 298.83 269.05L295.18 274.4L294.15 270.74L294.37 270.54V270.53ZM295 268.82L294.51 268.39L296.53 267.55C296.58 267.65 296.63 267.73 296.68 267.81C296.7 267.84 296.72 267.87 296.74 267.9C296.8 267.98 296.86 268.06 296.94 268.15L295.54 269.59L295.24 269.28C295.21 269.11 295.13 268.95 295 268.83V268.82ZM291.8 268.42L290.66 269.59L289.33 268.23L289.39 268.17C289.47 268.08 289.55 267.99 289.63 267.87L289.67 267.81C289.72 267.74 289.76 267.66 289.81 267.57L291.79 268.43L291.8 268.42ZM291.2 271.19L291.89 270.48L292.18 270.79L291.17 274.4L287.52 269.05C287.66 269.01 287.79 268.98 287.91 268.94L290.11 271.2C290.24 271.34 290.44 271.42 290.64 271.42C290.85 271.42 291.04 271.34 291.18 271.2L291.2 271.19ZM285.94 258.41C285.94 258.41 285.91 258.34 285.89 258.29L285.83 258.12C285.58 257.4 285.52 257.23 285.05 256.48C284.82 256.11 284.81 255.33 284.88 254.97C285.12 255.84 285.33 256.46 285.39 256.64C285.5 256.94 285.79 257.13 286.11 257.13C286.52 257.13 286.86 256.79 286.86 256.38C286.86 256.33 286.86 256.26 286.84 256.22C286.8 255.68 286.54 251.42 287.18 249.78C287.57 248.78 288.65 248.32 289.49 248.32C289.83 248.32 290.13 248.4 290.26 248.53C291.17 249.4 292.51 249.5 293.04 249.5C293.11 249.5 293.16 249.5 293.18 249.5C293.21 249.5 293.26 249.5 293.33 249.5C293.86 249.5 295.2 249.41 296.11 248.53C296.24 248.4 296.54 248.32 296.88 248.32C297.6 248.32 298.36 248.65 298.81 249.15L299.11 249.59C299.14 249.65 299.17 249.71 299.2 249.77C299.88 251.51 299.53 256.27 299.53 256.32C299.5 256.69 299.75 257.03 300.12 257.11C300.49 257.19 300.86 256.98 300.99 256.62C301.05 256.45 301.26 255.84 301.49 254.99C301.55 255.36 301.56 256.09 301.33 256.46C300.86 257.2 300.79 257.38 300.55 258.09L300.49 258.27C300.49 258.27 300.46 258.36 300.44 258.39C300.26 258.37 300.06 258.42 299.91 258.53C299.74 258.66 299.62 258.85 299.6 259.06C299.56 259.42 299.53 259.74 299.51 259.99C299.44 260.75 297.37 262.74 296.48 263.6C296.05 264.01 295.69 264.36 295.47 264.61C295.29 264.81 295.03 264.91 294.64 264.91C294.44 264.91 294.25 264.89 294.09 264.87C293.97 264.86 293.87 264.84 293.8 264.84L293.22 264.81H293.2H293.16L292.6 264.84C292.52 264.84 292.42 264.85 292.3 264.87C292.14 264.89 291.95 264.91 291.76 264.91C291.37 264.91 291.11 264.82 290.93 264.61C290.72 264.37 290.39 264.05 289.93 263.61L289.91 263.59C289.03 262.74 286.96 260.75 286.89 259.99C286.87 259.74 286.84 259.42 286.8 259.06C286.78 258.85 286.67 258.65 286.49 258.53C286.34 258.42 286.15 258.37 285.96 258.39L285.94 258.41ZM300.85 250.19C300.78 249.81 300.69 249.49 300.58 249.23C300.53 249.11 300.48 249 300.41 248.87C300.4 248.84 300.38 248.82 300.36 248.79L300.01 248.28C300.01 248.28 299.98 248.24 299.96 248.22C299.22 247.36 298.03 246.82 296.86 246.82C296.11 246.82 295.47 247.04 295.05 247.45C294.52 247.96 293.59 248 293.31 248C293.25 248 293.22 248 293.2 248C293.17 248 293.14 248 293.11 248C293.09 248 293.06 248 293.01 248C292.74 248 291.8 247.96 291.27 247.45C290.85 247.05 290.2 246.82 289.46 246.82C288.13 246.82 286.4 247.58 285.75 249.24C285.59 249.65 285.46 250.2 285.38 250.88C285.08 248.97 285.14 247.11 285.56 245.09C285.73 244.27 286.03 243.54 286.21 243.16C286.88 243.2 287.47 243.02 288.09 242.82C288.85 242.58 289.9 242.25 291.79 241.99C292.22 241.93 292.64 241.9 293.02 241.9C294.74 241.9 295.54 242.48 295.86 242.83C296.03 243.01 296.28 243.1 296.52 243.06C296.6 243.05 296.67 243.03 296.73 243C296.85 242.95 297.51 242.75 298.93 243.38C300.06 243.88 301.45 245.13 300.83 250.21L300.85 250.19ZM296.06 266.07L295.87 266.15C295.93 266.12 295.99 266.08 296.05 266.05V266.07H296.06ZM290.3 266.05C290.7 266.3 291.19 266.43 291.74 266.43C292.02 266.43 292.28 266.4 292.46 266.38H292.53C292.58 266.38 292.62 266.37 292.65 266.37L293.17 266.34L293.72 266.37C293.72 266.37 293.8 266.37 293.9 266.39C294.09 266.41 294.34 266.45 294.63 266.45C294.99 266.45 295.31 266.4 295.61 266.29L293.12 267.36L290.3 266.14C290.3 266.14 290.31 266.09 290.31 266.06L290.3 266.05ZM293.14 269.61L292.94 269.4L293.1 269.24L293.31 269.46L293.14 269.62V269.61ZM294.1 275.97L293.72 276.52H292.63L292.25 275.97L293.17 272.43L294.09 275.97H294.1ZM279.09 276.52C279.11 275.66 279.18 274.12 279.37 272.88C279.7 270.73 279.78 270.15 282.72 269.81L282.95 269.78C283.23 269.75 283.57 269.71 283.95 269.66C284.7 269.57 285.35 269.47 285.94 269.37L290.64 276.27L290.57 276.51H279.08L279.09 276.52Z" fill="#45B4FE"/>
<path d="M302.67 265.18C304.49 265.38 306.05 265.18 307.35 264.72H310.08C311.38 265.18 312.94 265.31 314.77 265.18C314.77 272.92 314.9 273.38 312.62 275.79C311.84 276.64 310.99 277.42 309.82 278.59H307.48C304.62 275.6 303.45 274.75 302.99 273.25C302.6 271.82 302.6 269.61 302.66 265.18H302.67ZM316.4 270.19C316.46 268.76 316.4 266.87 316.4 264.27C316.4 263.75 315.94 263.36 315.49 263.49C313.54 263.82 311.85 263.69 310.54 263.23C310.48 263.17 310.34 263.17 310.28 263.17H307.29C307.23 263.17 307.09 263.17 307.03 263.23C305.73 263.75 304.04 263.82 302.08 263.49C301.56 263.43 301.17 263.82 301.17 264.27V269.61L301.2 271.23C301.22 271.59 301.23 271.91 301.25 272.23C301.29 273.06 301.52 273.87 301.92 274.61L302.28 275.27C303.13 276.51 304.43 277.61 306.64 279.89C306.77 280.02 307.03 280.15 307.23 280.15H310.22C310.42 280.15 310.68 280.09 310.81 279.89C311.4 279.24 311.92 278.72 312.44 278.26L314.07 276.63C315.37 275.2 316.02 274.22 316.28 272.27L316.41 270.19H316.4Z" fill="#45B4FE"/>
<path d="M305.83 267.16C306.02 267 306.22 266.85 306.43 266.71C306.64 266.57 306.88 266.45 307.13 266.35C307.38 266.25 307.65 266.17 307.94 266.11C308.23 266.05 308.55 266.02 308.88 266.02C309.35 266.02 309.77 266.08 310.14 266.21C310.52 266.34 310.84 266.52 311.11 266.75C311.38 266.99 311.59 267.27 311.73 267.6C311.88 267.93 311.95 268.3 311.95 268.71C311.95 269.12 311.89 269.44 311.78 269.73C311.67 270.02 311.53 270.27 311.36 270.48C311.19 270.69 311.01 270.88 310.81 271.03C310.61 271.19 310.42 271.33 310.24 271.46C310.06 271.59 309.9 271.73 309.77 271.86C309.64 271.99 309.56 272.14 309.53 272.3L309.34 273.41H307.88L307.73 272.16C307.69 271.91 307.73 271.7 307.82 271.51C307.92 271.33 308.05 271.16 308.22 271.01C308.39 270.86 308.57 270.71 308.77 270.57C308.97 270.43 309.17 270.28 309.34 270.11C309.52 269.95 309.67 269.76 309.79 269.56C309.91 269.36 309.97 269.11 309.97 268.84C309.97 268.5 309.85 268.23 309.62 268.03C309.39 267.83 309.07 267.73 308.69 267.73C308.41 267.73 308.17 267.76 307.97 267.82C307.78 267.88 307.61 267.95 307.47 268.03C307.33 268.1 307.21 268.17 307.11 268.24C307.01 268.3 306.92 268.33 306.83 268.33C306.63 268.33 306.49 268.24 306.39 268.07L305.82 267.19L305.83 267.16ZM307.27 276.25C307.27 276.08 307.3 275.92 307.37 275.77C307.43 275.62 307.52 275.49 307.64 275.38C307.75 275.27 307.89 275.18 308.04 275.12C308.19 275.06 308.36 275.02 308.54 275.02C308.72 275.02 308.88 275.05 309.04 275.12C309.2 275.19 309.33 275.27 309.44 275.38C309.55 275.49 309.64 275.62 309.71 275.77C309.77 275.92 309.81 276.08 309.81 276.25C309.81 276.42 309.78 276.59 309.71 276.74C309.64 276.89 309.56 277.02 309.44 277.13C309.32 277.24 309.19 277.33 309.04 277.39C308.88 277.45 308.72 277.48 308.54 277.48C308.36 277.48 308.19 277.45 308.04 277.39C307.89 277.33 307.75 277.24 307.64 277.13C307.53 277.02 307.44 276.89 307.37 276.74C307.31 276.59 307.27 276.43 307.27 276.25Z" fill="#45B4FE"/>
<path d="M238 106.45C253.176 106.45 265.479 94.1468 265.479 78.97C265.479 63.7932 253.176 51.49 238 51.49C222.823 51.49 210.52 63.7932 210.52 78.97C210.52 94.1468 222.823 106.45 238 106.45Z" fill="white" stroke="#45B4FE" stroke-width="1.94" stroke-miterlimit="10"/>
<path d="M221.3 67.8101L221.62 67.6801L221.29 67.8001L223.11 67.1401L223.12 67.1601L221.3 67.8101Z" fill="#45B4FE"/>
<path d="M250.42 96.3601L250.25 96.3201C249.7 96.2001 249.24 95.7801 249.09 95.2401C249 94.9301 249.02 94.6201 249.14 94.3401C249.14 94.3201 249.12 94.3001 249.12 94.2801L249.09 94.1601C248.91 93.3601 248.36 92.2601 247.8 92.3801L247.3 92.4801L246.93 92.1301C246.41 91.6301 246.24 90.8001 246.06 89.9301C246.01 89.6901 245.96 89.4501 245.91 89.2501C245.23 88.7301 244.84 87.8501 244.86 86.8501C244.83 86.8001 244.81 86.7501 244.79 86.7001C243.54 86.8001 243.23 86.0601 242.75 84.5801L242.56 83.9901C242.38 83.8201 242.16 83.5801 242.07 83.2101L241.99 82.8501L242.04 82.7601L241.93 82.5901C241.04 81.1601 241.43 79.6301 241.76 78.2801C242.1 76.9301 242.27 76.0601 241.75 75.3501L241.69 75.2601C241.6 75.1101 241.42 74.9901 241.12 74.8101C240.7 74.5601 240.15 74.2301 239.78 73.5801C238.94 73.3001 238.71 72.6501 238.59 72.3101C238.52 72.1001 238.5 72.0701 238.44 72.0201L238.19 71.8301L238.1 71.5401C237.96 71.1001 237.75 70.9701 237.23 70.6801C236.98 70.5401 236.71 70.3901 236.44 70.1801C236.38 70.1801 236.32 70.1801 236.27 70.1801C236.1 70.1801 235.84 70.1701 235.68 70.1801C235.39 70.5901 235.05 70.8901 234.65 71.0901C234.48 71.1701 234.31 71.2901 234.14 71.4001C233.69 71.7001 233.18 72.0401 232.62 71.9501C232.46 72.1001 232.24 72.2501 231.94 72.2901C231.71 72.4801 231.36 72.5701 230.84 72.4301C230.52 72.4301 230.29 72.3001 230.14 72.1901C229.71 71.8701 229.64 71.3901 229.6 71.1301C229.6 71.0901 229.6 71.0501 229.58 71.0201C229.23 70.6501 228.82 70.3701 228.38 70.0601C228.05 69.8301 227.71 69.6001 227.41 69.3401L227.31 69.2601C227.14 69.1801 226.76 69.0701 226.53 69.0001C226.1 68.8801 225.7 68.7601 225.4 68.5701L225.38 68.9301L224.21 68.6101C223.72 68.4701 223.03 68.5201 222.67 68.7201L222.46 68.8401H222.22C221.95 68.8601 221.72 68.8301 221.53 68.7701C221.07 68.9601 220.36 69.0901 219.91 68.6001C219.63 68.3001 219.53 67.8201 219.79 67.3701L218.67 66.0001L219.08 65.9801C218.78 65.6101 218.57 65.1501 218.75 64.6001C219.2 63.1801 221.43 63.0601 228.35 63.4101C229.21 63.4501 229.99 63.4901 230.6 63.5101C231.57 63.5401 232.44 63.9901 232.92 64.7201C233.5 65.5901 236.93 65.5401 239.19 65.5101C241.51 65.4701 243.63 65.4501 244.98 65.9801C244.96 65.5701 245.03 65.1501 245.34 64.7901L245.49 64.6101L245.71 64.5201C246.6 64.1601 247.38 64.5901 247.9 64.8801C248.11 65.0001 248.38 65.1501 248.5 65.1501L249.47 65.0701L249.54 66.0401C249.67 67.8801 250.28 70.1001 251.35 72.6501C252.17 74.1501 253.37 77.4701 254.87 82.4301L254.94 82.6701C256.96 85.7501 255.96 89.6001 255.15 92.7101C254.99 93.3001 254.84 93.8801 254.72 94.4201C254.18 96.2001 252.37 96.2401 251.29 96.2601C251.02 96.2601 250.76 96.2601 250.54 96.3001L250.37 96.3201L250.42 96.3601ZM250.9 93.4201C251.14 93.5001 251.77 93.7301 252.02 94.3301C252.55 94.2901 252.83 94.1901 252.9 93.9601C253.01 93.4701 253.16 92.8701 253.32 92.2501C254.08 89.3401 254.94 86.0501 253.31 83.6701C253.257 83.5835 253.177 83.3634 253.07 83.0101C251.25 76.9901 250.21 74.5201 249.66 73.5101C248.61 71.0201 247.98 68.8401 247.74 66.9501C247.5 66.8601 247.28 66.7401 247.08 66.6301C247.17 67.1501 247.22 67.7901 246.78 68.2801C246.57 68.5201 246.15 68.8101 245.47 68.7501L244.71 68.7001L244.58 67.9501C244.23 67.3801 241 67.4301 239.26 67.4501C235.79 67.5001 232.51 67.5501 231.35 65.8001C231.22 65.6001 230.92 65.4701 230.59 65.4601C229.97 65.4401 229.18 65.4001 228.3 65.3601C226.46 65.2701 223.02 65.0901 221.33 65.2801C221.5 65.4101 221.62 65.5701 221.72 65.7401L221.77 65.7001L222.02 65.7701C222.11 65.7101 222.22 65.6701 222.34 65.6401C222.66 65.5701 223.13 65.6201 223.55 66.2201L223.65 66.4001C223.65 66.4001 223.68 66.4801 223.7 66.5101C223.73 66.5401 223.75 66.5701 223.77 66.6001C223.85 66.6001 223.92 66.6001 224 66.6101C224.05 66.5601 224.1 66.5201 224.14 66.4901C224.66 66.1101 225.29 66.1801 225.8 66.3001C226.44 66.0801 227.1 66.2701 227.5 66.6401C227.73 66.8501 227.86 67.1201 227.9 67.3801C228.26 67.5101 228.57 67.6701 228.79 67.9101C229.03 68.1001 229.29 68.2901 229.55 68.4701C230.09 68.8501 230.66 69.2401 231.12 69.7601C231.24 69.8701 231.33 70.0101 231.4 70.1501L231.61 69.9801L231.73 70.0901C231.92 69.9301 232.17 69.7801 232.5 69.7501L233.32 69.6701C233.49 69.5601 233.67 69.4501 233.85 69.3601C233.97 69.3001 234.09 69.1701 234.22 68.9801C234.7 68.2101 235.67 68.2401 236.39 68.2601C236.55 68.2601 236.69 68.2701 236.82 68.2601L237.27 68.2301L237.58 68.5601C237.74 68.7301 237.97 68.8501 238.23 69.0001C238.77 69.3001 239.5 69.7001 239.91 70.7001C240.26 71.0501 240.39 71.4401 240.48 71.6801C240.49 71.7101 240.5 71.7401 240.51 71.7601C240.54 71.7601 240.57 71.7701 240.62 71.7801L241.25 71.8401L241.45 72.4401C241.56 72.7601 241.75 72.8901 242.19 73.1501C242.58 73.3901 243.07 73.6801 243.41 74.2401C244.46 75.7201 244.04 77.3901 243.71 78.7401C243.66 78.9601 243.6 79.1801 243.55 79.3801C243.59 79.3801 243.63 79.4001 243.67 79.4001L244.05 79.5001C244.1 79.5001 244.16 79.5001 244.21 79.5001L244.64 79.5301L244.91 79.8701C245.88 81.1201 244.85 82.3401 244.33 82.9401C244.51 83.1701 244.67 83.5001 244.64 83.9201L244.66 83.9801C244.75 84.2501 244.84 84.5301 244.91 84.7301C244.97 84.7201 245.03 84.7001 245.09 84.6801C245.3 84.6201 245.56 84.5601 245.87 84.4901L246.6 84.3301L246.94 85.0001C247.13 85.3701 247.13 85.7401 246.94 86.1201L246.88 86.6401C246.82 87.0801 246.91 87.5901 247.23 87.7501L247.57 87.9201L247.71 88.2701C247.85 88.6401 247.94 89.0901 248.04 89.5301C248.09 89.7901 248.17 90.1701 248.25 90.4401C249.61 90.6001 250.56 91.9501 250.97 93.4001L250.9 93.4201ZM229.64 71.0801C229.64 71.0801 229.67 71.1101 229.69 71.1301C229.67 71.1101 229.66 71.1001 229.64 71.0801ZM220.61 65.9101C220.61 65.9101 220.58 65.9101 220.57 65.9101H220.61Z" fill="#45B4FE"/>
<path d="M229.19 88.3302C229.52 88.6602 230.04 88.6602 230.36 88.3302L234.65 84.0402C235.43 83.2602 235.43 81.9602 234.65 81.1802C233.87 80.4002 232.57 80.4002 231.79 81.1802L229.77 83.2002L229.51 82.9402C229.12 82.5502 228.6 82.3502 228.08 82.3502C226.97 82.3502 226.06 83.2602 226.06 84.3702C226.06 84.8902 226.26 85.4102 226.65 85.8002L229.19 88.3402V88.3302ZM228.02 83.9102C228.09 83.9102 228.22 83.9102 228.28 84.0402L229.13 84.8902C229.46 85.2202 229.98 85.2202 230.3 84.8902L232.9 82.2902C233.03 82.1602 233.29 82.1602 233.49 82.2902C233.62 82.4202 233.62 82.6802 233.49 82.8802L229.78 86.5902L227.76 84.5702C227.63 84.4402 227.63 84.3702 227.63 84.3102C227.63 84.1102 227.76 83.9202 228.02 83.9202V83.9102Z" fill="#45B4FE"/>
<path d="M224.439 78.4402C226.259 78.6402 227.819 78.4402 229.119 77.9802H231.849C233.149 78.4402 234.709 78.5702 236.539 78.4402C236.539 86.1802 236.669 86.6402 234.389 89.0502C233.609 89.9002 232.759 90.6802 231.589 91.8502H229.249C226.389 88.8602 225.219 88.0102 224.759 86.5102C224.369 85.0802 224.369 82.8702 224.429 78.4402H224.439ZM238.169 83.4502C238.229 82.0202 238.169 80.1302 238.169 77.5302C238.169 77.0102 237.709 76.6202 237.259 76.7502C235.309 77.0802 233.619 76.9502 232.309 76.4902C232.249 76.4302 232.109 76.4302 232.049 76.4302H229.059C228.999 76.4302 228.859 76.4302 228.799 76.4902C227.499 77.0102 225.809 77.0802 223.849 76.7502C223.329 76.6902 222.939 77.0802 222.939 77.5302V82.8702L222.969 84.4902C222.989 84.8502 222.999 85.1702 223.019 85.4902C223.059 86.3202 223.289 87.1302 223.689 87.8702L224.049 88.5302C224.899 89.7702 226.199 90.8702 228.409 93.1502C228.539 93.2802 228.799 93.4102 228.999 93.4102H231.989C232.189 93.4102 232.449 93.3502 232.579 93.1502C233.169 92.5002 233.689 91.9802 234.209 91.5202L235.839 89.8902C237.139 88.4602 237.789 87.4802 238.049 85.5302L238.179 83.4502H238.169Z" fill="#45B4FE"/>
</svg>
