<svg width="220" height="192" viewBox="0 0 220 192" fill="none" xmlns="http://www.w3.org/2000/svg">
<g opacity="0.2">
<path d="M16.1572 19.8101C16.1872 19.9001 16.2072 19.9601 16.2072 19.9601L16.1572 19.8101Z" fill="white"/>
<path d="M211.481 115.69L203.396 99.6402L198.215 86.6702L194.283 75.4902L197.087 74.9502L198.275 76.5702L198.924 79.9202L200.431 85.6502L208.956 107.58L208.736 105.42L203.017 89.5402L202.158 85.0002V81.9702C202.158 81.9702 201.729 80.0302 201.729 79.2702C201.729 78.5102 201.3 76.4602 201.3 76.4602L200.541 74.7302L196.439 69.7602L189.641 54.2002L185.219 42.8502L182.195 34.1002L180.577 26.6402C180.577 26.6402 178.421 16.8102 178.421 16.1602C178.421 15.5102 178.102 11.7302 178.102 11.7302L176.705 11.5102L173.251 10.7502L169.258 8.48019L165.485 6.6402L162.68 7.40018L161.712 9.24017L161.822 12.2702L163.009 15.0802L163.229 18.3202L161.931 21.2402L160.963 22.2102L159.127 21.8902L158.588 21.4602L156.861 17.5702L156.322 15.0802L148.556 15.6902C148.556 15.6902 78.8827 11.5102 78.8827 11.0802C78.8827 10.6502 77.8047 8.16019 77.8047 8.16019C77.8047 8.16019 77.9145 5.78017 77.9145 5.46017C77.9145 5.14017 75.6486 1.11017 75.6486 1.11017L1.87296 0.700195L2.09256 2.10019C2.09256 2.10019 1.98276 2.42019 1.87296 2.91019C1.76316 3.40019 0.884766 4.4202 0.884766 4.4202V5.72018L1.48367 6.69019L2.57169 7.55017L3.22051 9.06018L4.45825 10.3002L6.39473 10.8402L8.23138 12.4602L8.34118 13.5402C8.34118 13.5402 7.91197 16.0302 7.48275 16.2402C7.05353 16.4602 6.62431 16.2402 6.62431 16.2402L7.48275 17.6402L8.34118 18.1802L8.99 19.2602V20.8802L8.23138 21.6402L7.04355 21.9602L6.39473 23.0402H7.47276L10.3875 22.5002L10.9265 22.0702C10.9265 22.0702 12.2241 20.6702 12.3239 20.3402C12.4337 20.0202 12.9727 19.6902 12.9727 19.6902C12.9727 19.6902 13.941 16.6602 13.941 16.3402V16.0202L14.6996 15.6602L16.1569 19.7602C16.0771 19.5202 15.9773 19.0702 16.2069 18.8302C16.5263 18.5102 17.0653 17.9702 17.0653 17.9702L17.7141 15.6602L18.0335 14.6202C18.0335 14.6202 18.1433 13.9002 19.3312 15.6602C20.519 17.4302 20.0898 17.3202 20.0898 17.3202L21.4872 19.2602V19.8002L19.1715 20.3402L18.4727 20.8802L14.8593 21.1002L13.402 22.2302L13.2423 22.6602L16.3167 22.5002L19.0117 21.3702C19.0117 21.3702 23.2141 20.5102 23.7032 20.4002C24.1923 20.2902 26.9972 20.7802 27.4264 20.8302C27.8556 20.8802 30.2812 21.3202 30.2812 21.3202L29.9618 19.9202C31.0898 19.4302 29.9618 20.3002 31.0897 19.4302L32.2177 18.5702L32.7567 17.7102H34.7531L35.881 18.8402L38.636 19.1102L40.7422 17.8702L42.8483 18.1902L44.4155 19.5402L45.224 21.0002V21.4302L44.1959 21.5902L41.8801 20.7802L40.2131 19.8102L39.3547 20.3002L38.7658 20.8902H37.7975L37.7476 21.1602L38.9355 21.8602L47.4 24.3502C47.4 24.3502 51.9318 26.8402 52.0915 26.9402C52.2512 27.0502 56.2439 29.7002 56.2938 29.8602C56.3438 30.0202 58.2902 31.9702 58.2902 31.9702L60.5561 33.5402L62.772 34.6702L64.0098 35.3202L66.1659 38.0202L66.8147 39.3702L67.7829 41.1002L68.0025 43.1502L67.6831 43.4702C67.6831 43.4702 67.7929 44.2302 68.0025 44.2802C68.2121 44.3302 70.0488 44.4402 70.0488 44.4402L72.2647 44.9702L72.7539 45.3602L72.8038 43.4702C72.8038 43.4702 73.3927 43.1502 73.5624 43.1502C73.7321 43.1502 75.449 44.2302 75.9381 43.5802L76.4272 42.9302C76.4272 42.9302 77.076 41.1502 78.0941 40.6102C79.1223 40.0702 79.6613 39.8502 79.6613 39.8502L80.0905 41.2602L80.2003 42.3902C80.2003 42.3902 82.4662 41.3102 82.6858 41.2002C82.9054 41.0902 88.3455 37.5302 88.3455 37.5302L92.448 35.9102L94.6041 36.7702C94.6041 36.7702 95.1431 37.0902 95.193 36.7202C95.2429 36.3402 94.654 34.5002 94.654 34.5002L93.9552 32.5002L95.4625 31.0402L98.9661 30.7202L100.264 31.2102L103.019 30.6202L103.877 30.4002L105.814 30.7202L106.353 32.4502C106.353 32.4502 109.108 33.3702 109.537 33.5802C109.966 33.8002 114.338 35.4202 114.338 35.4202L116.923 38.3402L117.512 41.1502L119.349 43.2002L121.016 44.3302L121.335 44.6002L121.715 45.3602L122.683 50.8702L125.648 51.1902C125.648 51.1902 128.073 52.1602 128.133 52.3202C128.193 52.4802 129.7 55.0202 129.7 55.0202L132.076 57.6102C132.076 57.6102 133.314 59.1802 133.314 59.5502C133.314 59.9202 135.47 61.2202 135.47 61.2202L137.137 60.7302L139.023 61.5402L140.8 64.7802L141.768 68.2902L143.655 69.4202L144.244 78.3302L141.978 86.8102L140.85 93.2402L140.261 93.8302L139.612 100.1L139.343 102.1L139.023 102.96L139.293 104.31L139.941 105.17L141.449 107.06L142.147 109.6L143.495 108.63C143.495 108.63 144.194 107.55 144.254 107.39C144.314 107.23 144.743 105.82 144.743 105.82C144.743 105.82 144.853 104.52 144.693 104.2C144.533 103.88 143.934 103.44 143.395 102.8C142.856 102.15 141.728 100.64 141.728 100.64L143.395 99.5602L143.505 98.6402L144.783 98.5902L146.2 99.0802L146.959 100.7L147.448 103.4L147.937 104.21C148.316 104.1 148.636 103.4 148.636 103.4L148.686 102.05L149.115 100L150.303 99.7802L151.381 101.08L151.6 103.84L150.951 105.62L148.905 107.67C148.905 107.67 148.955 108.91 148.795 109.13C148.636 109.35 146.31 111.78 146.31 111.78L145.451 113.29L144.593 113.99L143.784 115.23C143.784 115.23 143.675 116.15 144.004 116.31C144.324 116.47 146.859 118.04 146.859 118.04L147.238 120.31V121.39L147.458 122.9L149.833 128.73L152.638 133.21H154.475L154.854 132.72L154.904 131.86L156.571 131.64L157.43 130.83L159.316 130.24L162.171 130.29L162.55 131.53L159.745 134.93L161.093 136.6L161.203 136.87L160.823 140.22L162.011 143.46L161.961 144.76L161.742 145.57C161.742 145.57 162.061 145.89 162.231 145.95C162.391 146 163.578 146.54 163.578 146.54L163.848 147.46L164.497 148.76L166.274 149.52L166.593 149.79V151.65L168.24 154.32L168.48 157.4L169.697 161.94L170.825 165.1C170.825 165.1 170.586 166.96 170.825 167.04C171.065 167.12 171.953 167.04 171.953 167.04H172.921L173.81 166.39L175.507 167.04L177.124 167.85C177.124 167.85 180.927 170.04 181.007 170.28C181.087 170.52 183.033 172.87 183.033 172.87L185.139 176.11L185.628 178.46L186.038 181.13L186.846 182.51L187.255 183.56L189.112 184.37L191.298 184.86L193.724 187.29V188.18C193.724 188.18 191.298 189.64 191.058 189.64C190.819 189.64 190.01 189.07 189.841 188.67C189.681 188.26 188.952 186.97 188.952 186.97L187.495 186.32L186.527 188.1L187.415 190.21L189.441 191.18L192.596 191.26L194.452 190.29L196.389 190.37L200.112 191.26L203.586 189.96C203.586 189.96 203.905 189.55 205.123 189.07L206.341 188.58L207.309 188.26L209.335 186.56L210.064 185.18V184.21L209.655 181.86L209.894 179.19L212.16 175.79L213.208 173.68L213.857 171.57L214.586 169.14L215.154 166.14L215.564 164.68L215.973 163.38L218.478 140.53L219.317 132.59L211.521 115.57L211.481 115.69Z" fill="white"/>
</g>
</svg>
