<svg width="16" height="16" viewBox="0 0 16 16" fill="none" xmlns="http://www.w3.org/2000/svg">
<path d="M10.0901 8.1907C10.0901 8.1907 10.0901 8.1807 10.0801 8.1707C10.1001 8.0507 10.1101 7.9207 10.1101 7.7907C10.1101 7.7007 10.0701 7.6107 10.0101 7.5407C9.97007 7.5107 9.94007 7.4807 9.90007 7.4707V6.1807C9.90007 5.8807 9.66007 5.6307 9.36007 5.6307C9.31007 5.6307 9.26007 5.6307 9.21007 5.6507V5.2807C9.21007 4.9807 8.97007 4.7307 8.67007 4.7307C8.62007 4.7307 8.57007 4.7307 8.52007 4.7507C8.52007 4.4607 8.27007 4.2207 7.98007 4.2207C7.77007 4.2207 7.59007 4.3407 7.49007 4.5307C7.43007 4.5007 7.36007 4.4907 7.29007 4.4907C6.99007 4.4907 6.75007 4.7407 6.75007 5.0407V6.6707C6.69007 6.7207 6.65007 6.7807 6.63007 6.8607V6.8907V7.1807L6.20007 6.9107C5.93007 6.7607 5.58007 6.8307 5.40007 7.0807C5.22007 7.3307 5.26007 7.6707 5.50007 7.8607L5.90007 8.1907C6.00007 8.2707 6.10007 8.3407 6.20007 8.4107C6.36007 8.5307 6.52007 8.6307 6.64007 8.7807L6.77007 9.0007C6.77007 9.0007 6.77007 9.0307 6.77007 9.0407C6.77007 9.1107 6.77007 9.4707 6.78007 9.8107C6.78007 10.2407 6.78007 10.8807 6.80007 11.4107C6.80007 11.5407 6.88007 11.6607 7.01007 11.7207V12.4507C7.01007 12.5607 7.10007 12.6507 7.21007 12.6507C7.32007 12.6507 7.41007 12.5607 7.41007 12.4507V11.7607H9.01007V12.4507C9.01007 12.5607 9.10007 12.6507 9.21007 12.6507C9.32007 12.6507 9.41007 12.5607 9.41007 12.4507V11.7307C9.54007 11.6807 9.63007 11.5507 9.63007 11.4107V11.1907C9.69007 11.1707 9.75007 11.1207 9.75007 10.9707V10.2507C9.75007 10.1107 9.69007 10.0507 9.63007 10.0307V9.4807C9.66007 9.4207 9.71007 9.3407 9.76007 9.2307C9.80007 9.2007 9.84007 9.1707 9.86007 9.1207L10.1401 8.4007C10.1701 8.3307 10.1601 8.2507 10.1201 8.1907H10.0901ZM6.96007 8.5507C6.80007 8.3407 6.61007 8.2107 6.43007 8.0807L6.39007 8.0507C6.31007 8.0007 6.23007 7.9407 6.16007 7.8807L5.76007 7.5507C5.68007 7.4907 5.67007 7.3807 5.73007 7.3107C5.77007 7.2507 5.84007 7.2207 5.91007 7.2207C5.95007 7.2207 5.98007 7.2207 6.01007 7.2507L6.81007 7.7607C6.81007 7.7607 6.84007 7.7707 6.86007 7.7807C6.99007 7.9207 7.16007 8.1107 6.98007 8.5507H6.96007ZM7.16007 9.0507C7.16007 9.0507 7.17007 9.0307 7.18007 9.0107C7.69007 8.1107 7.32007 7.7107 7.10007 7.4807L7.08007 7.4607C7.08007 7.4607 7.04007 7.4207 7.02007 7.4007V7.0707C7.84007 7.7807 9.18007 7.8507 9.69007 7.8507H9.71007C9.71007 7.9307 9.71007 8.0107 9.69007 8.0907H8.59007C8.26007 8.0907 8.00007 8.3507 8.00007 8.6807C8.00007 9.0107 8.27007 9.2707 8.59007 9.2707H9.28007C9.28007 9.2707 9.27007 9.2907 9.26007 9.3007C9.23007 9.3507 9.21007 9.4107 9.21007 9.4807V10.0307H8.52007C8.20007 10.0307 7.93007 10.2907 7.93007 10.6207C7.93007 10.9507 8.19007 11.2107 8.52007 11.2107H9.21007V11.3707H7.18007C7.17007 10.8807 7.16007 10.3107 7.16007 9.8207C7.16007 9.4407 7.16007 9.1707 7.16007 9.0607V9.0507ZM9.39007 10.4207V10.8007H8.53007C8.43007 10.8007 8.34007 10.7107 8.34007 10.6107C8.34007 10.5107 8.42007 10.4207 8.53007 10.4207H9.39007ZM9.66007 8.4907L9.51007 8.8707H8.59007C8.48007 8.8707 8.40007 8.7807 8.40007 8.6807C8.40007 8.5807 8.49007 8.4907 8.59007 8.4907H9.65007H9.66007ZM7.46007 6.9007C7.37007 6.8407 7.29007 6.7707 7.21007 6.7007C7.19007 6.6807 7.17007 6.6707 7.15007 6.6507V5.0507C7.15007 4.9707 7.22007 4.9007 7.30007 4.9007C7.38007 4.9007 7.45007 4.9707 7.45007 5.0507V6.8107C7.45007 6.8107 7.45007 6.8707 7.47007 6.9007H7.46007ZM8.33007 7.0007C8.44007 7.0007 8.53007 6.9107 8.53007 6.8007V5.2907C8.53007 5.2107 8.60007 5.1407 8.68007 5.1407C8.76007 5.1407 8.82007 5.2107 8.82007 5.2907V6.8007C8.82007 6.9107 8.91007 7.0007 9.02007 7.0007C9.13007 7.0007 9.22007 6.9107 9.22007 6.8007V6.1907C9.22007 6.1107 9.29007 6.0407 9.37007 6.0407C9.45007 6.0407 9.52007 6.1107 9.52007 6.1907V7.4407C9.11007 7.4307 8.29007 7.3507 7.66007 7.0007C7.77007 7.0007 7.86007 6.9107 7.86007 6.8007V4.7807C7.86007 4.7007 7.92007 4.6307 8.00007 4.6307C8.08007 4.6307 8.15007 4.7007 8.15007 4.7807V6.8007C8.15007 6.9107 8.24007 7.0007 8.35007 7.0007H8.33007Z" fill="#FF5800"/>
<path d="M13.39 5.16047C13.39 5.10047 13.36 5.05047 13.31 5.02047C13.27 4.99047 13.21 4.97047 13.15 4.98047C13.13 4.98047 11 5.30047 8.23004 2.04047C8.23004 2.04047 8.21004 2.04047 8.21004 2.03047V2.02047C8.19004 2.01047 8.17004 2.01047 8.15004 2.00047C8.13004 2.00047 8.11004 1.98047 8.08004 1.98047C8.04004 1.98047 8.01004 1.99047 7.97004 2.01047H7.95004C7.95004 2.01047 7.93004 2.01047 7.92004 2.02047C5.14004 5.28047 3.02004 4.97047 3.00004 4.96047C2.94004 4.95047 2.89004 4.96047 2.84004 5.00047C2.80004 5.03047 2.77004 5.09047 2.76004 5.14047C2.21004 12.1905 7.95004 14.1805 8.01004 14.2005C8.02004 14.2005 8.04004 14.2005 8.05004 14.2005C8.05004 14.2005 8.06004 14.2005 8.07004 14.2005C8.09004 14.2005 8.11004 14.2005 8.13004 14.1905C8.19004 14.1705 9.61004 13.6905 10.97 12.3305C12.23 11.0805 13.67 8.81047 13.38 5.13047L13.39 5.16047ZM8.08004 13.8205C7.52004 13.6105 2.77004 11.6205 3.15004 5.39047C3.78004 5.41047 5.69004 5.18047 8.08004 2.46047C10.4 5.11047 12.28 5.39047 12.96 5.39047C12.98 5.39047 13 5.39047 13.01 5.39047C13.39 11.5605 8.70004 13.5805 8.09004 13.8105L8.08004 13.8205Z" fill="#FF5800"/>
</svg>
