<?xml version="1.0" encoding="UTF-8"?>
<svg xmlns="http://www.w3.org/2000/svg" version="1.1" viewBox="0 0 16 16">
  <defs>
    <style>
      .cls-1 {
        fill: #12b4f4;
      }
    </style>
  </defs>
  <!-- Generator: Adobe Illustrator 28.7.1, SVG Export Plug-In . SVG Version: 1.2.0 Build 142)  -->
  <g>
    <g id="Layer_1">
      <path class="cls-1" d="M7.99,15.95C3.61,15.95.03,12.38.03,7.99S3.61.03,7.99.03s7.96,3.57,7.96,7.96-3.57,7.96-7.96,7.96ZM7.99.43C3.83.43.43,3.83.43,7.99s3.39,7.56,7.56,7.56,7.56-3.39,7.56-7.56S12.16.43,7.99.43Z"/>
      <g id="_x37_06_x2C__Insurance_x2C__Investment_x2C__Protection">
        <g>
          <path class="cls-1" d="M8.47,10.59c-.14-.05-.28-.09-.3-.09v-.34c.05,0,.09.02.14.04.07.02.16.05.21.09.02.02.04.02.04.04l.18-.34c-.07-.04-.14-.07-.25-.11-.09-.04-.19-.05-.3-.07v-.25h-.16v.25c-.23.02-.42.12-.51.34-.04.07-.04.14-.04.23,0,.18.07.3.26.39.12.07.26.09.32.11v.32c-.05,0-.11-.02-.18-.04-.09-.04-.18-.07-.25-.12-.04-.02-.05-.04-.05-.04l-.18.35c.18.12.41.2.62.21v.28h.16v-.28c.07,0,.16-.02.23-.04.07-.02.12-.05.19-.09.05-.04.11-.09.12-.16.04-.07.05-.14.05-.23,0-.07-.02-.14-.04-.2-.05-.12-.14-.21-.28-.27ZM8.04,10.45c-.05-.02-.11-.04-.12-.05-.04-.02-.04-.05-.04-.09,0-.09.05-.12.18-.14l-.02.28h0ZM8.17,11.19v-.28c.05.02.11.04.14.07.04.02.05.05.05.11-.02.07-.07.11-.19.11Z"/>
          <path class="cls-1" d="M8.31,8.05v-.92c.02-.41.35-.73.74-.73.3,0,.56.2.67.46t.02.04c.04.09.05.18.05.28,0,.12.11.21.23.21s.23-.11.23-.21c0-.43.33-.76.74-.76.3,0,.56.18.67.46.04.11.16.16.26.12.11-.04.18-.14.16-.25-.35-1.88-1.82-3.39-3.75-3.48v-.32c0-.12-.11-.23-.23-.23s-.21.11-.21.23v.32c-1.94.11-3.4,1.61-3.75,3.48-.02.11.05.21.16.25s.23-.02.26-.12c.14-.34.49-.53.85-.44.33.09.56.39.56.75,0,.12.11.21.23.21s.23-.11.23-.21.02-.2.05-.28c0-.02.02-.02.02-.04.12-.27.37-.44.67-.44.41,0,.74.34.74.76v.87c-1.36.11-2.43,1.26-2.43,2.64,0,1.47,1.18,2.66,2.64,2.66s2.64-1.19,2.64-2.66c-.04-1.38-1.09-2.54-2.45-2.64ZM8.31,6.23v-2.48c.28.09.56.37.79.8.23.43.41.96.51,1.58-.42-.25-.93-.21-1.3.11ZM11.41,6.05c-.44-.18-.97-.09-1.3.3-.12-.83-.39-1.81-.9-2.47.99.32,1.8,1.12,2.2,2.16ZM4.76,6.03c.42-1.03,1.22-1.81,2.22-2.15-.51.66-.78,1.63-.9,2.45-.33-.35-.86-.48-1.32-.3ZM6.56,6.1c.11-.62.28-1.15.53-1.58.23-.43.51-.69.78-.78v2.48c-.37-.32-.88-.35-1.3-.12ZM8.08,12.91c-1.22,0-2.2-.99-2.2-2.22s1-2.22,2.2-2.22,2.2.99,2.2,2.22-.99,2.22-2.2,2.22Z"/>
          <path class="cls-1" d="M8.08,8.92c-.97,0-1.76.8-1.76,1.77s.79,1.77,1.76,1.77,1.76-.8,1.76-1.77-.78-1.77-1.76-1.77ZM8.08,12.03c-.72,0-1.32-.6-1.32-1.33s.6-1.33,1.32-1.33,1.32.6,1.32,1.33-.58,1.33-1.32,1.33Z"/>
        </g>
      </g>
    </g>
  </g>
</svg>