<svg width="16" height="16" viewBox="0 0 16 16" fill="none" xmlns="http://www.w3.org/2000/svg">
<path d="M8.3499 0.220028C8.4199 0.260028 8.3299 0.200028 8.3499 0.220028Z" fill="#FF5800"/>
<path d="M14.92 4.32016C14.92 4.32016 14.91 4.31016 14.91 4.30016C14.91 4.29016 14.91 4.28016 14.91 4.27016C14.81 3.81016 14.38 3.92016 14.04 3.90016C13.55 3.87016 13.07 3.74016 12.62 3.57016C11.77 3.24016 10.98 2.73016 10.28 2.15016C9.78995 1.74016 9.31995 1.30016 8.88995 0.830162C8.77995 0.710162 8.67995 0.600162 8.56995 0.480162C8.50995 0.410162 8.44995 0.320162 8.37995 0.260162C8.35995 0.240162 8.35995 0.240162 8.34995 0.230162C8.34995 0.230162 8.34995 0.230162 8.33995 0.230162C8.16995 0.120162 7.95995 0.0801624 7.77995 0.200162C7.74995 0.220162 7.72995 0.250162 7.70995 0.270162C7.82995 0.180162 7.65995 0.310162 7.63995 0.330162C7.50995 0.470162 7.38995 0.620162 7.25995 0.760162C7.01995 1.02016 6.76995 1.27016 6.51995 1.52016C6.09995 1.92016 5.64995 2.30016 5.17995 2.63016C4.52995 3.09016 3.81995 3.48016 3.04995 3.71016C2.65995 3.83016 2.25995 3.91016 1.85995 3.91016C1.81995 3.91016 1.60995 3.90016 1.71995 3.91016C1.07995 3.86016 1.14995 4.56016 1.12995 5.01016C1.05995 6.92016 1.37995 8.86016 2.19995 10.5902C2.80995 11.8802 3.69995 13.0402 4.77995 13.9902C5.50995 14.6302 6.31995 15.1802 7.19995 15.6102C7.40995 15.7102 7.62995 15.8202 7.84995 15.8902C8.14995 15.9902 8.41995 15.8302 8.68995 15.7102C10.4299 14.9402 11.96 13.6402 13.05 12.0802C14.22 10.3902 14.83 8.38016 14.95 6.34016C14.99 5.67016 14.98 5.00016 14.93 4.33016L14.92 4.32016ZM11.6899 13.0902C11.04 13.7602 10.3 14.3502 9.48995 14.8302C9.06995 15.0802 8.59995 15.3702 8.11995 15.5002C8.01995 15.5302 7.96995 15.5002 7.86995 15.4602C7.75995 15.4202 7.78995 15.4302 7.67995 15.3802C7.57995 15.3302 7.46995 15.2902 7.36995 15.2402C5.83995 14.4902 4.47995 13.3702 3.47995 11.9902C2.73995 10.9602 2.19995 9.80016 1.87995 8.58016C1.68995 7.84016 1.56995 7.09016 1.52995 6.33016C1.49995 5.90016 1.49995 5.47016 1.50995 5.04016C1.50995 4.84016 1.49995 4.60016 1.53995 4.40016C1.57995 4.22016 1.56995 4.31016 1.65995 4.30016C1.83995 4.28016 2.02995 4.30016 2.20995 4.29016C2.59995 4.25016 2.98995 4.15016 3.36995 4.02016C4.77995 3.53016 6.00995 2.58016 7.05995 1.53016C7.23995 1.35016 7.41995 1.16016 7.58995 0.970162C7.67995 0.870162 7.75995 0.780162 7.84995 0.680162C7.88995 0.640162 7.93995 0.590162 7.98995 0.540162C8.01995 0.540162 8.04995 0.540162 8.07995 0.540162C8.16995 0.670162 8.30995 0.790162 8.40995 0.900162C8.57995 1.09016 8.75995 1.28016 8.93995 1.47016C9.25995 1.79016 9.57995 2.10016 9.92995 2.38016C10.47 2.83016 11.05 3.24016 11.67 3.57016C12.4 3.95016 13.2 4.25016 14.02 4.30016C14.1 4.30016 14.46 4.24016 14.51 4.37016C14.74 7.54016 13.93 10.7602 11.68 13.0902H11.6899Z" fill="#FF5800"/>
<path d="M8.95993 8.3207C8.86993 8.3207 8.79993 8.2507 8.79993 8.1607C8.79993 8.0607 8.71993 7.9807 8.61993 7.9807C8.51993 7.9807 8.43993 8.0607 8.43993 8.1607C8.43993 8.3907 8.57993 8.5807 8.77993 8.6507V8.7307C8.77993 8.8307 8.85993 8.9107 8.95993 8.9107C9.05993 8.9107 9.13993 8.8307 9.13993 8.7307V8.6507C9.33993 8.5707 9.47993 8.3807 9.47993 8.1607C9.47993 7.8707 9.23993 7.6307 8.94993 7.6307C8.85993 7.6307 8.78993 7.5607 8.78993 7.4707C8.78993 7.3807 8.85993 7.3107 8.94993 7.3107C9.03993 7.3107 9.10993 7.3807 9.10993 7.4707C9.10993 7.5707 9.18993 7.6507 9.28993 7.6507C9.38993 7.6507 9.46993 7.5707 9.46993 7.4707C9.46993 7.2407 9.32993 7.0507 9.12993 6.9807V6.9007C9.12993 6.8007 9.04993 6.7207 8.94993 6.7207C8.84993 6.7207 8.76993 6.8007 8.76993 6.9007V6.9807C8.56993 7.0607 8.42993 7.2507 8.42993 7.4707C8.42993 7.7607 8.66993 8.0007 8.95993 8.0007C9.04993 8.0007 9.11993 8.0707 9.11993 8.1607C9.11993 8.2507 9.04993 8.3207 8.95993 8.3207Z" fill="#FF5800"/>
<path d="M6.82996 8.43055C6.82996 9.62055 7.90996 9.77055 8.95996 9.77055C10.01 9.77055 11.09 9.61055 11.09 8.43055C11.09 7.13055 10.15 6.32055 9.70996 6.02055C9.73996 5.97055 9.75996 5.90055 9.75996 5.84055V5.81055C10.2 5.65055 10.31 5.35055 10.33 5.23055C10.36 5.07055 10.32 4.93055 10.22 4.86055C10.04 4.72055 9.80996 4.75055 9.77996 4.75055C9.73996 4.75055 9.70996 4.78055 9.67996 4.80055C9.67996 4.78055 9.66996 4.76055 9.65996 4.74055C9.59996 4.63055 9.49996 4.56055 9.36996 4.56055C9.24996 4.56055 9.17996 4.60055 9.11996 4.63055C9.06996 4.66055 9.03996 4.67055 8.95996 4.67055C8.87996 4.67055 8.84996 4.65055 8.79996 4.63055C8.73996 4.60055 8.66996 4.56055 8.54996 4.56055C8.41996 4.56055 8.30996 4.63055 8.25996 4.74055C8.24996 4.76055 8.23996 4.79055 8.22996 4.82055C8.19996 4.79055 8.16996 4.77055 8.12996 4.77055C8.09996 4.77055 7.85996 4.74055 7.68996 4.88055C7.59996 4.96055 7.55996 5.11055 7.59996 5.27055C7.62996 5.39055 7.73996 5.68055 8.16996 5.83055V5.85055C8.16996 5.91055 8.18996 5.98055 8.21996 6.03055C7.77996 6.34055 6.82996 7.14055 6.82996 8.45055V8.43055ZM8.57996 6.22055H9.33996C9.59996 6.38055 10.72 7.13055 10.72 8.43055C10.72 9.02055 10.42 9.41055 8.95996 9.41055C7.49996 9.41055 7.19996 9.02055 7.19996 8.43055C7.19996 7.12055 8.31996 6.37055 8.57996 6.22055ZM9.38996 5.83055C9.38996 5.83055 9.38996 5.85055 9.36996 5.85055H8.55996C8.55996 5.85055 8.53996 5.85055 8.53996 5.83055V5.80055C8.53996 5.80055 8.53996 5.78055 8.55996 5.78055H9.36996C9.36996 5.78055 9.38996 5.78055 9.38996 5.80055V5.83055ZM9.10996 5.42055H8.80996C8.62996 5.17055 8.58996 4.99055 8.58996 4.92055C8.59996 4.92055 8.60996 4.93055 8.62996 4.94055C8.68996 4.97055 8.78996 5.03055 8.95996 5.03055C9.12996 5.03055 9.22996 4.98055 9.28996 4.95055C9.30996 4.94055 9.31996 4.93055 9.32996 4.93055C9.32996 5.00055 9.27996 5.18055 9.10996 5.43055V5.42055ZM9.82996 5.10055C9.82996 5.10055 9.89996 5.10055 9.95996 5.12055C9.95996 5.14055 9.95996 5.17055 9.93996 5.20055C9.90996 5.27055 9.82996 5.39055 9.57996 5.47055C9.57996 5.47055 9.56996 5.47055 9.55996 5.47055C9.54996 5.47055 9.52996 5.45055 9.51996 5.45055C9.59996 5.31055 9.65996 5.17055 9.67996 5.05055C9.71996 5.08055 9.76996 5.10055 9.82996 5.09055V5.10055ZM8.39996 5.45055C8.39996 5.45055 8.35996 5.47055 8.33996 5.48055C8.08996 5.40055 8.00996 5.28055 7.97996 5.21055C7.96996 5.17055 7.95996 5.14055 7.95996 5.12055C7.99996 5.10055 8.05996 5.10055 8.08996 5.10055C8.14996 5.10055 8.19996 5.08055 8.23996 5.05055C8.25996 5.17055 8.31996 5.30055 8.39996 5.44055V5.45055Z" fill="#FF5800"/>
<path d="M11.6499 10.1103C11.5099 9.86027 11.2099 9.75027 10.9399 9.83027L9.29992 10.3203C9.29992 10.3203 9.20992 10.3703 9.18992 10.4103C9.16992 10.4503 9.15992 10.5003 9.17992 10.5503C9.20992 10.6503 9.30992 10.7003 9.40992 10.6703L11.0499 10.1803C11.1599 10.1503 11.2799 10.1903 11.3399 10.2903C11.3799 10.3503 11.3799 10.4303 11.3599 10.5003C11.3399 10.5703 11.2899 10.6203 11.2199 10.6503L8.15992 11.9103C7.96992 11.9903 7.74992 12.0103 7.53992 11.9603L5.77992 11.5403C5.77992 11.5403 5.70992 11.5403 5.67992 11.5403L5.34992 11.6503L5.08992 10.5703L5.33992 10.5003C5.33992 10.5003 5.40992 10.4703 5.42992 10.4403C5.44992 10.4203 5.85992 9.90027 6.55992 9.90027C7.25992 9.90027 7.68992 10.4103 7.69992 10.4203C7.72992 10.4503 7.76992 10.4803 7.80992 10.4803L8.70992 10.6203C8.70992 10.6203 8.78992 10.6503 8.81992 10.6903C8.84992 10.7303 8.84992 10.7703 8.83992 10.8103C8.81992 10.8803 8.75992 10.9303 8.68992 10.9303H7.50992L6.77992 10.6103C6.68992 10.5703 6.57992 10.6103 6.53992 10.7003C6.51992 10.7403 6.51992 10.7903 6.53992 10.8403C6.55992 10.8903 6.58992 10.9203 6.63992 10.9403L7.40992 11.2803C7.40992 11.2803 7.45992 11.3003 7.47992 11.3003H8.69992C8.93992 11.3003 9.14992 11.1303 9.20992 10.9003C9.23992 10.7603 9.20992 10.6103 9.13992 10.4903C9.05992 10.3703 8.92992 10.2903 8.78992 10.2603L7.94992 10.1303C7.79992 9.97027 7.30992 9.53027 6.57992 9.53027C5.84992 9.53027 5.34992 10.0003 5.19992 10.1603L5.01992 10.2103L4.93992 9.89027C4.93992 9.89027 4.89992 9.80027 4.85992 9.78027C4.81992 9.75027 4.76992 9.75027 4.71992 9.76027L3.40992 10.1103C3.40992 10.1103 3.31992 10.1503 3.29992 10.2003C3.27992 10.2503 3.26992 10.2903 3.27992 10.3403C3.28992 10.3903 3.31992 10.4303 3.36992 10.4503C3.40992 10.4703 3.45992 10.4803 3.50992 10.4703L4.62992 10.1703L5.14992 12.3003L4.01992 12.6003C4.01992 12.6003 3.92992 12.6403 3.90992 12.6903C3.88992 12.7303 3.87992 12.7803 3.88992 12.8303C3.90992 12.9103 3.97992 12.9703 4.06992 12.9703C4.08992 12.9703 4.09992 12.9703 4.11992 12.9703L5.42992 12.6203C5.52992 12.5903 5.57992 12.5003 5.55992 12.4003L5.46992 12.0203L5.76992 11.9203L7.47992 12.3303C7.57992 12.3503 7.68992 12.3703 7.79992 12.3703C7.97992 12.3703 8.15992 12.3403 8.31992 12.2703L11.3799 11.0103C11.5499 10.9403 11.6699 10.8003 11.7299 10.6303C11.7899 10.4603 11.7699 10.2703 11.6799 10.1203L11.6499 10.1103Z" fill="#FF5800"/>
<path d="M4.43998 11.1206C4.43998 11.1206 4.46998 11.1206 4.47998 11.1206C4.57998 11.1006 4.63998 11.0006 4.61998 10.9006L4.55998 10.6506C4.55998 10.6506 4.51998 10.5606 4.47998 10.5406C4.43998 10.5106 4.38998 10.5106 4.33998 10.5206C4.28998 10.5306 4.24998 10.5606 4.22998 10.6006C4.20998 10.6406 4.19998 10.6906 4.20998 10.7406L4.26998 10.9906C4.28998 11.0706 4.35998 11.1306 4.44998 11.1306L4.43998 11.1206Z" fill="#FF5800"/>
</svg>
