<?xml version="1.0" encoding="UTF-8"?>
<svg xmlns="http://www.w3.org/2000/svg" version="1.1" viewBox="0 0 16 16">
  <defs>
    <style>
      .cls-1 {
        fill: #fd5801;
      }

      .cls-2 {
        fill: #ff5800;
      }
    </style>
  </defs>
  <!-- Generator: Adobe Illustrator 28.7.1, SVG Export Plug-In . SVG Version: 1.2.0 Build 142)  -->
  <g>
    <g id="Layer_1">
      <path class="cls-2" d="M7.99,15.95C3.61,15.95.03,12.38.03,7.99S3.61.03,7.99.03s7.96,3.57,7.96,7.96-3.57,7.96-7.96,7.96ZM7.99.43C3.83.43.43,3.83.43,7.99s3.39,7.56,7.56,7.56,7.56-3.39,7.56-7.56S12.16.43,7.99.43Z"/>
      <g>
        <path class="cls-1" d="M12.67,3.58s0-.05,0-.07c0-.55-.57-.48-.95-.48h-.55c-.08-.09-.18-.16-.3-.17-.03,0-.05,0-.08,0,0,0-.01,0-.02,0-.04,0-.08,0-.12,0-.33-.04-.63-.21-.89-.41-.15-.11-.3-.28-.49-.29-.23-.02-.47,0-.7,0s-.44-.01-.66,0c-.19.01-.32.16-.47.27-.26.2-.54.36-.87.42-.22.04-.44.02-.58.18h-.28c-.28,0-.74-.08-.97.12-.24.22-.17.67-.17.96v7.17c-.38,0-.75.06-1.03.37-.39.43-.38,1.12.03,1.53.3.31.69.35,1.09.35,0,0,.01,0,.02,0,0,0,0,0,.02,0,.14,0,.28,0,.41,0h4.91c.43,0,.9.05,1.33-.03.02,0,.03-.01.04-.01,0,0,0,0,0,0,.03,0,.04-.01.06-.02.52-.13.96-.5,1.13-1.02.07-.2.07-.41.07-.63,0-1.41,0-2.82,0-4.23,0-1.34.03-2.68,0-4.01ZM6.45,3.27c.1-.02.21-.02.31-.05.19-.05.37-.12.54-.21.21-.11.39-.26.58-.4.02-.01.04-.03.06-.04.06,0,.13,0,.19,0h1.06s.04,0,.06,0c.07.06.42.31.45.34.25.18.57.31.88.36.07.01.15,0,.22.02.02,0,.05-.02.06,0,.05.03.06.19.07.23.02.13,0,.26,0,.39-.02.81-.27,1.61-.77,2.25-.25.32-.55.6-.89.82-.2.13-.44.29-.69.34-.14-.05-.22-.08-.38-.17-.33-.18-.64-.41-.9-.68-.37-.38-.65-.83-.82-1.33-.11-.33-.18-.67-.2-1.01-.01-.18-.02-.35-.01-.53,0-.17.03-.27.19-.31ZM10.55,13.13h-5.97c-.23,0-.46-.01-.65-.17-.52-.41-.23-1.23.4-1.29.11-.01.22,0,.33,0,0,0,0,0,.01,0h5.88c-.16.17-.28.37-.31.62-.04.35.09.62.3.82ZM12.24,12.22c-.1.46-.46.76-.89.87-.02,0-.03,0-.05,0-.1-.02-.19-.05-.28-.09-.28-.13-.41-.37-.36-.68.06-.4.45-.61.82-.62.26,0,.26-.4,0-.4h-6.5V3.62c0-.24.21-.19.39-.19h.48c0,.11,0,.22,0,.32,0,.22.02.45.05.67.09.66.32,1.3.71,1.83.46.64,1.12,1.16,1.87,1.43.05.02.09,0,.13-.01.02,0,.03.01.05.01.24-.05.48-.19.68-.31.36-.22.69-.49.96-.8.49-.56.81-1.24.94-1.97.04-.22.06-.45.07-.68,0-.15,0-.33,0-.49.22-.01.95-.06.95.08,0,1.02,0,2.03,0,3.05v4.62c0,.33.05.71-.02,1.04Z"/>
        <path class="cls-1" d="M10.56,10.33h-3.88c-.26,0-.26.4,0,.4h3.88c.26,0,.26-.4,0-.4Z"/>
        <path class="cls-1" d="M11.19,9.52h-5.14c-.26,0-.26.4,0,.4h5.14c.26,0,.26-.4,0-.4Z"/>
        <path class="cls-1" d="M6.02,9.07h5.14c.26,0,.26-.4,0-.4h-5.14c-.26,0-.26.4,0,.4Z"/>
        <path class="cls-1" d="M7.89,5.47c.09.09.19.19.28.28.11.11.2.22.36.21.17,0,.27-.15.38-.26.11-.11.23-.23.34-.34.23-.23.47-.47.7-.7.09-.09.17-.18.2-.31.03-.13,0-.27-.08-.38-.14-.21-.43-.25-.64-.13-.11.07-.2.17-.29.27-.1.1-.2.21-.31.31-.05.05-.1.1-.15.15-.05.05-.12.1-.16.15,0,0-.01.01-.02.02,0,0,0,0,0,0-.02-.05-.11-.12-.15-.16-.16-.16-.36-.29-.59-.21-.2.07-.34.27-.32.49.02.26.27.43.44.6ZM7.9,4.76c.08-.04.2.12.26.19.14.15.32.28.53.17.09-.05.16-.13.23-.2.08-.08.16-.16.25-.25.09-.09.17-.17.26-.26.07-.07.15-.19.24-.23.04-.02.08,0,.1.02.04.07-.03.12-.08.17-.31.31-.62.62-.94.94-.07.07-.16.14-.22.22,0,0,0,0,0,0,0,0,0,0,0,0-.03-.05-.08-.08-.12-.12-.15-.15-.3-.3-.45-.45-.06-.06-.15-.14-.05-.19Z"/>
      </g>
    </g>
  </g>
</svg>