<?xml version="1.0" encoding="UTF-8"?>
<svg xmlns="http://www.w3.org/2000/svg" version="1.1" viewBox="0 0 16 16">
  <defs>
    <style>
      .cls-1 {
        fill: #12b4f4;
      }
    </style>
  </defs>
  <!-- Generator: Adobe Illustrator 28.7.1, SVG Export Plug-In . SVG Version: 1.2.0 Build 142)  -->
  <g>
    <g id="Layer_1">
      <path class="cls-1" d="M7.99,15.95C3.61,15.95.03,12.38.03,7.99S3.61.03,7.99.03s7.96,3.57,7.96,7.96-3.57,7.96-7.96,7.96ZM7.99.43C3.83.43.43,3.83.43,7.99s3.39,7.56,7.56,7.56,7.56-3.39,7.56-7.56S12.16.43,7.99.43Z"/>
      <g>
        <path class="cls-1" d="M7.16,9.44c-.07-.06-.44-.36-.9-.4.38-.21.64-.6.64-1.06,0-.68-.55-1.22-1.22-1.22s-1.22.55-1.22,1.22c0,.46.27.85.64,1.06-.46.05-.83.34-.9.4-.97.7-1.05,1.25-1.05,1.36-.02.21.06.45.31.52.04.01.08.01.12.01.2,0,.35-.14.41-.23,0,0,0-.01.01-.02.13-.27.31-.47.47-.61,0,.14,0,.27,0,.35,0,0,0,0,0,.01-.16.05-.23.16-.25.24-.06.19-.02.53.02.76-.1.02-.24.06-.41.11-.08.02-.27.09-.36.29-.05.1-.08.26,0,.48.03.08.12.19.33.43.05.06.11.13.15.18-.02.03-.05.07-.08.1-.02.02-.03.04-.05.06-.12.15-.07.29-.04.34.09.17.31.21.49.19.3-.02.7-.45.7-.73,0-.14-.12-.31-.28-.47.07-.03.13-.06.18-.1.37.28.69.27.81.26.11.01.44.02.81-.26.05.04.11.07.18.1-.16.16-.28.33-.28.47,0,.28.41.71.7.73.02,0,.04,0,.07,0,.16,0,.35-.05.42-.2.03-.05.08-.18-.04-.34-.02-.02-.03-.04-.05-.06-.03-.03-.06-.07-.08-.1.04-.04.1-.12.15-.18.2-.24.3-.35.33-.43.09-.22.05-.38,0-.48-.09-.19-.29-.27-.37-.29-.17-.05-.3-.08-.41-.11.04-.23.08-.57.02-.76-.02-.08-.1-.19-.25-.24,0,0,0,0,0-.01,0-.08,0-.21,0-.35.16.14.34.34.47.61,0,0,0,.01,0,.02.07.11.26.28.52.22.25-.06.33-.31.31-.52,0-.11-.08-.67-1.05-1.36ZM4.85,7.98c0-.46.37-.83.83-.83s.83.37.83.83-.37.83-.83.83-.83-.37-.83-.83ZM4.25,13.62s-.02,0-.02,0c.1-.13.21-.3.09-.49-.03-.05-.1-.13-.21-.25-.09-.1-.24-.27-.27-.32-.02-.05-.04-.11-.01-.15.02-.04.08-.07.12-.08.25-.07.38-.1.45-.11l.19.21c-.07.04-.17.08-.32.07-.08,0-.16.05-.19.13-.03.08,0,.17.07.22.2.15.4.35.44.43-.03.1-.25.32-.34.33ZM5.72,12.58s-.05,0-.08,0c-.01,0-.29.05-.64-.28l-.35-.39c-.05-.26-.09-.59-.06-.7.01,0,.03,0,.07,0h2.02s.06,0,.07,0c.03.11,0,.43-.06.7l-.35.39c-.35.32-.63.28-.64.28ZM7.42,12.32s.1.04.12.08c.02.04,0,.11-.01.15-.03.05-.18.22-.27.32-.11.13-.18.2-.21.25-.12.18-.01.35.09.49,0,0-.01,0-.02,0-.09-.01-.31-.23-.34-.33.04-.08.24-.28.44-.43.07-.05.09-.14.07-.22-.03-.08-.1-.13-.19-.13,0,0,0,0,0,0-.14,0-.24-.04-.31-.07l.19-.21c.07.01.21.04.45.11ZM7.82,10.84s0,.08-.02.09c-.05.01-.08-.03-.09-.04-.37-.73-1.01-1.03-1.03-1.04-.08-.04-.18-.01-.24.06-.06.07-.06.17,0,.24.04.07.07.38.06.65,0,0,0,0,0,0h-1.63s0,0,0,0c-.01-.28.01-.59.06-.65.06-.07.06-.17,0-.24-.06-.07-.15-.1-.24-.06-.03.01-.66.31-1.03,1.04-.01.01-.05.05-.09.04-.01-.01-.02-.06-.01-.1,0-.01,0-.01,0-.02,0-.04.07-.47.9-1.07,0,0,.01,0,.02-.01,0,0,.36-.32.75-.32h.95c.39,0,.74.32.75.32,0,0,.01.01.02.02.83.59.89,1.03.9,1.07,0,0,0,.01,0,.02Z"/>
        <path class="cls-1" d="M11.54,4.28h-.33c.43-.22.73-.66.73-1.17,0-.73-.6-1.33-1.33-1.33s-1.33.6-1.33,1.33c0,.52.3.95.73,1.17h-.33c-.84,0-1.52.68-1.52,1.52v3c0,.33.27.6.6.6.16,0,.31-.06.41-.16v4.08c0,.36.29.66.66.66s.66-.29.66-.66v-3.63h.2v3.63c0,.36.29.66.66.66s.66-.29.66-.66v-4.12c.11.13.27.21.46.21.33,0,.6-.27.6-.6v-3c0-.84-.68-1.52-1.52-1.52ZM9.68,3.1c0-.52.42-.94.94-.94s.94.42.94.94-.42.94-.94.94-.94-.42-.94-.94ZM12.67,8.8c0,.12-.09.21-.21.21s-.21-.09-.21-.21v-3c0-.25-.13-.47-.34-.6-.06-.04-.14-.04-.2,0-.06.03-.1.1-.1.17v7.95c0,.14-.12.26-.26.26s-.26-.12-.26-.26v-3.83c0-.11-.09-.2-.2-.2h-.6c-.11,0-.2.09-.2.2v3.83c0,.14-.12.26-.26.26s-.26-.12-.26-.26v-7.92c0-.07-.04-.14-.11-.18s-.15-.03-.21.02c-.18.14-.28.34-.28.56v3c0,.12-.09.21-.21.21s-.21-.09-.21-.21v-3c0-.62.51-1.13,1.13-1.13h1.86c.62,0,1.13.5,1.13,1.13v3Z"/>
      </g>
    </g>
  </g>
</svg>