<?xml version="1.0" encoding="UTF-8"?>
<svg xmlns="http://www.w3.org/2000/svg" version="1.1" viewBox="0 0 16 16">
  <defs>
    <style>
      .cls-1 {
        fill: #12b4f4;
      }
    </style>
  </defs>
  <!-- Generator: Adobe Illustrator 28.7.1, SVG Export Plug-In . SVG Version: 1.2.0 Build 142)  -->
  <g>
    <g id="Layer_1">
      <path class="cls-1" d="M7.99,15.95C3.61,15.95.03,12.38.03,7.99S3.61.03,7.99.03s7.96,3.57,7.96,7.96-3.57,7.96-7.96,7.96ZM7.99.43C3.83.43.43,3.83.43,7.99s3.39,7.56,7.56,7.56,7.56-3.39,7.56-7.56S12.16.43,7.99.43Z"/>
      <g>
        <path class="cls-1" d="M12.67,3.75s0-.05,0-.07c0-.55-.57-.48-.95-.48h-6.01c-.28,0-.74-.08-.97.12-.24.22-.17.67-.17.96v7.17c-.38,0-.75.06-1.03.37-.39.43-.38,1.12.03,1.53.3.31.69.35,1.09.35,0,0,.01,0,.02,0,0,0,0,0,.02,0,.14,0,.28,0,.41,0h4.91c.43,0,.9.05,1.33-.03.02,0,.03-.01.04-.01,0,0,0,0,0,0,.03,0,.04-.01.06-.02.52-.13.96-.5,1.13-1.02.07-.2.07-.41.07-.63,0-1.41,0-2.82,0-4.23,0-1.34.03-2.68,0-4.01ZM6.29,13.3h-1.7c-.23,0-.46-.01-.65-.17-.52-.41-.23-1.23.4-1.29.11-.01.22,0,.33,0,0,0,0,0,.01,0h5.88c-.16.17-.28.37-.31.62-.04.35.09.62.3.82h-4.27ZM12.24,12.39c-.1.46-.46.76-.89.87-.02,0-.03,0-.05,0-.1-.02-.19-.05-.28-.09-.28-.13-.41-.37-.36-.68.06-.4.45-.61.82-.62.26,0,.26-.4,0-.4h-6.5V3.79c0-.24.21-.19.39-.19h5.88c.09,0,1.01-.08,1.01.08,0,1.02,0,2.03,0,3.05v4.62c0,.33.05.71-.02,1.04Z"/>
        <path class="cls-1" d="M3.37,11.08s.02.01.03.02c.02,0,.03,0,.04,0,.02,0,.03.01.04,0,.01,0,.02-.02.03-.02,0,0,0,0,0,0,.22-.09.25-.37.3-.58.06-.25.12-.49.17-.74.06-.29.02-.61.02-.9v-3.45c0-.37.04-.85-.41-.96-.28-.07-.59.02-.69.31-.05.14-.05.3-.05.45v3.32c0,.37-.02.75,0,1.11.02.26.11.53.18.79.05.22.08.55.31.65,0,0,.01,0,.02,0ZM3.3,5.54h.3v.08h-.3v-.08ZM3.21,4.81c.07-.11.27-.12.38-.06.11.07.11.19.11.31,0,.03,0,.05,0,.08h-.53c0-.11-.01-.25.04-.33ZM3.18,9.64c-.03-.25,0-.51,0-.76v-2.86h.53v2.46c0,.36.02.73,0,1.09-.01.17-.07.34-.1.51-.04.15-.07.31-.11.46,0,.03-.02.14-.05.21-.07-.12-.11-.46-.13-.53-.04-.19-.11-.39-.13-.58Z"/>
        <path class="cls-1" d="M8.67,9.1s.01,0,0,0h0Z"/>
        <path class="cls-1" d="M6.78,7.63c.27.47.67.88,1.14,1.17.2.13.47.29.71.3.02,0,.03,0,.04,0,0,0,.01,0,.04,0,.07,0,.13-.02.19-.05.16-.05.3-.14.44-.22.92-.57,1.49-1.49,1.61-2.56.05-.41.14-1.05-.31-1.27-.17-.08-.36-.04-.54-.1-.27-.09-.44-.3-.68-.43-.21-.12-.48-.08-.72-.08-.25,0-.53-.05-.76.04-.22.08-.38.28-.59.39-.21.11-.42.1-.64.16-.49.14-.42.76-.39,1.15.04.53.18,1.05.45,1.51ZM6.93,5.33c.38-.05.67-.18.98-.41.07-.05.13-.12.22-.15.09-.03.21,0,.3,0,.23,0,.47-.03.69,0,.19.02.32.18.47.29.17.11.36.21.56.25.13.03.34-.02.42.11.09.15.03.44.02.61-.06,1.01-.57,1.91-1.44,2.44-.15.09-.33.22-.5.21-.18,0-.38-.14-.53-.24-.35-.22-.66-.52-.9-.86-.24-.36-.39-.76-.46-1.18-.04-.21-.04-.43-.05-.64,0-.2-.03-.39.21-.42Z"/>
        <path class="cls-1" d="M10.56,10.5h-3.88c-.26,0-.26.4,0,.4h3.88c.26,0,.26-.4,0-.4Z"/>
        <path class="cls-1" d="M11.19,9.68h-5.14c-.26,0-.26.4,0,.4h5.14c.26,0,.26-.4,0-.4Z"/>
      </g>
      <g>
        <path class="cls-1" d="M8.34,6.67s0,0,0,0c.04-.02.07-.05.1-.09.03-.03.05-.07.06-.12.01-.04.02-.09.02-.15,0-.07-.01-.13-.04-.19-.03-.06-.06-.1-.11-.14-.04-.04-.1-.07-.16-.09-.12-.04-.28-.04-.41,0-.06.02-.12.05-.17.09-.05.04-.09.09-.13.15-.03.06-.05.13-.07.21v.05s.15.03.15.03c.04,0,.07,0,.1-.01.03-.02.05-.04.06-.09,0-.03.02-.05.03-.08.01-.02.03-.04.05-.06.02-.02.05-.03.07-.04.06-.02.13-.02.18,0,.03,0,.05.02.07.04.02.02.03.04.04.06.01.03.02.06.02.1,0,.03,0,.06-.02.09,0,.02-.02.05-.05.06-.02.02-.06.04-.1.05-.04.01-.1.02-.16.02h-.05v.25h.05c.08,0,.14,0,.19.02.04.01.08.03.1.05.02.02.04.04.04.07,0,.03.01.06.01.1,0,.03,0,.06-.02.08-.01.03-.03.05-.05.08-.02.02-.05.04-.08.06-.07.03-.18.03-.24,0-.03-.01-.06-.03-.08-.05-.02-.02-.04-.05-.05-.07-.01-.03-.03-.05-.04-.07-.02-.04-.05-.06-.08-.06-.03,0-.07,0-.1.01l-.13.06v.04c.03.06.06.12.08.18.03.06.07.1.11.14.05.04.1.07.17.1s.14.03.23.03c.08,0,.15-.01.22-.03.07-.02.13-.06.18-.1.05-.04.1-.1.13-.17.03-.06.05-.14.05-.22,0-.11-.03-.2-.09-.27-.04-.04-.08-.08-.14-.11Z"/>
        <path class="cls-1" d="M9.85,6.34c-.03-.11-.08-.2-.13-.27-.06-.07-.12-.13-.2-.16-.15-.07-.34-.07-.49,0-.08.04-.14.09-.2.16-.06.07-.1.16-.13.27-.03.11-.05.23-.05.37s.02.27.05.37c.03.11.07.2.13.27.06.07.12.13.2.16.08.04.16.05.25.05s.17-.02.25-.05c.08-.04.15-.09.2-.16.06-.07.1-.16.13-.27.03-.11.05-.23.05-.37s-.02-.27-.05-.37ZM9.58,6.72c0,.12,0,.21-.03.29h0c-.02.07-.04.13-.07.18-.03.04-.06.07-.09.09-.07.04-.16.04-.23,0-.04-.02-.07-.05-.09-.09-.03-.04-.05-.1-.07-.18-.02-.08-.03-.17-.03-.29s0-.21.03-.29c.02-.07.04-.13.07-.18.03-.04.06-.07.09-.09s.07-.03.11-.03.08,0,.11.03c.04.02.07.05.09.09.03.04.05.1.07.18.02.08.03.17.03.29Z"/>
      </g>
    </g>
  </g>
</svg>