<svg width="12" height="15" viewBox="0 0 12 15" fill="none" xmlns="http://www.w3.org/2000/svg">
<path fill-rule="evenodd" clip-rule="evenodd" d="M4.93003 5.68016C4.94003 5.72016 4.96003 5.77016 4.98003 5.82016H5.01003C5.06023 5.83689 5.11042 5.85362 5.14305 5.87621C5.13069 5.85721 5.11786 5.83869 5.10503 5.82016C5.08253 5.78766 5.06003 5.75516 5.04003 5.72016C5.03203 5.70416 5.02083 5.68816 5.00964 5.67216C4.99284 5.64816 4.97603 5.62416 4.97003 5.60016C4.95003 5.52016 5.00003 5.42016 5.09003 5.41016C5.12753 5.40266 5.16503 5.41203 5.20253 5.42141C5.21503 5.42453 5.22753 5.42766 5.24003 5.43016C5.29003 5.44516 5.34253 5.45766 5.39503 5.47016C5.44753 5.48266 5.50003 5.49516 5.55003 5.51016C5.57003 5.45516 5.59253 5.40266 5.61503 5.35016C5.63753 5.29766 5.66003 5.24516 5.68003 5.19016C5.68604 5.17362 5.69206 5.15506 5.69841 5.13544C5.73431 5.02456 5.78107 4.88016 5.90003 4.88016C6.01515 4.88016 6.06265 5.02214 6.09814 5.12821C6.1058 5.15109 6.11293 5.17241 6.12003 5.19016C6.14003 5.24516 6.16253 5.29766 6.18503 5.35016C6.20753 5.40266 6.23003 5.45516 6.25003 5.51016L6.55003 5.43016C6.56337 5.42682 6.5767 5.42238 6.59003 5.41793C6.6167 5.40905 6.64337 5.40016 6.67003 5.40016C6.76003 5.39016 6.84003 5.45016 6.84003 5.54016C6.84003 5.59016 6.82003 5.63016 6.79003 5.67016L6.67003 5.85016L6.64003 5.87016C6.62231 5.89295 6.60586 5.91895 6.58924 5.94523C6.54022 6.02273 6.48964 6.10269 6.40003 6.11016C6.29003 6.09016 6.23003 5.98016 6.29003 5.88016C6.30003 5.87016 6.30753 5.85766 6.31503 5.84516C6.32253 5.83266 6.33003 5.82016 6.34003 5.81016C6.21003 5.85016 6.07003 5.88016 6.01003 5.75016C5.99004 5.70018 5.97005 5.64771 5.95006 5.59523C5.93006 5.54273 5.91003 5.49016 5.89003 5.44016C5.88021 5.46716 5.87099 5.49357 5.86193 5.51952C5.8341 5.59926 5.80775 5.67471 5.77003 5.75016C5.72003 5.87016 5.58003 5.85016 5.45003 5.81016C5.51003 5.90016 5.55003 6.01016 5.45003 6.08016C5.38349 6.12622 5.32743 6.10679 5.2805 6.06477C5.30019 6.11677 5.31003 6.17248 5.31003 6.23016V7.22016C5.31003 7.32016 5.27003 7.41016 5.16003 7.42016H5.04003V7.78016C5.04003 7.83016 5.04003 7.87016 5.02003 7.92016C4.98003 8.02016 4.89003 8.09016 4.78003 8.09016H4.34003C4.21003 8.08016 4.10003 7.98016 4.09003 7.85016V7.42016H3.41003C3.40017 7.42016 3.39003 7.42043 3.37976 7.4207C3.32755 7.42209 3.27181 7.42358 3.23003 7.39016C3.11003 7.31016 3.18003 7.13016 3.32003 7.13016H4.99003V6.23016C4.99003 6.14016 4.93003 6.12016 4.86003 6.10016H4.03003C3.95003 6.10016 3.87003 6.10127 3.79003 6.10238C3.63004 6.1046 3.47002 6.10682 3.31003 6.10016C3.11003 6.08016 3.12003 5.81016 3.31003 5.80016H4.67003C4.66003 5.77516 4.65003 5.74766 4.64003 5.72016C4.63003 5.69266 4.62003 5.66516 4.61003 5.64016C4.56246 5.48159 4.50861 5.32931 4.45345 5.17334L4.41003 5.05016C4.38003 4.96016 4.32003 4.91016 4.22003 4.91016H3.35003C3.28003 4.91016 3.21003 4.90016 3.17003 4.83016C3.12003 4.72016 3.20003 4.61016 3.31003 4.61016H3.84003C3.887 4.61016 3.93655 4.60757 3.98717 4.60493C4.10899 4.59858 4.237 4.5919 4.35003 4.62016C4.49003 4.65016 4.62003 4.76016 4.67003 4.90016C4.68003 4.92516 4.68753 4.95266 4.69503 4.98016C4.70253 5.00766 4.71003 5.03516 4.72003 5.06016C4.75503 5.16515 4.79003 5.26765 4.82503 5.37015C4.86002 5.47263 4.89504 5.57517 4.93003 5.68016ZM4.72003 7.78016V7.41016H4.36003V7.78016H4.72003Z" fill="#FF5800"/>
<path fill-rule="evenodd" clip-rule="evenodd" d="M4.47003 7.02016C4.64003 7.02016 4.79003 6.91016 4.85003 6.75016C4.91003 6.59016 4.86003 6.40016 4.73003 6.29016C4.60003 6.18016 4.41003 6.16016 4.26003 6.25016C4.11003 6.34016 4.04003 6.51016 4.07003 6.68016C4.10003 6.87016 4.28003 7.01016 4.47003 7.02016ZM4.51003 6.49016C4.51003 6.49016 4.53003 6.49016 4.53003 6.50016C4.53003 6.50016 4.53003 6.51016 4.54003 6.52016V6.59016C4.54003 6.59016 4.54003 6.60016 4.53003 6.61016L4.51003 6.63016H4.50003C4.50003 6.63016 4.48003 6.64016 4.49003 6.63016H4.42003C4.42003 6.63016 4.41003 6.63016 4.40003 6.61016C4.40003 6.61016 4.40003 6.60016 4.39003 6.59016V6.52016C4.39003 6.52016 4.39003 6.51016 4.41003 6.50016H4.46003L4.45003 6.49016H4.51003Z" fill="#FF5800"/>
<path d="M3.37359 6.58985L3.40003 6.59016H3.53003V6.49016H3.41003C3.39841 6.49016 3.38603 6.49053 3.37327 6.49092C3.32016 6.49253 3.26035 6.49434 3.22003 6.47016C3.12003 6.41016 3.13003 6.26016 3.24003 6.21016C3.28003 6.20016 3.38003 6.20016 3.38003 6.20016H3.59003C3.60706 6.20016 3.62409 6.19899 3.64073 6.19786C3.67291 6.19566 3.70368 6.19357 3.73003 6.20016C3.78003 6.21016 3.83003 6.26016 3.83003 6.31016V6.73016C3.83003 6.82016 3.77003 6.89016 3.68003 6.89016H3.29003C3.17003 6.88016 3.09003 6.74016 3.18003 6.64016C3.23271 6.58748 3.30851 6.58876 3.37359 6.58985Z" fill="#FF5800"/>
<path fill-rule="evenodd" clip-rule="evenodd" d="M8.68003 7.29016C8.69003 7.22016 8.65003 7.15016 8.58003 7.13016C8.54635 7.12342 8.50812 7.12576 8.47147 7.128C8.45373 7.12909 8.43634 7.13016 8.42003 7.13016H6.88003V6.23016C6.88003 6.20016 6.88003 6.18016 6.90003 6.16016C6.93003 6.12016 6.96003 6.11016 7.00003 6.11016C7.16003 6.11682 7.32003 6.1146 7.48003 6.11238C7.56003 6.11127 7.64003 6.11016 7.72003 6.11016H8.57003C8.76003 6.09016 8.76003 5.82016 8.57003 5.81016H7.21003L7.24003 5.72016C7.27503 5.62017 7.31002 5.51768 7.34502 5.4152C7.38002 5.3127 7.41503 5.21015 7.45003 5.11016L7.45997 5.08297C7.48535 5.01263 7.50912 4.94675 7.58003 4.92016C7.6179 4.90501 7.67297 4.90707 7.72353 4.90896C7.73971 4.90957 7.75549 4.91016 7.77003 4.91016H8.58003C8.71003 4.91016 8.78003 4.74016 8.68003 4.65016C8.63003 4.61016 8.57003 4.61016 8.51003 4.61016H7.65003C7.41003 4.61016 7.26003 4.76016 7.19003 4.98016C7.1603 5.06936 7.12876 5.15857 7.09694 5.24855C7.05389 5.37033 7.01028 5.49366 6.97003 5.62016C6.95003 5.67016 6.92003 5.75016 6.90003 5.83016C6.81003 5.86016 6.72003 5.93016 6.68003 5.98016C6.61003 6.08016 6.60003 6.18016 6.60003 6.30016V7.10016C6.60003 7.11681 6.59917 7.13563 6.59824 7.15562C6.59474 7.23166 6.59045 7.32474 6.63003 7.38016C6.68003 7.44016 6.74003 7.44016 6.81003 7.44016H6.86003V7.87016C6.87003 8.00016 6.98003 8.10016 7.11003 8.11016H7.55003C7.66003 8.11016 7.75003 8.04016 7.79003 7.94016C7.81003 7.89016 7.81003 7.85016 7.81003 7.80016V7.44016H8.58003C8.65003 7.44016 8.71003 7.39016 8.72003 7.31016L8.68003 7.29016ZM7.47003 7.78016H7.11003V7.41016H7.47003V7.78016Z" fill="#FF5800"/>
<path fill-rule="evenodd" clip-rule="evenodd" d="M6.95003 6.68016C6.92003 6.51016 6.99003 6.34016 7.14003 6.25016C7.29003 6.16016 7.48003 6.18016 7.61003 6.29016C7.74003 6.40016 7.79003 6.59016 7.73003 6.75016C7.67003 6.91016 7.52003 7.02016 7.35003 7.02016C7.16003 7.01016 6.98003 6.87016 6.95003 6.68016ZM7.34003 6.72016L7.35003 6.73016H7.39003C7.38003 6.74016 7.40003 6.73016 7.40003 6.73016H7.41003L7.43003 6.71016C7.44003 6.70016 7.44003 6.69016 7.44003 6.69016V6.62016C7.43003 6.61016 7.43003 6.60016 7.43003 6.60016C7.43003 6.59016 7.41003 6.59016 7.41003 6.59016H7.30003C7.28003 6.60016 7.28003 6.61016 7.28003 6.61016V6.68016C7.29003 6.69016 7.29003 6.70016 7.29003 6.70016C7.30003 6.72016 7.31003 6.72016 7.31003 6.72016H7.34003Z" fill="#FF5800"/>
<path d="M8.44003 6.49016H8.53003C8.59003 6.49016 8.64003 6.46016 8.66003 6.41016C8.69003 6.34016 8.66003 6.27016 8.61003 6.22016C8.58003 6.20016 8.54003 6.19016 8.51003 6.19016H8.27003C8.25562 6.19016 8.24005 6.18958 8.22388 6.18898C8.17276 6.18708 8.11561 6.18496 8.07003 6.20016C8.02003 6.22016 7.99003 6.28016 7.99003 6.34016V6.73016C7.99003 6.79016 8.03003 6.85016 8.09003 6.87016H8.53003C8.63003 6.87016 8.70003 6.77016 8.67003 6.67016C8.64003 6.60016 8.58003 6.57016 8.51003 6.57016H8.28003V6.47016H8.43003L8.44003 6.49016Z" fill="#FF5800"/>
<path d="M5.95003 6.07016C5.85003 6.04016 5.76003 6.12016 5.76003 6.21016V6.72016C5.76003 6.81016 5.81003 6.88016 5.91003 6.89016C6.00003 6.89016 6.06003 6.82016 6.06003 6.73016V6.22016C6.06003 6.15016 6.03003 6.08016 5.96003 6.06016L5.95003 6.07016Z" fill="#FF5800"/>
<path d="M5.77003 7.17016C5.76003 7.11016 5.79003 7.04016 5.84003 7.01016L5.83003 7.03016C5.89003 6.99016 5.95003 7.00016 6.00003 7.04016C6.05003 7.08016 6.07003 7.14016 6.05003 7.20016C6.04003 7.24016 6.02003 7.26016 5.99003 7.28016C5.98003 7.29016 5.97003 7.29016 5.97003 7.29016H5.91003C5.84003 7.29016 5.78003 7.24016 5.77003 7.17016Z" fill="#FF5800"/>
<path fill-rule="evenodd" clip-rule="evenodd" d="M10.37 3.32016C10.36 5.33016 9.87003 7.35016 8.60003 8.94016H8.61003C8.01003 9.70016 7.24003 10.3502 6.37003 10.7702C6.34618 10.7821 6.32117 10.7955 6.29529 10.8093C6.16928 10.8767 6.02277 10.955 5.89003 10.9302C5.72738 10.894 5.5484 10.7925 5.39735 10.7069L5.35003 10.6802C4.41003 10.1802 3.60003 9.42016 2.99003 8.55016C1.92003 7.02016 1.51003 5.16016 1.51003 3.32016C1.51003 3.21016 1.60003 3.12016 1.71003 3.12016C2.76003 3.11016 3.74003 2.50016 4.54003 1.86016C4.99003 1.50016 5.43003 1.10016 5.80003 0.660156C5.84003 0.610156 5.89003 0.600156 5.94003 0.600156C5.99003 0.590156 6.04003 0.610156 6.08003 0.660156C6.46003 1.10016 6.89003 1.50016 7.34003 1.86016C8.14003 2.51016 9.11003 3.11016 10.17 3.12016C10.28 3.12016 10.37 3.21016 10.37 3.32016ZM5.94003 10.5202H5.96003C5.99503 10.5052 5.99253 10.5052 5.99128 10.5052C5.99003 10.5052 5.99003 10.5052 6.03003 10.4902C6.08503 10.4602 6.14003 10.4327 6.19504 10.4052C6.25003 10.3777 6.30503 10.3502 6.36003 10.3202L6.38003 10.3302C7.26003 9.85016 8.02003 9.15016 8.59003 8.33016C9.57003 6.91016 9.96003 5.21016 9.99003 3.50016C8.96003 3.42016 8.02003 2.88016 7.22003 2.26016C6.77003 1.91016 6.34003 1.52016 5.96003 1.09016C5.58003 1.52016 5.15003 1.91016 4.70003 2.26016C3.90003 2.89016 2.96003 3.42016 1.93003 3.50016C1.96003 5.35016 2.43003 7.23016 3.61003 8.70016C4.18003 9.41016 4.90003 10.0202 5.72003 10.4202C5.74502 10.4302 5.77251 10.4426 5.79999 10.4551C5.82749 10.4676 5.85503 10.4802 5.88003 10.4902C5.91003 10.5052 5.90753 10.5027 5.90628 10.5014C5.90642 10.5012 5.91127 10.5037 5.94003 10.5202Z" fill="#FF5800"/>
<path d="M4.32003 13.1002C4.32003 13.1002 4.34003 13.1502 4.37003 13.1502H4.62003L4.64003 13.1302C4.64003 13.1302 4.67003 13.1302 4.67003 13.1002V11.7002C4.67003 11.6179 4.62531 11.5748 4.57348 11.5248C4.55599 11.508 4.53769 11.4903 4.52003 11.4702L3.95003 10.9002C3.88556 10.8337 3.8215 10.7672 3.75751 10.7008C3.5039 10.4376 3.25153 10.1757 2.98003 9.92016C2.71003 9.66016 2.30003 9.68016 2.04003 9.95016C1.79003 10.2102 1.79003 10.6002 2.04003 10.8702C2.25251 11.1014 2.47281 11.3209 2.69359 11.5409L2.69446 11.5418C2.82667 11.6735 2.95905 11.8054 3.09003 11.9402C3.11003 11.9602 3.14003 11.9602 3.16003 11.9402L3.34003 11.7602C3.36003 11.7402 3.36003 11.7102 3.34003 11.6902C3.20003 11.5501 3.06002 11.4076 2.92001 11.2651C2.78002 11.1226 2.64003 10.9802 2.50003 10.8402C2.47753 10.8158 2.45186 10.7907 2.42527 10.7647C2.31007 10.6521 2.17754 10.5226 2.21003 10.3602C2.26003 10.1302 2.54003 10.0002 2.73003 10.1702C2.75053 10.1838 2.76636 10.2022 2.78072 10.2188C2.78737 10.2265 2.7937 10.2338 2.80003 10.2402C3.11003 10.5602 3.43003 10.8802 3.74003 11.1902L4.19003 11.6502C4.19003 11.6502 4.26003 11.7302 4.30003 11.7702V11.8002C4.28001 12.0872 4.28672 12.3787 4.29339 12.6687C4.29672 12.8131 4.30003 12.9572 4.30003 13.1002H4.32003Z" fill="#FF5800"/>
<path d="M2.52003 13.1502C2.49075 13.1502 2.47096 13.1024 2.47003 13.1002C2.47022 13.0727 2.4712 13.0512 2.47197 13.0336C2.47338 13.0014 2.47421 12.9824 2.46884 12.9653C2.46112 12.9409 2.44058 12.9204 2.3905 12.8706L2.37003 12.8502C2.30003 12.7752 2.22753 12.7027 2.15503 12.6302C2.08253 12.5577 2.01003 12.4852 1.94003 12.4102C1.87987 12.35 1.81972 12.2905 1.75971 12.2311C1.58034 12.0536 1.40238 11.8775 1.23003 11.6902C0.840033 11.2602 0.630033 10.7102 0.630033 10.1302V9.40016C0.630033 9.19016 0.626699 8.98016 0.623366 8.77016C0.616699 8.35016 0.610033 7.93016 0.630033 7.51016C0.650033 7.05016 1.12003 6.71016 1.55003 6.93016C1.85003 7.08016 1.90003 7.38016 1.90003 7.69016V9.60016C1.90003 9.63016 1.85003 9.65016 1.85003 9.65016H1.60003C1.57003 9.65016 1.55003 9.60016 1.55003 9.60016V7.50016C1.50003 7.13016 1.03003 7.13016 0.980032 7.50016V7.54016C0.966636 7.69422 0.971186 7.85725 0.975651 8.01723C0.977852 8.09609 0.980032 8.17422 0.980032 8.25016V10.0802C0.980032 10.6002 1.15003 11.0802 1.51003 11.4602C1.66002 11.6201 1.82001 11.7801 1.98 11.9401C2.09499 12.0551 2.21002 12.1726 2.32502 12.2901C2.43998 12.4076 2.55507 12.5252 2.67003 12.6402C2.82257 12.7927 2.82214 12.8406 2.82044 13.0294C2.82024 13.051 2.82003 13.0745 2.82003 13.1002C2.82003 13.1302 2.79003 13.1302 2.79003 13.1302L2.77003 13.1502H2.52003Z" fill="#FF5800"/>
<path d="M9.16501 11.1502C9.00758 11.3101 8.84996 11.4702 8.69003 11.6302C8.67003 11.6502 8.67003 11.6802 8.69003 11.7002L8.87003 11.8802C8.89003 11.9002 8.92003 11.9002 8.94003 11.8802C9.27003 11.5402 9.61003 11.2002 9.94003 10.8702C10.15 10.6602 10.25 10.3902 10.13 10.1002C9.99003 9.77016 9.59003 9.58016 9.25003 9.73016C9.12193 9.7862 9.02588 9.88712 8.93108 9.98672C8.9075 10.0115 8.88393 10.0363 8.86003 10.0602C8.76003 10.1602 8.66002 10.2627 8.56002 10.3652C8.46002 10.4677 8.36003 10.5702 8.26003 10.6702C8.05003 10.8802 7.84003 11.0902 7.64003 11.3002C7.62126 11.3189 7.59602 11.3406 7.56855 11.3641C7.49358 11.4284 7.40199 11.507 7.38003 11.5802C7.3665 11.6208 7.37128 11.6797 7.37579 11.7352C7.37794 11.7617 7.38003 11.7875 7.38003 11.8102V13.0302C7.38003 13.0302 7.40003 13.0802 7.43003 13.0802H7.68003C7.68003 13.0802 7.70003 13.0602 7.70003 13.0502C7.70003 13.0502 7.73003 13.0502 7.73003 13.0302V11.7002C7.74398 11.6932 7.75306 11.6813 7.76067 11.6714C7.76398 11.6671 7.767 11.6632 7.77003 11.6602L8.16003 11.2702C8.49003 10.9302 8.83003 10.5902 9.16003 10.2602C9.17249 10.2477 9.18514 10.2347 9.19801 10.2214C9.31934 10.0966 9.46016 9.95166 9.65003 10.0602C9.83003 10.1602 9.89003 10.4002 9.75003 10.5602C9.73033 10.5864 9.70631 10.6084 9.68081 10.6317C9.66748 10.6439 9.65376 10.6564 9.64003 10.6702C9.48009 10.8301 9.32246 10.9902 9.16501 11.1502Z" fill="#FF5800"/>
<path d="M10.84 6.80016C11.2 6.84016 11.41 7.15016 11.41 7.49016L11.39 7.50016C11.3967 7.97309 11.3945 8.44158 11.3923 8.91155C11.3911 9.14704 11.39 9.38318 11.39 9.62016C11.39 9.68483 11.3913 9.75012 11.3925 9.81572C11.3963 10.0138 11.4001 10.2148 11.37 10.4102C11.3 10.9202 11.06 11.3702 10.7 11.7302C10.58 11.8552 10.4575 11.9777 10.335 12.1002C10.2125 12.2227 10.09 12.3452 9.97003 12.4702C9.91005 12.5301 9.85257 12.5901 9.7951 12.6501C9.73762 12.7101 9.68001 12.7702 9.62003 12.8302C9.61398 12.8362 9.60519 12.8432 9.59558 12.8508C9.57568 12.8665 9.55228 12.8851 9.54271 12.9038C9.55003 12.9004 9.55003 13.0331 9.55003 13.0602C9.55003 13.0802 9.52003 13.0802 9.52003 13.0802C9.52003 13.0902 9.50003 13.1102 9.50003 13.1102H9.25003C9.22003 13.1102 9.20003 13.0902 9.20003 13.0602C9.20003 13.0371 9.19806 13.0108 9.19598 12.9828C9.18991 12.9017 9.18284 12.8071 9.22003 12.7402C9.24858 12.6831 9.30768 12.6311 9.361 12.5842C9.38238 12.5653 9.40286 12.5473 9.42003 12.5302C9.69003 12.2502 9.96003 11.9802 10.23 11.7102C10.267 11.6714 10.3042 11.6334 10.3414 11.5954C10.5153 11.4176 10.6864 11.2427 10.81 11.0202C11 10.6802 11.05 10.3202 11.05 9.94016V7.99016C11.05 7.93016 11.0523 7.86904 11.0545 7.80793C11.0589 7.68572 11.0634 7.56348 11.05 7.45016C11 7.07016 10.53 7.08016 10.48 7.45016V9.54016C10.48 9.57016 10.43 9.59016 10.43 9.59016H10.18C10.15 9.59016 10.13 9.57016 10.13 9.54016C10.13 9.30983 10.1289 9.08062 10.1278 8.85177C10.1256 8.39516 10.1234 7.93973 10.13 7.48015C10.14 7.09016 10.43 6.76016 10.84 6.80016Z" fill="#FF5800"/>
<path d="M2.29003 13.3902C2.29003 13.3902 2.24003 13.4102 2.24003 13.4402V14.0302C2.24003 14.0302 2.26003 14.0802 2.29003 14.0802H2.54003C2.54003 14.0802 2.59003 14.0602 2.59003 14.0302V13.7402H4.54003V14.0302C4.54003 14.0302 4.56003 14.0802 4.59003 14.0802H4.84003C4.84003 14.0802 4.86003 14.0602 4.86003 14.0502C4.86003 14.0502 4.89003 14.0502 4.89003 14.0302V13.4402C4.89003 13.4402 4.87003 13.3902 4.84003 13.3902H2.29003Z" fill="#FF5800"/>
<path d="M9.74003 13.3202C9.77003 13.3202 9.79003 13.3702 9.79003 13.3702V13.9602C9.79003 13.9802 9.76003 13.9802 9.76003 13.9802C9.76003 13.9902 9.74003 14.0102 9.74003 14.0102H9.49003C9.46003 14.0102 9.44003 13.9602 9.44003 13.9602V13.6702H7.49003V13.9602C7.49003 13.9902 7.44003 14.0102 7.44003 14.0102H7.19003C7.16003 14.0102 7.14003 13.9602 7.14003 13.9602V13.3702C7.14003 13.3402 7.19003 13.3202 7.19003 13.3202H9.74003Z" fill="#FF5800"/>
</svg>
