<svg width="16" height="16" viewBox="0 0 16 16" fill="none" xmlns="http://www.w3.org/2000/svg">
<path d="M11.62 7.18016L10.99 6.93016L11.2 6.62016C11.25 6.55016 11.24 6.46016 11.2 6.39016C11.15 6.32016 11.07 6.29016 10.99 6.31016L10.47 6.44016L10.19 5.74016C10.13 5.59016 9.87997 5.59016 9.81997 5.74016L9.53997 6.44016L9.01997 6.31016C8.93997 6.29016 8.85997 6.31016 8.81997 6.38016C8.76997 6.44016 8.75997 6.52016 8.79997 6.59016L9.04997 7.08016L8.38997 7.34016C8.30997 7.37016 8.25997 7.46016 8.26997 7.54016C8.26997 7.63016 8.33997 7.70016 8.42997 7.72016L9.28997 7.89016C9.39997 7.91016 9.49997 7.84016 9.52997 7.73016C9.54997 7.62016 9.47997 7.52016 9.36997 7.49016L9.16997 7.45016L9.39997 7.36016C9.44997 7.34016 9.48997 7.30016 9.50997 7.25016C9.52997 7.20016 9.52997 7.14016 9.50997 7.09016L9.35997 6.79016L9.61997 6.86016C9.71997 6.89016 9.81997 6.83016 9.84997 6.74016L10.01 6.35016L10.17 6.74016C10.21 6.83016 10.3 6.89016 10.4 6.86016L10.58 6.81016L10.52 6.89016C10.49 6.94016 10.48 7.00016 10.49 7.06016C10.51 7.12016 10.55 7.16016 10.61 7.19016L11.05 7.37016L10.76 7.51016C10.67 7.55016 10.63 7.66016 10.66 7.75016L10.7 7.89016L10.57 7.85016C10.46 7.81016 10.35 7.87016 10.32 7.98016C10.28 8.08016 10.34 8.20016 10.45 8.23015L10.96 8.40016C10.96 8.40016 11 8.41016 11.02 8.41016C11.07 8.41016 11.12 8.39016 11.16 8.35016C11.21 8.30016 11.23 8.22016 11.21 8.15016L11.09 7.80016L11.62 7.53016C11.69 7.49016 11.73 7.42016 11.73 7.34016C11.73 7.26016 11.68 7.19016 11.6 7.16016L11.62 7.18016Z" fill="#FF5800"/>
<path d="M10.39 9.10016L10.385 9.10022L10.38 9.10016H10.39Z" fill="#FF5800"/>
<path fill-rule="evenodd" clip-rule="evenodd" d="M10.385 9.10022C10.4927 9.1029 10.58 9.19183 10.58 9.30016V10.0102C10.58 10.1202 10.49 10.2102 10.38 10.2102H10.23V10.5802C10.23 10.7702 10.08 10.9202 9.88997 10.9202H9.28997C9.09997 10.9202 8.94997 10.7702 8.94997 10.5802V10.2102H6.51997V10.5802C6.51997 10.7702 6.36997 10.9202 6.17997 10.9202H5.57997C5.38997 10.9202 5.23997 10.7702 5.23997 10.5802V10.2102H5.08997C4.97997 10.2102 4.88997 10.1202 4.88997 10.0102V8.60016C4.88997 8.35016 5.05997 8.15016 5.28997 8.08016L5.69997 6.74016C5.76997 6.47016 6.01997 6.28016 6.29997 6.28016H8.44997C8.55997 6.28016 8.64997 6.37016 8.64997 6.48016C8.64997 6.59016 8.55997 6.68016 8.44997 6.68016H6.29997C6.19997 6.68016 6.10997 6.75016 6.07997 6.85016L5.70997 8.05016H8.79997C8.90998 8.05016 8.99997 8.14016 8.99997 8.25016C8.99997 8.36016 8.90998 8.45016 8.79997 8.45016H5.43997C5.35997 8.45016 5.28997 8.52016 5.28997 8.60016V9.81016H10.19V9.30016C10.19 9.19183 10.2773 9.1029 10.385 9.10022ZM6.11997 10.5202H5.63997V10.2102H6.11997V10.5202ZM9.82997 10.5202H9.34997V10.2102H9.82997V10.5202Z" fill="#FF5800"/>
<path d="M9.49997 8.97016C9.60997 8.97016 9.69997 8.88016 9.69997 8.77016C9.69997 8.66016 9.60997 8.57016 9.49997 8.57016C9.18997 8.57016 8.94997 8.82016 8.94997 9.12016C8.94997 9.42016 9.19997 9.67016 9.49997 9.67016C9.79997 9.67016 10.05 9.42016 10.05 9.12016C10.05 9.01016 9.95998 8.92016 9.84997 8.92016C9.73997 8.92016 9.64997 9.01016 9.64997 9.12016C9.64997 9.20016 9.57997 9.27016 9.49997 9.27016C9.41997 9.27016 9.34997 9.20016 9.34997 9.12016C9.34997 9.04016 9.41997 8.97016 9.49997 8.97016Z" fill="#FF5800"/>
<path fill-rule="evenodd" clip-rule="evenodd" d="M5.95997 9.68016C5.65997 9.68016 5.40997 9.44016 5.40997 9.13016C5.40997 8.83016 5.65997 8.58016 5.95997 8.58016C6.25997 8.58016 6.50997 8.83016 6.50997 9.13016C6.50997 9.43016 6.25997 9.68016 5.95997 9.68016ZM5.96997 9.28016C6.04997 9.28016 6.11997 9.21016 6.11997 9.13016C6.11997 9.05016 6.04997 8.98016 5.96997 8.98016C5.88997 8.98016 5.81997 9.05016 5.81997 9.13016C5.81997 9.21016 5.88997 9.28016 5.96997 9.28016Z" fill="#FF5800"/>
<path fill-rule="evenodd" clip-rule="evenodd" d="M7.02997 8.57016C6.91997 8.57016 6.82997 8.66016 6.82997 8.77016V9.30016C6.82997 9.41016 6.91997 9.50016 7.02997 9.50016H8.43997C8.54997 9.50016 8.63997 9.41016 8.63997 9.30016V8.77016C8.63997 8.66016 8.54997 8.57016 8.43997 8.57016H7.02997ZM8.23997 9.10016H7.22997V8.97016H8.23997V9.10016Z" fill="#FF5800"/>
<path d="M7.00997 7.00016C7.00997 6.89016 7.09997 6.80016 7.20997 6.80016H8.08997C8.19998 6.80016 8.28997 6.89016 8.28997 7.00016C8.28997 7.11016 8.19998 7.20016 8.08997 7.20016H7.20997C7.09997 7.20016 7.00997 7.11016 7.00997 7.00016Z" fill="#FF5800"/>
<path d="M9.80997 7.37016C9.80997 7.26016 9.89997 7.17016 10.01 7.17016C10.12 7.17016 10.21 7.26016 10.21 7.37016V8.06016C10.21 8.17016 10.12 8.26016 10.01 8.26016C9.89997 8.26016 9.80997 8.17016 9.80997 8.06016V7.37016Z" fill="#FF5800"/>
<path d="M9.86997 8.43016C9.86997 8.43016 9.80997 8.52015 9.80997 8.57016C9.80997 8.62016 9.82997 8.67016 9.86997 8.71016C9.89997 8.75016 9.94998 8.77016 10.01 8.77016C10.06 8.77016 10.11 8.75016 10.15 8.71016C10.19 8.67016 10.21 8.62016 10.21 8.57016C10.21 8.52015 10.19 8.47016 10.15 8.43016C10.08 8.35016 9.93997 8.35016 9.86997 8.43016Z" fill="#FF5800"/>
<path fill-rule="evenodd" clip-rule="evenodd" d="M13.12 4.95016C13.17 4.98016 13.2 5.03016 13.2 5.09016L13.19 5.06016C13.48 8.74016 12.04 11.0102 10.78 12.2602C9.41997 13.6202 7.99997 14.1002 7.93997 14.1202C7.91997 14.1302 7.89997 14.1302 7.87997 14.1302H7.81997C7.75997 14.1102 2.01997 12.1202 2.56997 5.07016C2.57997 5.02016 2.60997 4.96016 2.64997 4.93016C2.69997 4.89016 2.74997 4.88016 2.80997 4.89016C2.82997 4.90016 4.94998 5.21016 7.72997 1.95016C7.73997 1.94016 7.75997 1.94016 7.75997 1.94016H7.77997C7.81997 1.92016 7.84997 1.91016 7.88997 1.91016C7.90649 1.91016 7.91997 1.91622 7.9321 1.92167C7.942 1.92612 7.95098 1.93016 7.95997 1.93016C7.96997 1.93516 7.97998 1.93766 7.98998 1.94016C7.99998 1.94266 8.00998 1.94516 8.01998 1.95016V1.96016C8.01998 1.97016 8.03997 1.97016 8.03997 1.97016C10.7431 5.15149 12.8368 4.92352 12.9549 4.91066C12.9578 4.91034 12.96 4.91016 12.96 4.91016C13.02 4.90016 13.08 4.92016 13.12 4.95016ZM2.95997 5.31016C2.57997 11.5402 7.32997 13.5302 7.88997 13.7402L7.89997 13.7302C8.50997 13.5002 13.2 11.4802 12.82 5.31016H12.77C12.09 5.31016 10.21 5.03016 7.88997 2.38016C5.49997 5.10016 3.58997 5.33016 2.95997 5.31016Z" fill="#FF5800"/>
</svg>
