<svg width="81" height="49" viewBox="0 0 81 49" fill="none" xmlns="http://www.w3.org/2000/svg">
<path d="M76.5428 11.8701C76.8927 11.6201 77.2325 11.2305 77.5524 10.7207V10.7109L80.2413 5.69043C79.4117 4.93066 78.472 4.24023 77.4125 3.63086C76.7103 3.22656 75.9773 2.86133 75.2079 2.5332C74.8163 2.36621 74.4152 2.20898 74.0038 2.06055C72.7843 1.63086 71.4948 1.29004 70.1453 1.07031C68.7858 0.84082 67.3962 0.730469 65.9668 0.730469C63.4078 0.730469 61.1288 1.12012 59.1495 1.90039C57.1703 2.68066 55.5009 3.7207 54.1315 5.02051C52.772 6.32031 51.7324 7.81055 51.0326 9.4707C50.3229 11.1309 49.973 12.8408 49.973 14.5908C49.973 16.7705 50.2729 18.6006 50.8727 20.0801C51.4724 21.5605 52.2521 22.8008 53.2218 23.79C54.1914 24.7803 55.291 25.5801 56.5305 26.1904C57.77 26.8008 59.0396 27.3105 60.3391 27.7305C61.6385 28.1504 62.9081 28.5303 64.1476 28.8701C65.3871 29.2109 66.4867 29.6006 67.4563 30.0508C68.4259 30.4902 69.2056 31.0605 69.8054 31.7402C70.4052 32.4307 70.7051 33.3105 70.7051 34.4004C70.7051 36.2803 70.1653 37.6504 69.0757 38.5107C67.9861 39.3809 66.4567 39.8105 64.4974 39.8105C63.038 39.8105 61.7885 39.6104 60.7189 39.2002C59.6493 38.8008 58.7097 38.3506 57.89 37.8604C57.0703 37.3701 56.3306 36.9307 55.6808 36.5205C55.0211 36.1104 54.3813 35.9102 53.7416 35.9102C53.2418 35.9102 52.7919 36.0303 52.3621 36.2607C51.9423 36.5 51.6024 36.8105 51.3724 37.1904L48.1737 42.25C49.0934 43.1709 50.163 44 51.4025 44.75C52.642 45.5 53.9615 46.1504 55.371 46.6904C56.7804 47.2305 58.2399 47.6504 59.7393 47.9502C61.2386 48.25 62.7181 48.4004 64.1676 48.4004C66.8165 48.4004 69.1757 48 71.2549 47.2002C73.3341 46.4004 75.0834 45.3008 76.5028 43.9004C77.9222 42.5107 79.0018 40.8701 79.7516 38.9902C80.5013 37.1104 80.8711 35.0908 80.8711 32.9404C80.8711 30.9902 80.5713 29.3408 79.9714 27.9609C79.3717 26.5908 78.592 25.4209 77.6224 24.4609C76.6527 23.5 75.5432 22.7109 74.2937 22.0908C73.0541 21.4707 71.7747 20.9307 70.4751 20.4707C69.1757 20.0107 67.9061 19.5908 66.6566 19.2207C65.4071 18.8506 64.2975 18.4404 63.3279 17.9902C62.3583 17.54 61.5785 17.0107 60.9788 16.3906C60.64 16.04 60.3969 15.6387 60.2494 15.1865C60.1359 14.8389 60.0791 14.46 60.0791 14.0508C60.0791 12.5801 60.579 11.4102 61.5686 10.5508C62.5582 9.68066 64.0676 9.25 66.0968 9.25C67.2764 9.25 68.3159 9.40039 69.2356 9.71094C70.1553 10.0205 70.975 10.3701 71.6847 10.75C72.2388 11.0469 72.7502 11.3252 73.2189 11.5811L73.6039 11.79C74.1637 12.0908 74.6935 12.25 75.1833 12.25C75.7432 12.25 76.1929 12.1201 76.5428 11.8701Z" fill="#DADBE0"/>
<path d="M9.2887 1.25H0.582031L19.2649 47.8701H29.051L47.7339 1.25H38.9673C38.0776 1.25 37.3179 1.49023 36.6981 1.96973C36.0784 2.4502 35.6586 2.99023 35.4486 3.58984L26.4921 28.5498C26.2622 29.1924 26.0325 29.8662 25.8026 30.5742C25.6426 31.0664 25.4825 31.5742 25.3225 32.0996C24.9326 33.3799 24.5828 34.7197 24.283 36.1299C23.9131 34.7197 23.5332 33.3799 23.1133 32.0996C22.7035 30.8203 22.2837 29.6396 21.8838 28.5498L12.8673 3.58984C12.6074 2.87988 12.1876 2.32031 11.5878 1.88965C10.998 1.45996 10.2284 1.25 9.2887 1.25Z" fill="#DADBE0"/>
</svg>
