<svg width="16" height="16" viewBox="0 0 16 16" fill="none" xmlns="http://www.w3.org/2000/svg">
<path d="M11.76 4.70008L11.7 4.76008L11.73 4.75008L10.79 5.69008C10.75 5.72008 10.69 5.72008 10.66 5.69008L10.2 5.23008C10.1879 5.218 10.1754 5.20632 10.163 5.19472C10.1138 5.14873 10.0659 5.10397 10.05 5.04008C9.99998 4.85008 10.22 4.70008 10.38 4.82008C10.4337 4.86039 10.483 4.91423 10.5307 4.96646C10.554 4.99198 10.577 5.0171 10.6 5.04008C10.67 5.11008 10.74 5.12008 10.81 5.05008L11.45 4.41008C11.54 4.32008 11.66 4.30008 11.78 4.39008V4.41008C11.84 4.51008 11.84 4.61008 11.76 4.70008Z" fill="#FD5801"/>
<path fill-rule="evenodd" clip-rule="evenodd" d="M5.10998 12.3801C5.10998 12.1101 5.32998 11.8801 5.60998 11.8801C5.88998 11.8801 6.10998 12.1101 6.10998 12.3801C6.10998 12.6501 5.87998 12.8801 5.60998 12.8801C5.33998 12.8801 5.10998 12.6501 5.10998 12.3801ZM5.45998 12.3801C5.45998 12.4601 5.52998 12.5301 5.60998 12.5301C5.68998 12.5301 5.74998 12.4601 5.74998 12.3801C5.74998 12.3001 5.68998 12.2301 5.60998 12.2301C5.52998 12.2301 5.45998 12.3001 5.45998 12.3801Z" fill="#FD5801"/>
<path fill-rule="evenodd" clip-rule="evenodd" d="M10.87 12.4201C10.87 12.7001 11.1 12.9201 11.37 12.9201C11.64 12.9201 11.87 12.6901 11.87 12.4201C11.87 12.1501 11.64 11.9201 11.37 11.9201C11.1 11.9201 10.87 12.1501 10.87 12.4201ZM11.51 12.4201C11.51 12.5001 11.44 12.5701 11.36 12.5701C11.28 12.5701 11.21 12.5001 11.21 12.4201C11.21 12.3401 11.28 12.2801 11.36 12.2801C11.44 12.2801 11.51 12.3401 11.51 12.4201Z" fill="#FD5801"/>
<path fill-rule="evenodd" clip-rule="evenodd" d="M13.1 8.16008C13.2 8.16008 13.28 8.24008 13.28 8.34008L13.3 8.33008V9.99008C13.3 10.0206 13.2883 10.0395 13.2783 10.0556C13.2753 10.0606 13.2723 10.0654 13.27 10.0701C13.2656 10.0788 13.2631 10.0876 13.2609 10.0955C13.2581 10.1057 13.2556 10.1145 13.25 10.1201C13.24 10.1401 13.22 10.1401 13.2 10.1401C13.17 10.1501 13.12 10.1701 13.12 10.1701H12.13V10.6801C12.13 10.7801 12.04 10.8601 11.95 10.8601H11.6V11.4201C12.05 11.5201 12.4 11.9001 12.4 12.3901C12.4 12.9501 11.94 13.4101 11.38 13.4101C10.82 13.4101 10.36 12.9501 10.36 12.3901C10.36 12.1101 10.47 11.8601 10.65 11.6801H6.33998C6.50998 11.8701 6.61998 12.1101 6.61998 12.3801C6.61998 12.9401 6.15998 13.4001 5.59998 13.4001C5.03998 13.4001 4.57998 12.9401 4.57998 12.3801C4.57998 11.8901 4.93998 11.4901 5.40998 11.4001V10.8401H5.06998C4.96998 10.8401 4.88998 10.7601 4.88998 10.6601V10.1701H4.27998C4.25556 10.1701 4.23114 10.1568 4.21212 10.1465L4.19998 10.1401C4.16998 10.1501 4.11998 10.1701 4.11998 10.1701H3.02998C2.92998 10.1701 2.84998 10.0901 2.84998 9.99008V5.09008C2.84998 4.99008 2.92998 4.91008 3.02998 4.91008H4.11998C4.21998 4.91008 4.29998 4.99008 4.29998 5.09008V6.04008H6.71998C6.81998 6.04008 6.89998 6.12008 6.89998 6.22008V7.04008H7.46998V4.46008H6.95998V5.58008C6.95998 5.68008 6.87998 5.76008 6.77998 5.76008C6.67998 5.76008 6.59998 5.68008 6.59998 5.58008V4.46008H5.85998C5.75998 4.46008 5.67998 4.38008 5.67998 4.28008V3.53008C5.67998 3.30008 6.03998 3.30008 6.03998 3.53008V4.11008H7.46998V3.53008C7.46998 3.30008 7.82998 3.30008 7.82998 3.53008V7.05008H9.52998C9.92998 7.05008 10.32 7.05008 10.71 7.04008H10.68C10.66 7.04008 8.59998 6.35008 8.79998 3.82008C8.80998 3.76008 8.82998 3.71008 8.87998 3.67008C8.91998 3.63008 8.97998 3.62008 9.03998 3.63008C9.03998 3.63008 9.33998 3.66008 9.78998 3.38008L10.18 3.08008H11.3L11.7 3.38008C12.15 3.66008 12.45 3.63008 12.45 3.63008C12.51 3.62008 12.57 3.64008 12.61 3.67008C12.66 3.71008 12.69 3.76008 12.69 3.82008C12.79 5.13008 12.28 5.93008 11.83 6.38008C11.34 6.87008 10.83 7.05008 10.81 7.05008H12.19C12.29 7.05008 12.37 7.13008 12.37 7.23008V8.16008H13.1ZM10.32 3.52008C9.80998 3.93008 9.39998 4.03008 9.19998 4.05008H9.18998C9.13998 5.85008 10.42 6.50008 10.74 6.64008C11.07 6.50008 12.34 5.84008 12.29 4.05008C12.06 4.03008 11.66 3.92008 11.16 3.52008H10.32ZM11.76 10.3401H11.08V10.5101H11.76V10.3401ZM4.45998 9.83008H12.92V8.52008H4.45998V9.83008ZM9.40998 10.1901H7.61998V11.3201H9.40998V10.1901ZM5.24998 10.3201V10.4901H5.92998V10.3201H5.24998ZM3.94998 5.29008H3.20998V9.83008H3.94998V5.29008ZM12.02 7.41008H4.47998V8.15008H12.02V7.41008ZM6.54998 6.41008H4.33998V7.04008H6.54998V6.41008ZM5.77998 10.8501V11.3401H7.26998V10.1801H6.28998V10.6701C6.28998 10.7701 6.19998 10.8501 6.10998 10.8501H5.77998ZM4.93998 12.3901C4.93998 12.7501 5.23998 13.0501 5.59998 13.0501C5.95998 13.0501 6.25998 12.7501 6.25998 12.3901C6.25998 12.0301 5.95998 11.7301 5.59998 11.7301C5.23998 11.7301 4.93998 12.0301 4.93998 12.3901ZM11.38 13.0701C11.74 13.0701 12.04 12.7701 12.04 12.4101C12.04 12.0501 11.74 11.7501 11.38 11.7501C11.02 11.7501 10.72 12.0501 10.72 12.4101C10.72 12.7701 11.02 13.0701 11.38 13.0701ZM9.75998 11.3401H11.24V10.8701H10.91C10.81 10.8701 10.73 10.7901 10.73 10.6901V10.1801H9.75998V11.3401Z" fill="#FD5801"/>
</svg>
