<svg width="16" height="16" viewBox="0 0 16 16" fill="none" xmlns="http://www.w3.org/2000/svg">
<path fill-rule="evenodd" clip-rule="evenodd" d="M11.3399 6.01953C11.3199 5.93953 11.3599 5.83953 11.4399 5.79953V5.80953C11.5199 5.75953 11.6199 5.77953 11.6799 5.83953C12.1399 6.29953 12.3499 7.03953 12.1999 7.62953C12.1499 7.84953 11.9299 8.28953 11.7699 8.45953C11.7299 8.49953 11.6799 8.51953 11.6199 8.51953H11.1199C11.0599 8.51953 11.0099 8.49953 10.9699 8.45953C10.6799 8.14953 10.3899 7.51953 10.4499 6.95953C10.4799 6.65953 10.5499 6.50953 10.5799 6.44953C10.6199 6.36953 10.6999 6.30953 10.7899 6.32953C10.8799 6.33953 10.9499 6.39953 10.9599 6.48953C10.9899 6.70953 11.0299 6.72953 11.0899 6.75953C11.1369 6.78772 11.1839 6.77176 11.2143 6.76143C11.2163 6.76077 11.2181 6.76013 11.2199 6.75953C11.2899 6.72953 11.3499 6.65953 11.3799 6.58953C11.4399 6.42953 11.3999 6.24953 11.3399 6.01953ZM11.5199 8.10953C11.6299 7.95953 11.7699 7.66953 11.8099 7.51953V7.52953C11.8699 7.28953 11.8499 6.99953 11.7599 6.72953C11.6999 6.89953 11.5499 7.04953 11.3799 7.12953C11.2299 7.18953 11.0699 7.18953 10.9299 7.12953C10.8999 7.11953 10.8699 7.09953 10.8399 7.07953C10.8299 7.46953 11.0299 7.88953 11.2099 8.10953H11.5199Z" fill="#FF5800"/>
<path fill-rule="evenodd" clip-rule="evenodd" d="M13.2199 5.27953C12.8199 4.20953 11.6199 3.29953 10.9299 3.08953C10.8599 3.06953 10.7699 3.08953 10.7199 3.14953C10.6699 3.20953 10.6599 3.29953 10.6899 3.36953C10.8599 3.73953 10.9399 4.42953 10.8199 4.94953C10.7999 4.86954 10.7799 4.78952 10.7499 4.70953L10.7449 4.69651C10.7231 4.63977 10.6791 4.52487 10.5499 4.46953C10.3999 4.40953 10.2699 4.48953 10.2299 4.51953C9.40994 5.03953 8.92994 6.09953 9.04994 7.15953C9.13994 7.92953 10.0599 9.03953 10.7299 9.36953C10.7599 9.37953 10.7899 9.38953 10.8199 9.38953H11.9699C11.9699 9.38953 12.0399 9.37953 12.0799 9.35953C12.8199 8.89953 14.0099 7.44953 13.2099 5.28953L13.2199 5.27953ZM11.9199 8.97953H10.8799C10.3199 8.67953 9.52994 7.71953 9.45994 7.10953C9.35994 6.22953 9.72994 5.35953 10.3999 4.88953C10.4699 5.11953 10.4899 5.34953 10.5099 5.61953C10.5099 5.69953 10.5599 5.75953 10.6299 5.78953C10.6999 5.81953 10.7799 5.79953 10.8399 5.74953C11.2899 5.32953 11.3499 4.34953 11.1899 3.63953C11.7699 3.95953 12.5399 4.62953 12.8399 5.40953C13.5299 7.27953 12.5599 8.53953 11.9199 8.96953V8.97953Z" fill="#FF5800"/>
<path fill-rule="evenodd" clip-rule="evenodd" d="M11.6599 9.97953C11.5499 9.97953 11.4599 10.0695 11.4599 10.1795V11.0495H3.82994V9.10953C3.82994 8.91953 3.97994 8.76953 4.16994 8.76953H9.25994C9.36994 8.76953 9.45994 8.67953 9.45994 8.56953C9.45994 8.45953 9.36994 8.36953 9.25994 8.36953H4.43994L5.03994 6.41953C5.08994 6.22953 5.26994 6.08953 5.46994 6.08953H8.71994C8.82994 6.08953 8.91994 5.99953 8.91994 5.88953C8.91994 5.77953 8.82994 5.68953 8.71994 5.68953H5.46994C5.08994 5.68953 4.74994 5.94953 4.65994 6.30953L4.01994 8.39953C3.68994 8.46953 3.43994 8.74953 3.43994 9.09953V11.2395C3.43994 11.3495 3.52994 11.4395 3.63994 11.4395H3.97994V12.0995C3.97994 12.3295 4.16994 12.5095 4.38994 12.5095H5.29994C5.52994 12.5095 5.70994 12.3195 5.70994 12.0995V11.4395H9.58994V12.0995C9.58994 12.3295 9.77994 12.5095 10.0099 12.5095H10.9199C11.1499 12.5095 11.3399 12.3195 11.3399 12.0995V11.4395H11.6699C11.7799 11.4395 11.8699 11.3495 11.8699 11.2395V10.1695C11.8699 10.0595 11.7799 9.96953 11.6699 9.96953L11.6599 9.97953ZM4.36994 12.1195V11.4495H5.29994V12.1195H4.36994ZM9.98994 12.1195V11.4495H10.9299V12.1195H9.98994Z" fill="#FF5800"/>
<path d="M10.3199 9.57953C10.4299 9.57953 10.5199 9.48953 10.5199 9.37953C10.5199 9.26953 10.4299 9.17953 10.3199 9.17953C9.90994 9.17953 9.57994 9.50953 9.57994 9.91953C9.57994 10.3295 9.90994 10.6595 10.3199 10.6595C10.7299 10.6595 11.0599 10.3295 11.0599 9.91953C11.0599 9.80953 10.9699 9.71953 10.8599 9.71953C10.7499 9.71953 10.6599 9.80953 10.6599 9.91953C10.6599 10.0995 10.5099 10.2495 10.3199 10.2495C10.1299 10.2495 9.98994 10.0995 9.98994 9.91953C9.98994 9.73953 10.1399 9.58953 10.3199 9.58953V9.57953Z" fill="#FF5800"/>
<path fill-rule="evenodd" clip-rule="evenodd" d="M4.96994 10.6595C4.55994 10.6595 4.22994 10.3295 4.22994 9.91953C4.22994 9.50953 4.55994 9.17953 4.96994 9.17953C5.37994 9.17953 5.70994 9.50953 5.70994 9.91953C5.70994 10.3295 5.37994 10.6595 4.96994 10.6595ZM4.95994 10.2495C5.14994 10.2495 5.29994 10.0995 5.29994 9.91953C5.29994 9.73953 5.13994 9.58953 4.95994 9.58953C4.77994 9.58953 4.62994 9.73953 4.62994 9.91953C4.62994 10.0995 4.76994 10.2495 4.95994 10.2495Z" fill="#FF5800"/>
<path fill-rule="evenodd" clip-rule="evenodd" d="M6.56994 9.17953C6.45994 9.17953 6.36994 9.26953 6.36994 9.37953V10.1795C6.36994 10.2895 6.45994 10.3795 6.56994 10.3795H8.70994C8.81994 10.3795 8.90994 10.2895 8.90994 10.1795V9.37953C8.90994 9.26953 8.81994 9.17953 8.70994 9.17953H6.56994ZM8.51994 9.97953H6.77994V9.57953H8.51994V9.97953Z" fill="#FF5800"/>
<path d="M6.63994 6.69953C6.63994 6.58953 6.72994 6.49953 6.83994 6.49953H8.17994C8.28994 6.49953 8.37994 6.58953 8.37994 6.69953C8.37994 6.80953 8.28994 6.89953 8.17994 6.89953H6.83994C6.72994 6.89953 6.63994 6.80953 6.63994 6.69953Z" fill="#FF5800"/>
</svg>
