<?xml version="1.0" encoding="UTF-8"?>
<svg xmlns="http://www.w3.org/2000/svg" version="1.1" viewBox="0 0 16 16">
  <defs>
    <style>
      .cls-1 {
        fill: #fd5801;
      }

      .cls-2 {
        fill: #ff5800;
      }
    </style>
  </defs>
  <!-- Generator: Adobe Illustrator 28.7.1, SVG Export Plug-In . SVG Version: 1.2.0 Build 142)  -->
  <g>
    <g id="Layer_1">
      <path class="cls-2" d="M7.99,15.95C3.61,15.95.03,12.38.03,7.99S3.61.03,7.99.03s7.96,3.57,7.96,7.96-3.57,7.96-7.96,7.96ZM7.99.43C3.83.43.43,3.83.43,7.99s3.39,7.56,7.56,7.56,7.56-3.39,7.56-7.56S12.16.43,7.99.43Z"/>
      <g>
        <path class="cls-1" d="M7.71,12.28s-.04-.01-.05-.02c-.03-.01-.05-.04-.09-.04h-2.66c-.11,0-.2.09-.2.2v.68c0,.11.09.2.2.2h2.66c.11,0,.2-.09.2-.2v-.68s-.02-.06-.04-.08c0-.02,0-.04-.02-.06ZM5.24,12.9h-.13v-.28h2.26v.28h-2.13Z"/>
        <path class="cls-1" d="M4.99,11.99c0,.26.41.26.4,0,0-.13.02-.29-.07-.39-.05-.06-.13-.11-.19-.16-.4-.36-.81-.76-1.14-1.18-.43-.54-.61-1.22-.61-1.91v-2.1c0-.18-.06-.51.09-.65.2-.2.48-.03.51.22,0,.09,0,.18,0,.27,0,.69,0,1.37,0,2.06,0,.26.4.26.4,0,0-.66,0-1.31,0-1.97,0-.3.03-.62-.2-.86-.4-.4-1.1-.16-1.18.4-.03.22,0,.45,0,.67v1.26c0,.53-.03,1.05.09,1.57.17.75.59,1.3,1.11,1.85.25.27.51.54.8.77v.16Z"/>
        <path class="cls-1" d="M5.9,10.78c.18.18.47-.1.28-.28-.24-.24-.49-.47-.73-.71l-.45-.44c-.1-.1-.23-.2-.22-.36.01-.27.33-.35.51-.19.08.07.16.15.24.23.32.31.65.63.97.94.22.21.44.43.66.64,0,.46,0,.93,0,1.39,0,.26.4.26.4,0,0-.48.02-.97,0-1.46,0-.15-.16-.26-.26-.36-.21-.21-.43-.42-.64-.62-.36-.35-.71-.71-1.08-1.05-.33-.31-.88-.25-1.11.16-.18.33-.05.66.2.91.41.4.82.8,1.24,1.2Z"/>
        <path class="cls-1" d="M13.14,5.85c-.01-.43-.37-.8-.82-.72-.42.08-.58.44-.58.83,0,.73,0,1.46,0,2.19,0,.26.4.26.4,0v-1.83c0-.21-.07-.63.15-.76.21-.12.43.04.45.26,0,.08,0,.16,0,.23v2.13c0,.58-.06,1.13-.34,1.66-.31.58-.84,1.07-1.32,1.52-.08.08-.19.15-.27.24-.09.11-.07.26-.07.4,0,.26.39.26.4,0,0-.05,0-.11,0-.16.21-.18.42-.38.61-.58.48-.49.93-.97,1.17-1.62.21-.56.22-1.12.22-1.7,0-.7.02-1.4,0-2.09Z"/>
        <path class="cls-1" d="M11.4,12.28s-.04-.01-.05-.02c-.03-.01-.05-.04-.09-.04h-2.49c.09,0,.19-.07.19-.19,0-.46,0-.93,0-1.39.51-.49,1.02-.99,1.53-1.48.18-.18.5-.62.78-.33.29.3-.27.67-.45.85-.29.28-.58.56-.87.84-.18.18.1.46.28.28l1.12-1.08c.2-.19.4-.38.41-.68,0-.52-.55-.86-1.01-.63-.16.08-.29.23-.41.36-.22.21-.44.43-.66.64l-.71.69c-.11.11-.24.21-.33.32-.07.09-.06.19-.06.29v.5c0,.27,0,.55,0,.82,0,.12.09.18.19.19h-.14c-.11,0-.2.09-.2.2v.68c0,.11.09.2.2.2h2.66c.11,0,.2-.09.2-.2v-.68s-.02-.06-.04-.08c0-.02,0-.04-.02-.06ZM8.93,12.9h-.13v-.28h2.26v.28h-2.13Z"/>
        <path class="cls-1" d="M8.84,8.69c.36-.22.69-.49.96-.8.49-.56.81-1.24.94-1.97.04-.22.06-.45.07-.68,0-.23.04-.52-.04-.74-.06-.18-.23-.31-.41-.32-.03,0-.05,0-.08,0,0,0-.01,0-.02,0-.04,0-.08,0-.12,0-.33-.04-.63-.21-.89-.41-.15-.11-.3-.28-.49-.29-.23-.02-.47,0-.7,0s-.44-.01-.66,0c-.19.01-.32.16-.47.27-.26.2-.54.36-.87.42-.26.05-.54,0-.67.31-.07.18-.05.41-.05.6,0,.22.02.45.05.67.09.66.32,1.3.71,1.83.46.64,1.12,1.16,1.87,1.43.05.02.09,0,.13-.01.02,0,.03.01.05.01.24-.05.48-.19.68-.31ZM6.79,7.76c-.37-.38-.65-.83-.82-1.33-.11-.33-.18-.67-.2-1.01-.01-.18-.02-.35-.01-.53,0-.17.03-.27.19-.31.1-.02.21-.02.31-.05.19-.05.37-.12.54-.21.21-.11.39-.26.58-.4.02-.01.04-.03.06-.04.06,0,.13,0,.19,0h1.06s.04,0,.06,0c.07.06.42.31.45.34.25.18.57.31.88.36.07.01.15,0,.22.02.02,0,.05-.02.06,0,.05.03.06.19.07.23.02.13,0,.26,0,.39-.02.81-.27,1.61-.77,2.25-.25.32-.55.6-.89.82-.2.13-.44.29-.69.34-.14-.05-.22-.08-.38-.17-.33-.18-.64-.41-.9-.68Z"/>
        <path class="cls-1" d="M8.41,7.01c.11-.11.23-.23.34-.34.23-.23.47-.47.7-.7.09-.09.17-.18.2-.31.03-.13,0-.27-.08-.38-.14-.21-.43-.25-.64-.13-.11.07-.2.17-.29.27-.1.1-.2.21-.31.31-.05.05-.1.1-.15.15-.05.05-.12.1-.16.15,0,0-.01.01-.02.02,0,0,0,0,0,0-.02-.05-.11-.12-.15-.16-.16-.16-.36-.29-.59-.21-.2.07-.34.27-.32.49.02.26.27.43.44.6.09.09.19.19.28.28.11.11.2.22.36.21.17,0,.27-.15.38-.26ZM7.44,6.27c-.06-.06-.15-.14-.05-.19.08-.04.2.12.26.19.14.15.32.28.53.17.09-.05.16-.13.23-.2.08-.08.16-.16.25-.25.09-.09.17-.17.26-.26.07-.07.15-.19.24-.23.04-.02.08,0,.1.02.04.07-.03.12-.08.17-.31.31-.62.62-.94.94-.07.07-.16.14-.22.22,0,0,0,0,0,0,0,0,0,0,0,0-.03-.05-.08-.08-.12-.12-.15-.15-.3-.3-.45-.45Z"/>
      </g>
    </g>
  </g>
</svg>