<?xml version="1.0" encoding="UTF-8"?>
<svg xmlns="http://www.w3.org/2000/svg" version="1.1" viewBox="0 0 16 16">
  <defs>
    <style>
      .cls-1 {
        fill: #12b4f4;
      }
    </style>
  </defs>
  <!-- Generator: Adobe Illustrator 28.7.1, SVG Export Plug-In . SVG Version: 1.2.0 Build 142)  -->
  <g>
    <g id="Layer_1">
      <path class="cls-1" d="M7.99,15.95C3.61,15.95.03,12.38.03,7.99S3.61.03,7.99.03s7.96,3.57,7.96,7.96-3.57,7.96-7.96,7.96ZM7.99.43C3.83.43.43,3.83.43,7.99s3.39,7.56,7.56,7.56,7.56-3.39,7.56-7.56S12.16.43,7.99.43Z"/>
      <g>
        <path class="cls-1" d="M4.51,6.63h.82s0,0,0,0c.02,0,.04,0,.06-.01.01,0,.03-.01.04-.02,0,0,.02-.01.03-.02.02-.01.03-.03.04-.04,0,0,0-.01.01-.02.02-.04.04-.07.04-.12,0-.01,0-.03,0-.04.01-.65.28-1.24.7-1.67,0,0,0,0,.01,0,0,0,0,0,0-.01.44-.43,1.04-.7,1.71-.7,1.34,0,2.43,1.09,2.43,2.43,0,.13.1.23.23.23h.82s.03,0,.05,0c.01,0,.02,0,.03,0,0,0,0,0,.01,0,0,0,.02,0,.03-.01,0,0,0,0,.01,0,0,0,.01,0,.02-.01,0,0,.01-.01.02-.02,0,0,0,0,0,0,0,0,0,0,0,0,.04-.04.06-.09.06-.15,0-.02,0-.04,0-.06-.01-.98-.41-1.87-1.05-2.52,0-.01-.02-.03-.03-.04-.01-.01-.03-.02-.04-.02-.66-.65-1.57-1.05-2.56-1.06,0,0-.01,0-.02,0-.01,0-.03,0-.04,0-2.03.02-3.67,1.67-3.67,3.7,0,.13.1.23.23.23ZM10.87,6.17c-.05-.63-.3-1.2-.68-1.64l.26-.26c.45.51.73,1.17.78,1.9h-.36ZM9.86,4.2c-.45-.38-1.02-.63-1.64-.68v-.36c.73.05,1.38.33,1.9.78l-.26.26ZM7.76,3.52c-.63.05-1.19.29-1.64.68l-.25-.25c.52-.45,1.17-.73,1.9-.78v.36ZM5.79,4.52c-.38.45-.63,1.02-.68,1.65h-.36c.05-.73.34-1.39.78-1.9l.25.25Z"/>
        <path class="cls-1" d="M9.2,4.78c.07-.11.03-.25-.08-.32-.11-.07-.25-.03-.32.08l-.68,1.12s-.08-.01-.13-.01c-.34,0-.62.22-.72.52h-.65c-.13,0-.23.1-.23.23s.1.23.23.23h2.74c.12,0,.22-.1.23-.23,0-.13-.1-.23-.23-.23h-.65c-.04-.11-.1-.22-.18-.3l.66-1.09ZM8.18,6.17h-.38c.11-.08.27-.08.38,0Z"/>
        <path class="cls-1" d="M4.54,12.23h2.55c.13,0,.23-.1.23-.23s-.1-.23-.23-.23h-2.55c-.13,0-.23.1-.23.23s.1.23.23.23Z"/>
        <path class="cls-1" d="M7.83,12.23h1.07c.13,0,.23-.1.23-.23s-.1-.23-.23-.23h-1.07c-.13,0-.23.1-.23.23s.1.23.23.23Z"/>
        <path class="cls-1" d="M11.6,11.77h-1.07c-.13,0-.23.1-.23.23s.1.23.23.23h1.07c.13,0,.23-.1.23-.23s-.1-.23-.23-.23Z"/>
        <path class="cls-1" d="M4.54,11.63c.12,0,.23-.11.23-.23v-.89c0-.13-.1-.23-.23-.23s-.23.1-.23.23v.89c0,.13.1.23.23.23Z"/>
        <path class="cls-1" d="M5.24,11.63c.13,0,.23-.1.23-.23v-.89c0-.13-.1-.23-.23-.23s-.23.1-.23.23v.89c0,.13.1.23.23.23Z"/>
        <path class="cls-1" d="M5.94,11.63c.13,0,.23-.1.23-.23v-.89c0-.13-.1-.23-.23-.23s-.23.1-.23.23v.89c0,.13.1.23.23.23Z"/>
        <path class="cls-1" d="M6.64,11.63c.12,0,.22-.1.23-.23v-.89c0-.13-.1-.23-.23-.23s-.23.1-.23.23v.89c0,.13.1.23.23.23Z"/>
        <path class="cls-1" d="M7.35,11.63c.12,0,.23-.11.23-.23v-.89c0-.13-.1-.23-.23-.23s-.23.1-.23.23v.89c0,.13.1.23.23.23Z"/>
        <path class="cls-1" d="M8.05,11.63c.12,0,.23-.11.23-.23v-.89c0-.13-.1-.23-.23-.23s-.23.1-.23.23v.89c0,.13.1.23.23.23Z"/>
        <path class="cls-1" d="M12.58,9.4v-1.12s0-.01,0-.02c0-.01,0-.02,0-.03v-.39c0-.47-.39-.86-.86-.86h-7.33c-.47,0-.86.39-.86.86v4.33c0,.47.39.86.86.86h7.33c.47,0,.86-.39.86-.86v-2.72s0-.01,0-.02c0-.01,0-.02,0-.03ZM3.98,9.67h8.14v2.51c0,.22-.18.4-.4.4h-7.33c-.22,0-.4-.18-.4-.4v-2.51ZM12.12,8.04H3.98v-.18c0-.22.18-.4.4-.4h.11s7.22,0,7.22,0c.22,0,.4.18.4.4v.19ZM12.12,8.5v.7H3.98v-.7h8.14Z"/>
        <path class="cls-1" d="M10.53,11.44c.13,0,.24-.03.35-.08.11.05.23.08.35.08.43,0,.79-.35.79-.79s-.35-.79-.79-.79c-.13,0-.24.03-.35.08-.11-.05-.23-.08-.35-.08-.43,0-.79.35-.79.79s.35.79.79.79ZM10.21,10.65c0-.18.15-.33.33-.33.08,0,.15.02.2.07.08.07.2.07.29,0,.06-.05.13-.07.21-.07.18,0,.33.15.33.33s-.15.33-.33.33c-.08,0-.15-.02-.21-.08-.04-.03-.09-.05-.14-.05-.06,0-.11.02-.14.05-.06.05-.13.07-.21.07-.18,0-.33-.15-.33-.33Z"/>
      </g>
    </g>
  </g>
</svg>