<svg width="16" height="16" viewBox="0 0 16 16" fill="none" xmlns="http://www.w3.org/2000/svg">
<path fill-rule="evenodd" clip-rule="evenodd" d="M9.52003 8.98043C9.55003 9.01043 9.64003 9.02043 9.64003 9.02043V9.03043C9.70003 9.03043 9.76003 9.00043 9.80003 8.95043L10.3581 8.24112C11.0085 8.95022 11.7441 9.20043 11.76 9.20043H11.87C11.87 9.20043 12.53 8.98043 13.15 8.36043C13.72 7.80043 14.36 6.78043 14.24 5.13043C14.24 5.13043 14.21 5.03043 14.17 5.00043C14.13 4.97043 14.08 4.96043 14.03 4.97043C14.03 4.97043 14.0259 4.97056 14.0222 4.97076C13.9636 4.9738 13.6297 4.99114 13.1296 4.71897L13.75 3.93043C13.82 3.84043 13.81 3.72043 13.72 3.65043C13.63 3.58043 13.51 3.59043 13.44 3.68043L12.7913 4.50483C12.5366 4.32104 12.2529 4.06549 11.95 3.71043L11.93 3.69043C11.93 3.69043 11.88 3.66043 11.87 3.66043C11.8659 3.66043 11.86 3.65871 11.8532 3.6567C11.8435 3.65386 11.8317 3.65043 11.82 3.65043C11.82 3.65043 11.76 3.65043 11.74 3.67043L11.73 3.6771V3.67043L11.72 3.68043H11.725L11.68 3.71043C10.51 5.09043 9.61003 4.98043 9.60003 4.97043C9.55003 4.97043 9.50003 4.97043 9.46003 5.00043C9.42003 5.03043 9.40003 5.08043 9.39003 5.13043C9.29061 6.39502 9.64031 7.29746 10.0995 7.92581L9.49003 8.70043C9.42003 8.79043 9.43003 8.91043 9.52003 8.98043ZM10.583 7.95536C11.0816 8.52206 11.6472 8.77927 11.82 8.85043C12.16 8.71043 14.01 7.83043 13.9 5.33043C13.6969 5.31882 13.3491 5.25672 12.9073 5.0015L10.583 7.95536ZM12.5732 4.7821L10.3314 7.6311C9.96531 7.09312 9.69163 6.34678 9.74003 5.33043C10.06 5.31043 10.86 5.15043 11.82 4.09043C12.0863 4.38478 12.3393 4.60998 12.5732 4.7821Z" fill="#FF5800"/>
<path fill-rule="evenodd" clip-rule="evenodd" d="M11.95 10.0104C11.95 9.90043 12.04 9.81043 12.15 9.81043C12.26 9.81043 12.35 9.90043 12.35 10.0104V11.2604C12.35 11.3704 12.26 11.4604 12.15 11.4604H11.72V12.2604C11.72 12.5104 11.52 12.7104 11.27 12.7104H10.2C9.95003 12.7104 9.75003 12.5104 9.75003 12.2604V11.4604H5.13003V12.2604C5.13003 12.5104 4.93003 12.7104 4.68003 12.7104H3.61003C3.36003 12.7104 3.16003 12.5104 3.16003 12.2604V11.4604H2.73003C2.62003 11.4604 2.53003 11.3704 2.53003 11.2604V8.75043C2.53003 8.35043 2.82003 8.03043 3.20003 7.95043L3.96003 5.48043C4.07003 5.07043 4.45003 4.78043 4.88003 4.78043H8.70003C8.81003 4.78043 8.90003 4.87043 8.90003 4.98043C8.90003 5.09043 8.81003 5.18043 8.70003 5.18043H4.88003C4.63003 5.18043 4.41003 5.35043 4.34003 5.59043L3.63003 7.92043H9.32003C9.43003 7.92043 9.52003 8.01043 9.52003 8.12043C9.52003 8.23043 9.43003 8.32043 9.32003 8.32043H3.36003C3.12003 8.32043 2.93003 8.51043 2.93003 8.75043V11.0604H11.95V10.0104ZM4.68003 12.3204C4.71003 12.3204 4.73003 12.2704 4.73003 12.2704V11.4704H3.56003V12.2704C3.56003 12.3004 3.61003 12.3204 3.61003 12.3204H4.68003ZM11.27 12.3204C11.3 12.3204 11.32 12.2704 11.32 12.2704V11.4704H10.15V12.2704C10.15 12.3004 10.2 12.3204 10.2 12.3204H11.27Z" fill="#FF5800"/>
<path d="M11.41 9.69043C11.41 10.1504 11.04 10.5204 10.58 10.5204C10.12 10.5204 9.75003 10.1504 9.75003 9.69043C9.75003 9.23043 10.12 8.86043 10.58 8.86043C10.69 8.86043 10.78 8.95043 10.78 9.06043C10.78 9.17043 10.69 9.26043 10.58 9.26043C10.34 9.26043 10.15 9.45043 10.15 9.69043C10.15 9.93043 10.34 10.1204 10.58 10.1204C10.82 10.1204 11.01 9.93043 11.01 9.69043C11.01 9.58043 11.1 9.49043 11.21 9.49043C11.32 9.49043 11.41 9.58043 11.41 9.69043Z" fill="#FF5800"/>
<path fill-rule="evenodd" clip-rule="evenodd" d="M3.47003 9.69043C3.47003 10.1504 3.84003 10.5204 4.30003 10.5204C4.76003 10.5204 5.13003 10.1504 5.13003 9.69043C5.13003 9.23043 4.76003 8.86043 4.30003 8.86043C3.84003 8.86043 3.47003 9.23043 3.47003 9.69043ZM4.73003 9.69043C4.73003 9.93043 4.54003 10.1204 4.30003 10.1204C4.06003 10.1204 3.87003 9.93043 3.87003 9.69043C3.87003 9.45043 4.06003 9.26043 4.30003 9.26043C4.54003 9.26043 4.73003 9.45043 4.73003 9.69043Z" fill="#FF5800"/>
<path fill-rule="evenodd" clip-rule="evenodd" d="M5.98003 9.07043C5.98003 8.96043 6.07003 8.87043 6.18003 8.87043H8.69003C8.80003 8.87043 8.89003 8.96043 8.89003 9.07043V10.0104C8.89003 10.1204 8.80003 10.2104 8.69003 10.2104H6.18003C6.07003 10.2104 5.98003 10.1204 5.98003 10.0104V9.07043ZM6.38003 9.81043H8.49003V9.27043H6.38003V9.81043Z" fill="#FF5800"/>
<path d="M6.50003 5.73043C6.39003 5.73043 6.30003 5.82043 6.30003 5.93043C6.30003 6.04043 6.39003 6.13043 6.50003 6.13043H8.07003C8.18003 6.13043 8.27003 6.04043 8.27003 5.93043C8.27003 5.82043 8.18003 5.73043 8.07003 5.73043H6.50003Z" fill="#FF5800"/>
</svg>
