<?xml version="1.0" encoding="UTF-8"?>
<svg xmlns="http://www.w3.org/2000/svg" version="1.1" viewBox="0 0 16 16">
  <defs>
    <style>
      .cls-1 {
        fill: #12b4f4;
      }
    </style>
  </defs>
  <!-- Generator: Adobe Illustrator 28.7.1, SVG Export Plug-In . SVG Version: 1.2.0 Build 142)  -->
  <g>
    <g id="Layer_1">
      <path class="cls-1" d="M7.99,15.95C3.61,15.95.03,12.38.03,7.99S3.61.03,7.99.03s7.96,3.57,7.96,7.96-3.57,7.96-7.96,7.96ZM7.99.43C3.83.43.43,3.83.43,7.99s3.39,7.56,7.56,7.56,7.56-3.39,7.56-7.56S12.16.43,7.99.43Z"/>
      <g>
        <path class="cls-1" d="M10.9,6.5l.59-.84c.05-.07.05-.17,0-.24l-.43-.71c-.04-.07-.11-.11-.19-.11h-1.96c-.08,0-.15.04-.19.11l-.44.71c-.05.08-.04.17.01.25l.62.83c-.35.12-.68.31-.97.55-.55-.46-1.23-.71-1.94-.71-1.67,0-3.03,1.36-3.03,3.03s1.36,3.03,3.03,3.03c.72,0,1.4-.25,1.95-.71.55.46,1.23.71,1.95.71,1.67,0,3.03-1.36,3.03-3.03,0-1.3-.82-2.43-2.02-2.86ZM9.45,5.32c-.12,0-.22.1-.22.22s.1.22.22.22h1.42l-.94,1.36-1.19-1.6.29-.48h1.71l.18.29h-1.46ZM8.09,11.22c-.25-.24-.45-.52-.58-.83,0,0,0,0,0,0-.14-.33-.22-.68-.22-1.04,0-.28.05-.56.14-.83.02-.07.05-.14.08-.21,0,0,0,0,0,0,0,0,0,0,0,0,0,0,0,0,0,0,.14-.31.33-.59.58-.83.31-.3.69-.51,1.09-.63l.42.57c-.94.13-1.67.95-1.67,1.93,0,1.08.87,1.95,1.95,1.95s1.95-.88,1.95-1.95c0-.95-.69-1.75-1.59-1.92l.39-.57c1.09.33,1.84,1.34,1.84,2.48,0,1.43-1.16,2.59-2.59,2.59-.67,0-1.31-.26-1.79-.72ZM7.6,7.36c-.05.05-.09.11-.13.17-.02.03-.04.05-.06.08-.05.07-.1.14-.14.22,0,.01-.02.03-.03.04-.02-.02-.04-.03-.06-.05-.01,0-.02-.02-.03-.03-.05-.04-.1-.07-.15-.1,0,0-.01,0-.02,0-.11-.07-.24-.12-.36-.17-.01,0-.03,0-.04-.01-.05-.02-.1-.03-.15-.04-.02,0-.04,0-.05-.01-.05,0-.1-.02-.14-.02-.02,0-.04,0-.05,0-.06,0-.13-.01-.2-.01-1.08,0-1.95.87-1.95,1.95s.88,1.95,1.95,1.95c.07,0,.13,0,.2-.01.02,0,.04,0,.06,0,.05,0,.09-.01.14-.02.02,0,.04,0,.06-.01.05-.01.09-.02.14-.04.02,0,.03,0,.05-.01.12-.04.24-.1.36-.17,0,0,.02-.01.03-.02.05-.03.09-.06.13-.09.01-.01.03-.02.04-.03.02-.01.04-.03.06-.04.11.19.23.36.37.52-.46.37-1.03.57-1.63.57-1.43,0-2.59-1.16-2.59-2.59s1.16-2.59,2.59-2.59c.59,0,1.17.2,1.63.58,0,0-.01.01-.02.02ZM6.98,8.48c-.02.06-.03.12-.05.18,0,.04-.02.07-.03.11-.01.06-.02.13-.03.19,0,.03-.01.06-.01.1,0,.1-.02.2-.02.3s0,.2.02.3c0,.03,0,.06.01.09,0,.07.02.13.03.2,0,.04.02.07.02.11.01.06.03.12.05.18.01.04.02.07.04.11.01.03.02.06.03.09,0,0,0,0,0,0-.03.03-.05.05-.08.07-.01,0-.02.02-.03.03-.03.02-.06.05-.09.07-.01,0-.02.01-.03.02-.03.02-.06.04-.1.06-.01,0-.02.01-.03.02-.03.02-.07.03-.1.05-.01,0-.03.01-.04.02-.03.01-.07.03-.1.04-.02,0-.03,0-.05.01-.03,0-.06.02-.09.02-.02,0-.05,0-.07.01-.02,0-.05,0-.07.01-.05,0-.1,0-.15,0-.83,0-1.51-.68-1.51-1.51s.68-1.51,1.51-1.51c.05,0,.1,0,.15,0,.02,0,.04,0,.06,0,.03,0,.06,0,.09.01.02,0,.05.01.07.02.02,0,.05.01.07.02.03,0,.05.02.08.03.02,0,.05.02.07.03.02.01.05.02.07.03.02.01.04.02.07.03.02.01.05.03.07.04.02.01.04.03.06.04.02.01.04.03.06.04.02.02.04.03.06.05.02.02.04.03.06.05,0,0,0,0,.01.01-.01.03-.02.06-.03.09-.01.04-.02.07-.04.11ZM9.88,7.84c.83,0,1.51.68,1.51,1.51s-.68,1.51-1.51,1.51-1.51-.68-1.51-1.51.68-1.51,1.51-1.51Z"/>
        <path class="cls-1" d="M6.05,4.98c0,.11.1.2.21.21.12,0,.23.02.34.03h.04c.14.02.28.03.42.03.19,0,.44-.03.64-.23.12-.12.17-.27.17-.44,0-.16-.08-.32-.19-.43-.12-.12-.24-.18-.39-.19,0-.15-.07-.28-.19-.39-.24-.24-.65-.25-.87-.02-.28.27-.24.65-.2,1.06.01.12.02.24.03.38ZM6.87,4.37c.06.06.14.08.22.06.06-.02.11-.03.15-.03.03,0,.06,0,.13.06.04.04.06.09.06.14,0,.04-.01.08-.04.11-.07.07-.17.1-.33.1-.11,0-.24-.01-.37-.03h-.03c-.06,0-.12-.01-.18-.02,0-.07-.01-.14-.02-.21-.03-.33-.06-.57.07-.7.02-.02.06-.04.1-.04h0c.05,0,.11.02.15.06.07.07.09.11.04.28-.02.08,0,.16.05.22Z"/>
        <path class="cls-1" d="M4.88,5.9c.09,0,.18,0,.29-.02.08,0,.16-.02.25-.02.11,0,.21-.1.21-.21,0-.08.01-.16.02-.25.03-.27.06-.57-.15-.78-.08-.09-.2-.13-.33-.13h0c-.14,0-.27.05-.36.15-.08.08-.12.16-.14.26-.09.02-.18.07-.26.14-.09.09-.15.22-.15.34,0,.13.04.26.13.35.16.16.35.17.49.17ZM5.12,5.06c-.03-.09-.02-.09,0-.12.03-.03.07-.02.07-.02.06.06.05.18.03.43v.04s0,.03,0,.05c-.03,0-.06,0-.09,0-.1.01-.18.02-.25.02-.12,0-.15-.02-.18-.05,0,0,0,0,0-.02,0-.02,0-.04.02-.05.02-.02.03-.02.04-.02.01,0,.04,0,.08.01.08.02.16,0,.22-.06.06-.06.08-.14.06-.22Z"/>
      </g>
    </g>
  </g>
</svg>