<?xml version="1.0" encoding="UTF-8"?>
<svg xmlns="http://www.w3.org/2000/svg" version="1.1" viewBox="0 0 16 16">
  <defs>
    <style>
      .cls-1 {
        fill: #12b4f4;
      }
    </style>
  </defs>
  <!-- Generator: Adobe Illustrator 28.7.1, SVG Export Plug-In . SVG Version: 1.2.0 Build 142)  -->
  <g>
    <g id="Layer_1">
      <path class="cls-1" d="M7.99,15.95C3.61,15.95.03,12.38.03,7.99S3.61.03,7.99.03s7.96,3.57,7.96,7.96-3.57,7.96-7.96,7.96ZM7.99.43C3.83.43.43,3.83.43,7.99s3.39,7.56,7.56,7.56,7.56-3.39,7.56-7.56S12.16.43,7.99.43Z"/>
      <g>
        <path class="cls-1" d="M11.68,9.77c-.11,0-.2.09-.2.2v1.05H2.47v-2.31c0-.24.19-.43.43-.43h5.96c.11,0,.2-.09.2-.2s-.09-.2-.2-.2H3.17l.71-2.33c.07-.24.29-.41.54-.41h3.82c.11,0,.2-.09.2-.2s-.09-.2-.2-.2h-3.82c-.43,0-.81.29-.92.7l-.76,2.47c-.38.08-.67.4-.67.8v2.51c0,.11.09.2.2.2h.43v.8c0,.25.2.45.45.45h1.07c.25,0,.45-.2.45-.45v-.8h4.62v.8c0,.25.2.45.45.45h1.07c.25,0,.45-.2.45-.45v-.8h.43c.11,0,.2-.09.2-.2v-1.25c0-.11-.09-.2-.2-.2ZM4.26,12.23s-.02.05-.05.05h-1.07s-.05-.02-.05-.05v-.8h1.17v.8ZM10.86,12.23s-.02.05-.05.05h-1.07s-.05-.02-.05-.05v-.8h1.17v.8Z"/>
        <path class="cls-1" d="M10.11,10.48c.46,0,.83-.37.83-.83,0-.11-.09-.2-.2-.2s-.2.09-.2.2c0,.24-.19.43-.43.43s-.43-.19-.43-.43.19-.43.43-.43c.11,0,.2-.09.2-.2s-.09-.2-.2-.2c-.46,0-.83.37-.83.83s.37.83.83.83Z"/>
        <path class="cls-1" d="M3.01,9.65c0,.46.37.83.83.83s.83-.37.83-.83-.37-.83-.83-.83-.83.37-.83.83ZM4.26,9.65c0,.24-.19.43-.43.43s-.43-.19-.43-.43.19-.43.43-.43.43.19.43.43Z"/>
        <path class="cls-1" d="M5.72,8.83c-.11,0-.2.09-.2.2v.94c0,.11.09.2.2.2h2.51c.11,0,.2-.09.2-.2v-.94c0-.11-.09-.2-.2-.2h-2.51ZM8.03,9.77h-2.11v-.54h2.11v.54Z"/>
        <path class="cls-1" d="M6.03,5.69c-.11,0-.2.09-.2.2s.09.2.2.2h1.57c.11,0,.2-.09.2-.2s-.09-.2-.2-.2h-1.57Z"/>
      </g>
      <path class="cls-1" d="M12.37,8.93c.36-.22.69-.49.96-.8.49-.56.81-1.24.94-1.97.04-.22.06-.45.07-.68,0-.23.04-.52-.04-.74-.06-.18-.23-.31-.41-.32-.03,0-.05,0-.08,0,0,0-.01,0-.02,0-.04,0-.08,0-.12,0-.33-.04-.63-.21-.89-.41-.15-.11-.3-.28-.49-.29-.23-.02-.47,0-.7,0s-.44-.01-.66,0c-.19.01-.32.16-.47.27-.26.2-.54.36-.87.42-.26.05-.54,0-.67.31-.07.18-.05.41-.05.6,0,.22.02.45.05.67.09.66.32,1.3.71,1.83.46.64,1.12,1.16,1.87,1.43.05.02.09,0,.13-.01.02,0,.03.01.05.01.24-.05.48-.19.68-.31ZM10.32,8c-.37-.38-.65-.83-.82-1.33-.11-.33-.18-.67-.2-1.01-.01-.18-.02-.35-.01-.53,0-.17.03-.27.19-.31.1-.02.21-.02.31-.05.19-.05.37-.12.54-.21.21-.11.39-.26.58-.4.02-.01.04-.03.06-.04.06,0,.13,0,.19,0h1.06s.04,0,.06,0c.07.06.42.31.45.34.25.18.57.31.88.36.07.01.15,0,.22.02.02,0,.05-.02.06,0,.05.03.06.19.07.23.02.13,0,.26,0,.39-.02.81-.27,1.61-.77,2.25-.25.32-.55.6-.89.82-.2.13-.44.29-.69.34-.14-.05-.22-.08-.38-.17-.33-.18-.64-.41-.9-.68Z"/>
      <path class="cls-1" d="M11.94,7.25c.11-.11.23-.23.34-.34.23-.23.47-.47.7-.7.09-.09.17-.18.2-.31.03-.13,0-.27-.08-.38-.14-.21-.43-.25-.64-.13-.11.07-.2.17-.29.27-.1.1-.2.21-.31.31-.05.05-.1.1-.15.15-.05.05-.12.1-.16.15,0,0-.01.01-.02.02,0,0,0,0,0,0-.02-.05-.11-.12-.15-.16-.16-.16-.36-.29-.59-.21-.2.07-.34.27-.32.49.02.26.27.43.44.6.09.09.19.19.28.28.11.11.2.22.36.21.17,0,.27-.15.38-.26ZM10.97,6.51c-.06-.06-.15-.14-.05-.19.08-.04.2.12.26.19.14.15.32.28.53.17.09-.05.16-.13.23-.2.08-.08.16-.16.25-.25.09-.09.17-.17.26-.26.07-.07.15-.19.24-.23.04-.02.08,0,.1.02.04.07-.03.12-.08.17-.31.31-.62.62-.94.94-.07.07-.16.14-.22.22,0,0,0,0,0,0,0,0,0,0,0,0-.03-.05-.08-.08-.12-.12-.15-.15-.3-.3-.45-.45Z"/>
    </g>
  </g>
</svg>