<?xml version="1.0" encoding="UTF-8"?>
<svg xmlns="http://www.w3.org/2000/svg" version="1.1" viewBox="0 0 16 16">
  <defs>
    <style>
      .cls-1 {
        fill: #12b4f4;
      }
    </style>
  </defs>
  <!-- Generator: Adobe Illustrator 28.7.1, SVG Export Plug-In . SVG Version: 1.2.0 Build 142)  -->
  <g>
    <g id="Layer_1">
      <path class="cls-1" d="M7.99,15.95C3.61,15.95.03,12.38.03,7.99S3.61.03,7.99.03s7.96,3.57,7.96,7.96-3.57,7.96-7.96,7.96ZM7.99.43C3.83.43.43,3.83.43,7.99s3.39,7.56,7.56,7.56,7.56-3.39,7.56-7.56S12.16.43,7.99.43Z"/>
      <g>
        <path class="cls-1" d="M5.67,7.65l-.71-2.05c-.11-.4-.48-.68-.89-.68H1.92c-.11,0-.2.09-.2.2s.09.2.2.2h2.15c.23,0,.44.16.51.4l.66,1.9H1.92c-.11,0-.2.09-.2.2s.09.2.2.2h3.6c.22,0,.4.18.4.4v2.2H1.92c-.11,0-.2.09-.2.2s.09.2.2.2h1.9v1.06c0,.24.2.44.44.44h1.02c.24,0,.44-.2.44-.44v-1.06h.4c.11,0,.2-.09.2-.2v-2.4c0-.39-.28-.7-.65-.77ZM5.28,12.11h-1.02s-.04-.02-.04-.04v-1.06h1.1v1.06s-.02.04-.04.04Z"/>
        <path class="cls-1" d="M4.62,10.12c.44,0,.8-.36.8-.8s-.36-.8-.8-.8-.8.36-.8.8.36.8.8.8ZM4.62,8.92c.22,0,.4.18.4.4s-.18.4-.4.4-.4-.18-.4-.4.18-.4.4-.4Z"/>
        <path class="cls-1" d="M1.92,9.42c-.11,0-.2.09-.2.2s.09.2.2.2h.9c.11,0,.2-.09.2-.2v-.9c0-.11-.09-.2-.2-.2h-.9c-.11,0-.2.09-.2.2s.09.2.2.2h.7v.5h-.7Z"/>
        <path class="cls-1" d="M13.92,7.62h-3.32l.67-1.91c.06-.23.27-.39.5-.39h2.15c.11,0,.2-.09.2-.2s-.09-.2-.2-.2h-2.15c-.42,0-.78.28-.89.67l-.72,2.06c-.37.07-.65.38-.65.77v2.4c0,.11.09.2.2.2h.4v1.06c0,.24.2.44.44.44h1.02c.24,0,.44-.2.44-.44v-1.06h1.9c.11,0,.2-.09.2-.2s-.09-.2-.2-.2h-4v-2.2c0-.22.18-.4.4-.4h3.6c.11,0,.2-.09.2-.2s-.09-.2-.2-.2ZM11.58,12.11h-1.02s-.04-.02-.04-.04v-1.06h1.1v1.06s-.02.04-.04.04Z"/>
        <path class="cls-1" d="M10.42,9.32c0,.44.36.8.8.8s.8-.36.8-.8-.36-.8-.8-.8-.8.36-.8.8ZM11.62,9.32c0,.22-.18.4-.4.4s-.4-.18-.4-.4.18-.4.4-.4.4.18.4.4Z"/>
        <path class="cls-1" d="M13.92,8.92c.11,0,.2-.09.2-.2s-.09-.2-.2-.2h-.9c-.11,0-.2.09-.2.2v.9c0,.11.09.2.2.2h.9c.11,0,.2-.09.2-.2s-.09-.2-.2-.2h-.7v-.5h.7Z"/>
        <path class="cls-1" d="M9.88,6.8c-.05-.07-.13-.1-.21-.08l-1.03.26-.54-1.31c-.06-.15-.31-.15-.37,0l-.53,1.31-1.03-.26c-.08-.02-.16.01-.21.08s-.05.16,0,.23l.6.9c.06.09.19.12.28.06.09-.06.12-.19.06-.28l-.31-.47.7.17c.1.03.2-.03.23-.12l.41-1.02.42,1.02c.04.09.14.14.23.12l.7-.17-.31.47c-.06.09-.04.22.05.28.03.02.07.03.11.03.06,0,.13-.03.17-.09l.6-.9c.05-.07.04-.16,0-.23Z"/>
        <path class="cls-1" d="M7.92,8.22c-.11,0-.2.09-.2.2v1.2c0,.11.09.2.2.2s.2-.09.2-.2v-1.2c0-.11-.09-.2-.2-.2Z"/>
        <path class="cls-1" d="M7.78,10.37s-.06.09-.06.14c0,.06.02.11.06.15.04.03.09.06.14.06.06,0,.11-.03.14-.06.04-.04.06-.09.06-.15,0-.05-.02-.1-.06-.14-.07-.07-.2-.07-.28,0Z"/>
      </g>
    </g>
  </g>
</svg>