<svg width="13" height="21" viewBox="0 0 13 21" fill="none" xmlns="http://www.w3.org/2000/svg">
<path d="M5.06722 17.9115C4.27637 17.7791 3.52659 17.555 2.80764 17.229C2.08868 16.903 1.493 16.5158 1 16.0676L1.98599 14.6515C2.06815 14.5394 2.18114 14.4375 2.31466 14.356C2.44818 14.2745 2.60224 14.244 2.76658 14.244C2.93091 14.244 3.09523 14.2847 3.26983 14.3662C3.44444 14.4477 3.62932 14.5496 3.82447 14.6719C4.01961 14.7941 4.24556 14.9164 4.49206 15.0488C4.73856 15.1812 5.00559 15.2831 5.31371 15.3544L5.69376 11.5035C5.20076 11.371 4.70774 11.208 4.22501 11.0247C3.74228 10.8413 3.30064 10.5968 2.91035 10.281C2.52006 9.96515 2.20168 9.56783 1.96546 9.08901C1.71896 8.61019 1.60597 7.99893 1.60597 7.27561C1.60597 6.73566 1.71896 6.21608 1.93465 5.7067C2.15033 5.19732 2.46873 4.73888 2.9001 4.33137C3.3212 3.92387 3.845 3.58766 4.46125 3.33297C5.0775 3.06809 5.78618 2.91528 6.57703 2.87453L6.68999 1.7437C6.70026 1.55013 6.78245 1.38713 6.93651 1.23431C7.09057 1.0815 7.2857 1 7.5322 1H8.70309L8.49766 3.00697C9.23716 3.13941 9.87396 3.36353 10.408 3.66916C10.9421 3.9748 11.394 4.29063 11.7638 4.63701L10.9832 5.76784C10.8702 5.94103 10.747 6.06327 10.634 6.13458C10.5108 6.21608 10.3772 6.25684 10.2026 6.25684C10.0896 6.25684 9.9664 6.23646 9.83288 6.18552C9.69936 6.13458 9.5453 6.08365 9.38096 6.01233C9.21663 5.94102 9.04202 5.85952 8.85714 5.77802C8.67227 5.69652 8.46687 5.6252 8.26145 5.56407L7.90197 9.1807C8.23063 9.27239 8.55929 9.37427 8.88795 9.48633C9.21662 9.5984 9.53503 9.73084 9.83288 9.87347C10.141 10.0161 10.4183 10.1893 10.6853 10.3829C10.9524 10.5764 11.1784 10.8005 11.3735 11.0552C11.5686 11.3099 11.7227 11.6054 11.8357 11.9517C11.9486 12.2879 12 12.6751 12 13.0928C12 13.7346 11.887 14.3459 11.6713 14.9164C11.4556 15.4869 11.127 15.9861 10.7059 16.414C10.2848 16.852 9.76097 17.2086 9.14472 17.4735C8.52848 17.7485 7.8198 17.9217 7.02895 17.9828L6.9057 19.2563C6.89543 19.4499 6.81324 19.6129 6.65918 19.7657C6.50512 19.9185 6.30999 20 6.06349 20H4.8926L5.09803 17.9013L5.06722 17.9115ZM4.59477 6.98016C4.59477 7.37748 4.71803 7.70349 4.98507 7.95818C5.24184 8.20269 5.58075 8.41662 5.99159 8.58981L6.29973 5.51315C5.98133 5.56408 5.72454 5.6252 5.50886 5.72708C5.29317 5.81877 5.11859 5.93084 4.98507 6.05309C4.85155 6.18553 4.74883 6.32815 4.68721 6.49115C4.62558 6.65416 4.59477 6.81717 4.59477 6.99036V6.98016ZM8.94958 13.5716C8.94958 13.1845 8.82634 12.8788 8.57984 12.6445C8.33334 12.4102 8.00468 12.2166 7.58358 12.0638L7.2549 15.4257C8.38469 15.2322 8.94958 14.6107 8.94958 13.5716Z" fill="#F36522"/>
</svg>
