<svg width="16" height="16" viewBox="0 0 16 16" fill="none" xmlns="http://www.w3.org/2000/svg">
<path fill-rule="evenodd" clip-rule="evenodd" d="M14.04 7.40996H10.73L11.4 5.49996C11.46 5.26996 11.67 5.10996 11.9 5.10996H14.05C14.16 5.10996 14.25 5.01996 14.25 4.90996C14.25 4.79996 14.16 4.70996 14.05 4.70996H11.9C11.48 4.70996 11.12 4.98996 11.01 5.37996L10.29 7.43996C9.91998 7.50996 9.63998 7.81996 9.63998 8.20996V10.61C9.63998 10.72 9.72998 10.81 9.83998 10.81H10.24V11.87C10.24 12.11 10.44 12.31 10.68 12.31H11.7C11.94 12.31 12.14 12.11 12.14 11.87V10.81H14.04C14.15 10.81 14.24 10.72 14.24 10.61C14.24 10.5 14.15 10.41 14.04 10.41H10.04V8.20996C10.04 7.98996 10.22 7.80996 10.44 7.80996H14.04C14.15 7.80996 14.24 7.71996 14.24 7.60996C14.24 7.49996 14.15 7.40996 14.04 7.40996ZM11.71 11.91H10.69C10.69 11.91 10.65 11.89 10.65 11.87V10.81H11.75V11.87C11.75 11.87 11.73 11.91 11.71 11.91Z" fill="#FF5800"/>
<path fill-rule="evenodd" clip-rule="evenodd" d="M5.80998 7.44996L5.09998 5.39996C4.98998 4.99996 4.61998 4.71996 4.20998 4.71996H2.05998C1.94998 4.71996 1.85998 4.80996 1.85998 4.91996C1.85998 5.02996 1.94998 5.11996 2.05998 5.11996H4.20998C4.43998 5.11996 4.64998 5.27996 4.71998 5.51996L5.37998 7.41996H2.05998C1.94998 7.41996 1.85998 7.50996 1.85998 7.61996C1.85998 7.72996 1.94998 7.81996 2.05998 7.81996H5.65998C5.87998 7.81996 6.05998 7.99996 6.05998 8.21996V10.42H2.05998C1.94998 10.42 1.85998 10.51 1.85998 10.62C1.85998 10.73 1.94998 10.82 2.05998 10.82H3.95998V11.88C3.95998 12.12 4.15998 12.32 4.39998 12.32H5.41998C5.65998 12.32 5.85998 12.12 5.85998 11.88V10.82H6.25998C6.36998 10.82 6.45998 10.73 6.45998 10.62V8.21996C6.45998 7.82996 6.17998 7.51996 5.80998 7.44996ZM5.40998 11.91H4.38998C4.38998 11.91 4.34998 11.89 4.34998 11.87V10.81H5.44998V11.87C5.44998 11.87 5.42998 11.91 5.40998 11.91Z" fill="#FF5800"/>
<path fill-rule="evenodd" clip-rule="evenodd" d="M4.74998 9.90996C5.18998 9.90996 5.54998 9.54996 5.54998 9.10996C5.54998 8.66996 5.18998 8.30996 4.74998 8.30996C4.30998 8.30996 3.94998 8.66996 3.94998 9.10996C3.94998 9.54996 4.30998 9.90996 4.74998 9.90996ZM4.74998 8.70996C4.96998 8.70996 5.14998 8.88996 5.14998 9.10996C5.14998 9.32996 4.96998 9.50996 4.74998 9.50996C4.52998 9.50996 4.34998 9.32996 4.34998 9.10996C4.34998 8.88996 4.52998 8.70996 4.74998 8.70996Z" fill="#FF5800"/>
<path d="M1.84998 9.40996C1.84998 9.29996 1.93998 9.20996 2.04998 9.20996H2.74998V8.70996H2.04998C1.93998 8.70996 1.84998 8.61996 1.84998 8.50996C1.84998 8.39996 1.93998 8.30996 2.04998 8.30996H2.94998C3.05998 8.30996 3.14998 8.39996 3.14998 8.50996V9.40996C3.14998 9.51996 3.05998 9.60996 2.94998 9.60996H2.04998C1.93998 9.60996 1.84998 9.51996 1.84998 9.40996Z" fill="#FF5800"/>
<path fill-rule="evenodd" clip-rule="evenodd" d="M11.35 9.90996C10.91 9.90996 10.55 9.54996 10.55 9.10996C10.55 8.66996 10.91 8.30996 11.35 8.30996C11.79 8.30996 12.15 8.66996 12.15 9.10996C12.15 9.54996 11.79 9.90996 11.35 9.90996ZM11.35 9.50996C11.57 9.50996 11.75 9.32996 11.75 9.10996C11.75 8.88996 11.57 8.70996 11.35 8.70996C11.13 8.70996 10.95 8.88996 10.95 9.10996C10.95 9.32996 11.13 9.50996 11.35 9.50996Z" fill="#FF5800"/>
<path d="M14.05 8.70996C14.16 8.70996 14.25 8.61996 14.25 8.50996C14.25 8.39996 14.16 8.30996 14.05 8.30996H13.15C13.04 8.30996 12.95 8.39996 12.95 8.50996V9.40996C12.95 9.51996 13.04 9.60996 13.15 9.60996H14.05C14.16 9.60996 14.25 9.51996 14.25 9.40996C14.25 9.29996 14.16 9.20996 14.05 9.20996H13.35V8.70996H14.05Z" fill="#FF5800"/>
<path d="M9.80998 6.51996C9.88998 6.49996 9.96998 6.52996 10.02 6.59996H10.04C10.08 6.66996 10.09 6.75996 10.04 6.82996L9.43998 7.72996C9.39997 7.78996 9.32998 7.81996 9.26998 7.81996C9.22998 7.81996 9.18998 7.80996 9.15998 7.78996C9.06998 7.72996 9.04998 7.59996 9.10998 7.50996L9.41998 7.03996L8.71998 7.20996C8.62998 7.22996 8.52998 7.17996 8.48997 7.08996L8.06997 6.06996L7.65998 7.08996C7.62998 7.17996 7.52998 7.23996 7.42998 7.20996L6.72998 7.03996L7.03998 7.50996C7.09998 7.59996 7.06998 7.72996 6.97998 7.78996C6.88998 7.84996 6.75998 7.81996 6.69998 7.72996L6.09998 6.82996C6.04998 6.75996 6.04998 6.66996 6.09998 6.59996C6.14998 6.52996 6.22998 6.49996 6.30998 6.51996L7.33998 6.77996L7.86998 5.46996C7.92998 5.31996 8.17998 5.31996 8.23997 5.46996L8.77998 6.77996L9.80998 6.51996Z" fill="#FF5800"/>
<path d="M8.04998 8.00996C7.93998 8.00996 7.84998 8.09996 7.84998 8.20996V9.40996C7.84998 9.51996 7.93998 9.60996 8.04998 9.60996C8.15998 9.60996 8.24998 9.51996 8.24998 9.40996V8.20996C8.24998 8.09996 8.15998 8.00996 8.04998 8.00996Z" fill="#FF5800"/>
<path d="M7.84998 10.31C7.84998 10.26 7.90998 10.17 7.90998 10.17C7.98998 10.1 8.11998 10.1 8.18998 10.17C8.22998 10.21 8.24998 10.26 8.24998 10.31C8.24998 10.37 8.22998 10.42 8.18998 10.46C8.15998 10.49 8.10998 10.52 8.04998 10.52C7.99998 10.52 7.94998 10.49 7.90998 10.46C7.86998 10.42 7.84998 10.37 7.84998 10.31Z" fill="#FF5800"/>
</svg>
