<svg width="16" height="16" viewBox="0 0 16 16" fill="none" xmlns="http://www.w3.org/2000/svg">
<path d="M7.98996 14.1906C7.79996 14.1906 7.62996 14.1606 7.46996 14.0906C7.30996 14.0206 7.16996 13.9306 7.04996 13.8206C6.92996 13.7006 6.83996 13.5706 6.76996 13.4106C6.69996 13.2506 6.66996 13.0806 6.66996 12.9006C6.66996 12.7206 6.69996 12.5506 6.76996 12.3906C6.83996 12.2306 6.92996 12.0906 7.04996 11.9706C7.16996 11.8506 7.30996 11.7606 7.46996 11.6906C7.77996 11.5606 8.18996 11.5506 8.50996 11.6906C8.66996 11.7606 8.80996 11.8506 8.92996 11.9706C9.04996 12.0906 9.13996 12.2306 9.20996 12.3906C9.27996 12.5506 9.30996 12.7206 9.30996 12.9006C9.30996 13.0806 9.26996 13.2606 9.20996 13.4106C9.13996 13.5706 9.04996 13.7106 8.92996 13.8206C8.80996 13.9406 8.66996 14.0306 8.50996 14.0906C8.34996 14.1506 8.17996 14.1906 7.98996 14.1906ZM7.98996 11.9806C7.85996 11.9806 7.72996 12.0006 7.61996 12.0506C7.50996 12.1006 7.40996 12.1606 7.32996 12.2406C7.24996 12.3206 7.17996 12.4206 7.13996 12.5306C7.08996 12.6406 7.06996 12.7606 7.06996 12.8806C7.06996 13.0006 7.08996 13.1306 7.13996 13.2306C7.18996 13.3406 7.24996 13.4406 7.32996 13.5206C7.40996 13.6006 7.50996 13.6606 7.61996 13.7106C7.83996 13.8006 8.12996 13.8006 8.35996 13.7106C8.47996 13.6606 8.56996 13.6006 8.64996 13.5206C8.72996 13.4406 8.79996 13.3506 8.84996 13.2306C8.89996 13.1206 8.91996 13.0006 8.91996 12.8706C8.91996 12.7406 8.89996 12.6306 8.84996 12.5206C8.79996 12.4106 8.73996 12.3106 8.65996 12.2306C8.57996 12.1506 8.47996 12.0806 8.35996 12.0406C8.24996 11.9906 8.12996 11.9706 7.99996 11.9706L7.98996 11.9806ZM8.69996 10.5406H7.39996C7.29996 10.5406 7.20996 10.4606 7.19996 10.3606L7.06996 9.2406C7.02996 8.9806 7.06996 8.7506 7.17996 8.5506C7.27996 8.3706 7.40996 8.2006 7.56996 8.0506C7.71996 7.9106 7.89996 7.7706 8.07996 7.6406C8.24996 7.5206 8.41996 7.3906 8.56996 7.2506C8.70996 7.1206 8.83996 6.9706 8.92996 6.8106C9.01996 6.6606 9.05996 6.4806 9.05996 6.2706C9.05996 6.0306 8.97996 5.8406 8.81996 5.7006C8.64996 5.5506 8.41996 5.4806 8.11996 5.4806C7.88996 5.4806 7.69996 5.5006 7.53996 5.5506C7.37996 5.6006 7.23996 5.6606 7.12996 5.7206C7.00996 5.7806 6.90996 5.8406 6.82996 5.9006C6.44996 6.1406 6.08996 6.0006 5.90996 5.6906L5.40996 4.9106C5.35996 4.8306 5.36996 4.7206 5.44996 4.6506C5.61996 4.5006 5.80996 4.3606 6.00996 4.2306C6.20996 4.1006 6.42996 3.9906 6.65996 3.8906C6.89996 3.7906 7.14996 3.7206 7.41996 3.6606C8.07996 3.5306 8.87996 3.5506 9.48996 3.7606C9.84996 3.8806 10.16 4.0606 10.42 4.2806C10.68 4.5106 10.88 4.7906 11.03 5.1106C11.18 5.4306 11.24 5.7906 11.24 6.1806C11.24 6.5706 11.19 6.8806 11.08 7.1606C10.97 7.4306 10.84 7.6706 10.68 7.8806C10.52 8.0806 10.34 8.2606 10.15 8.4006C9.96996 8.5406 9.79996 8.6706 9.63996 8.7906C9.48996 8.9006 9.35996 9.0206 9.24996 9.1306C9.15996 9.2206 9.10996 9.3106 9.08996 9.4206L8.91996 10.4006C8.89996 10.5006 8.81996 10.5706 8.71996 10.5706L8.69996 10.5406ZM7.57996 10.1406H8.53996L8.67996 9.3206C8.71996 9.1406 8.80996 8.9706 8.94996 8.8206C9.06996 8.6906 9.21996 8.5706 9.38996 8.4406C9.54996 8.3206 9.71996 8.1906 9.89996 8.0606C10.07 7.9306 10.22 7.7806 10.36 7.6006C10.5 7.4306 10.61 7.2206 10.7 6.9906C10.79 6.7606 10.83 6.4806 10.83 6.1506C10.83 5.8206 10.77 5.5106 10.65 5.2406C10.53 4.9706 10.36 4.7406 10.15 4.5506C9.92996 4.3606 9.65996 4.2106 9.35996 4.1106C8.81996 3.9306 8.08996 3.9106 7.49996 4.0306C7.25996 4.0806 7.01996 4.1506 6.80996 4.2406C6.59996 4.3306 6.39996 4.4306 6.21996 4.5506C6.08996 4.6406 5.95996 4.7306 5.83996 4.8206L6.24996 5.4606C6.30996 5.5606 6.36996 5.6006 6.47996 5.6006C6.51996 5.6006 6.56996 5.5806 6.61996 5.5506C6.70996 5.4906 6.81996 5.4306 6.94996 5.3606C7.08996 5.2906 7.24996 5.2206 7.42996 5.1606C7.61996 5.1006 7.85996 5.0706 8.12996 5.0706C8.51996 5.0706 8.84996 5.1806 9.08996 5.3906C9.33996 5.6106 9.46996 5.9006 9.46996 6.2706C9.46996 6.5506 9.40996 6.8106 9.27996 7.0206C9.15996 7.2206 9.00996 7.4006 8.83996 7.5606C8.67996 7.7106 8.49996 7.8506 8.30996 7.9806C8.13996 8.1006 7.97996 8.2306 7.83996 8.3606C7.70996 8.4806 7.60996 8.6106 7.52996 8.7606C7.45996 8.8906 7.43996 9.0306 7.46996 9.2106L7.57996 10.1606V10.1406Z" fill="white"/>
<path d="M8.3499 0.220028C8.4199 0.260028 8.3299 0.200028 8.3499 0.220028Z" fill="white"/>
<path d="M14.92 4.32016C14.92 4.32016 14.91 4.31016 14.91 4.30016C14.91 4.29016 14.91 4.28016 14.91 4.27016C14.81 3.81016 14.38 3.92016 14.04 3.90016C13.55 3.87016 13.07 3.74016 12.62 3.57016C11.77 3.24016 10.98 2.73016 10.28 2.15016C9.78995 1.74016 9.31995 1.30016 8.88995 0.830162C8.77995 0.710162 8.67995 0.600162 8.56995 0.480162C8.50995 0.410162 8.44995 0.320162 8.37995 0.260162C8.35995 0.240162 8.35995 0.240162 8.34995 0.230162C8.34995 0.230162 8.34995 0.230162 8.33995 0.230162C8.16995 0.120162 7.95995 0.0801624 7.77995 0.200162C7.74995 0.220162 7.72995 0.250162 7.70995 0.270162C7.82995 0.180162 7.65995 0.310162 7.63995 0.330162C7.50995 0.470162 7.38995 0.620162 7.25995 0.760162C7.01995 1.02016 6.76995 1.27016 6.51995 1.52016C6.09995 1.92016 5.64995 2.30016 5.17995 2.63016C4.52995 3.09016 3.81995 3.48016 3.04995 3.71016C2.65995 3.83016 2.25995 3.91016 1.85995 3.91016C1.81995 3.91016 1.60995 3.90016 1.71995 3.91016C1.07995 3.86016 1.14995 4.56016 1.12995 5.01016C1.05995 6.92016 1.37995 8.86016 2.19995 10.5902C2.80995 11.8802 3.69995 13.0402 4.77995 13.9902C5.50995 14.6302 6.31995 15.1802 7.19995 15.6102C7.40995 15.7102 7.62995 15.8202 7.84995 15.8902C8.14995 15.9902 8.41995 15.8302 8.68995 15.7102C10.4299 14.9402 11.96 13.6402 13.05 12.0802C14.22 10.3902 14.83 8.38016 14.95 6.34016C14.99 5.67016 14.98 5.00016 14.93 4.33016L14.92 4.32016ZM11.6899 13.0902C11.04 13.7602 10.3 14.3502 9.48995 14.8302C9.06995 15.0802 8.59995 15.3702 8.11995 15.5002C8.01995 15.5302 7.96995 15.5002 7.86995 15.4602C7.75995 15.4202 7.78995 15.4302 7.67995 15.3802C7.57995 15.3302 7.46995 15.2902 7.36995 15.2402C5.83995 14.4902 4.47995 13.3702 3.47995 11.9902C2.73995 10.9602 2.19995 9.80016 1.87995 8.58016C1.68995 7.84016 1.56995 7.09016 1.52995 6.33016C1.49995 5.90016 1.49995 5.47016 1.50995 5.04016C1.50995 4.84016 1.49995 4.60016 1.53995 4.40016C1.57995 4.22016 1.56995 4.31016 1.65995 4.30016C1.83995 4.28016 2.02995 4.30016 2.20995 4.29016C2.59995 4.25016 2.98995 4.15016 3.36995 4.02016C4.77995 3.53016 6.00995 2.58016 7.05995 1.53016C7.23995 1.35016 7.41995 1.16016 7.58995 0.970162C7.67995 0.870162 7.75995 0.780162 7.84995 0.680162C7.88995 0.640162 7.93995 0.590162 7.98995 0.540162C8.01995 0.540162 8.04995 0.540162 8.07995 0.540162C8.16995 0.670162 8.30995 0.790162 8.40995 0.900162C8.57995 1.09016 8.75995 1.28016 8.93995 1.47016C9.25995 1.79016 9.57995 2.10016 9.92995 2.38016C10.47 2.83016 11.05 3.24016 11.67 3.57016C12.4 3.95016 13.2 4.25016 14.02 4.30016C14.1 4.30016 14.46 4.24016 14.51 4.37016C14.74 7.54016 13.93 10.7602 11.68 13.0902H11.6899Z" fill="white"/>
</svg>
