<?xml version="1.0" encoding="UTF-8"?>
<svg xmlns="http://www.w3.org/2000/svg" version="1.1" viewBox="0 0 16 16">
  <defs>
    <style>
      .cls-1 {
        fill: #12b4f4;
      }
    </style>
  </defs>
  <!-- Generator: Adobe Illustrator 28.7.1, SVG Export Plug-In . SVG Version: 1.2.0 Build 142)  -->
  <g>
    <g id="Layer_1">
      <path class="cls-1" d="M7.99,15.95C3.61,15.95.03,12.38.03,7.99S3.61.03,7.99.03s7.96,3.57,7.96,7.96-3.57,7.96-7.96,7.96ZM7.99.43C3.83.43.43,3.83.43,7.99s3.39,7.56,7.56,7.56,7.56-3.39,7.56-7.56S12.16.43,7.99.43Z"/>
      <path class="cls-1" d="M9.7,11.56v-.02h-2.43l-.02-.06,1.22-1.79c.12.02.26.04.4.06h.07s0-.38,0-.38h-.05c-.18-.03-.33-.06-.47-.08-.23-.05-.4-.09-.51-.15l-.13-.18s-.01-.04-.02-.05c-.03-.11-.05-.26-.06-.42l.02-.02c.48-.46.88-.86.9-1.18v-.08c.08-.03.18-.1.24-.27l.02-.05c.06-.16.06-.18.16-.34.14-.21.15-.62.04-.83-.05-.09-.13-.15-.22-.18.03-.15.06-.3.07-.43.24-1.42.03-2.23-.67-2.54-.22-.1-.43-.15-.61-.15-.05,0-.1,0-.15.01-.16-.13-.45-.28-.93-.28-.12,0-.24,0-.37.03-.52.07-.81.16-1.03.23-.21.07-.3.09-.44.06-.08-.02-.17.02-.21.09-.02.03-.19.34-.27.73-.16.78-.13,1.49.09,2.25-.09.02-.16.08-.21.17-.12.21-.1.62.04.83.1.16.11.18.16.34l.02.05c.06.17.15.24.23.27h0s0,.06,0,.08c.03.32.43.72.9,1.18l.02.02c0,.14-.03.27-.05.38l-.21.29c-.11.04-.26.08-.45.12-.11.02-.22.04-.36.06l-.58.07c-.96.11-1.1.41-1.21,1.13-.07.48-.08,1.08-.08,1.2,0,.05.02.1.06.14.04.04.09.06.14.06h7.05l-.09-.37ZM8.72,5.89h0s0,0,0,0ZM7.51,9.14h0ZM6.91,9.98l.17.17s.09.06.14.06.1-.02.14-.06l.58-.6s.08.03.13.04l-.95,1.39-.27-.95.06-.05ZM7.08,9.54l-.13-.11.53-.22s.03.05.04.07c0,0,.01.02.02.02.02.02.03.04.05.06l-.36.37-.08-.08s-.03-.09-.06-.12ZM6.25,9.43l-.3.3-.34-.35.02-.02s.04-.05.06-.08v-.02s.03-.04.05-.06l.51.22ZM6.09,10.15l.18-.18.08.08-.26.94-.95-1.39s.07-.02.1-.03l.57.59s.09.06.14.06h0c.05,0,.1-.02.14-.06ZM4.72,6.83s0-.02-.01-.03l-.02-.04c-.06-.19-.08-.23-.2-.42-.06-.1-.06-.3-.04-.39.06.23.12.39.13.43.03.08.1.13.19.13.11,0,.2-.09.2-.2,0-.01,0-.03,0-.04,0-.14-.08-1.25.09-1.67.1-.26.38-.38.6-.38.09,0,.17.02.2.05.24.23.58.25.72.25.02,0,.03,0,.04,0,0,0,.02,0,.04,0,.14,0,.49-.02.72-.25.03-.03.11-.05.2-.05.19,0,.39.09.5.22l.08.11s.02.03.02.05c.18.45.09,1.69.09,1.7,0,.1.06.19.15.21.1.02.19-.03.23-.13.02-.04.07-.2.13-.42.02.1.02.29-.04.38-.12.19-.14.24-.2.42l-.02.05s0,.02-.01.03c-.05,0-.1,0-.14.04-.05.03-.07.08-.08.14,0,.09-.02.18-.02.24-.02.2-.56.71-.79.94-.11.11-.21.2-.26.26-.05.05-.11.08-.22.08-.05,0-.1,0-.14-.01-.03,0-.06,0-.08,0h-.15s0,0,0,0h0s-.01,0-.01,0h-.14s-.05.01-.08.02c-.04,0-.09.01-.14.01-.1,0-.17-.02-.22-.08-.05-.06-.14-.15-.26-.26h0c-.23-.22-.77-.74-.79-.94,0-.07-.01-.15-.02-.24,0-.06-.03-.11-.08-.14-.04-.03-.09-.04-.14-.04ZM8.6,4.7c-.02-.1-.04-.18-.07-.25-.01-.03-.03-.06-.04-.09,0,0,0-.01-.01-.02l-.09-.13s0-.01-.01-.02c-.19-.22-.5-.36-.81-.36-.19,0-.36.06-.47.16-.14.13-.38.14-.45.14-.01,0-.02,0-.03,0,0,0-.02,0-.02,0,0,0-.01,0-.03,0-.07,0-.31-.01-.45-.14-.11-.11-.28-.16-.47-.16-.35,0-.8.2-.96.63-.04.11-.07.25-.1.43-.08-.5-.06-.98.05-1.5.04-.21.12-.4.17-.5.17.01.33-.04.49-.09.2-.06.47-.15.96-.22.11-.02.22-.02.32-.02.45,0,.65.15.74.24.04.05.11.07.17.06.02,0,.04,0,.05-.02.03-.01.2-.06.57.1.29.13.66.45.49,1.77ZM7.35,8.82l-.05.02s.03-.02.05-.03h0ZM5.86,8.82c.1.07.23.1.37.1.07,0,.14,0,.19-.01v-.02h0v.02s.02,0,.02,0c.01,0,.02,0,.03,0h.13s.14,0,.14,0c0,0,.02,0,.05,0,.05,0,.11.01.19.01.09,0,.18-.01.25-.04l-.65.28-.73-.32s0-.01,0-.02ZM6.59,9.74l-.05-.05.04-.04.05.06-.04.04ZM6.84,11.4l-.1.14h-.28l-.1-.14.24-.92.24.92ZM5.73,8.2h0s0,0,0,0ZM2.95,11.54c0-.22.02-.62.07-.95.08-.56.11-.71.87-.8h.06c.07-.02.16-.03.26-.04.19-.02.36-.05.52-.08l1.22,1.79-.02.06h-2.98Z"/>
      <path class="cls-1" d="M12.2,12.7c.36-.22.69-.49.96-.8.49-.56.81-1.24.94-1.97.04-.22.06-.45.07-.68,0-.23.04-.52-.04-.74-.06-.18-.23-.31-.41-.32-.03,0-.05,0-.08,0,0,0-.01,0-.02,0-.04,0-.08,0-.12,0-.33-.04-.63-.21-.89-.41-.15-.11-.3-.28-.49-.29-.23-.02-.47,0-.7,0s-.44-.01-.66,0c-.19.01-.32.16-.47.27-.26.2-.54.36-.87.42-.26.05-.54,0-.67.31-.07.18-.05.41-.05.6,0,.22.02.45.05.67.09.66.32,1.3.71,1.83.46.64,1.12,1.16,1.87,1.43.05.02.09,0,.13-.01.02,0,.03.01.05.01.24-.05.48-.19.68-.31ZM10.15,11.77c-.37-.38-.65-.83-.82-1.33-.11-.33-.18-.67-.2-1.01-.01-.18-.02-.35-.01-.53,0-.17.03-.27.19-.31.1-.02.21-.02.31-.05.19-.05.37-.12.54-.21.21-.11.39-.26.58-.4.02-.01.04-.03.06-.04.06,0,.13,0,.19,0h1.06s.04,0,.06,0c.07.06.42.31.45.34.25.18.57.31.88.36.07.01.15,0,.22.02.02,0,.05-.02.06,0,.05.03.06.19.07.23.02.13,0,.26,0,.39-.02.81-.27,1.61-.77,2.25-.25.32-.55.6-.89.82-.2.13-.44.29-.69.34-.14-.05-.22-.08-.38-.17-.33-.18-.64-.41-.9-.68Z"/>
      <path class="cls-1" d="M11.77,11.02c.11-.11.23-.23.34-.34.23-.23.47-.47.7-.7.09-.09.17-.18.2-.31.03-.13,0-.27-.08-.38-.14-.21-.43-.25-.64-.13-.11.07-.2.17-.29.27-.1.1-.2.21-.31.31-.05.05-.1.1-.15.15-.05.05-.12.1-.16.15,0,0-.01.01-.02.02,0,0,0,0,0,0-.02-.05-.11-.12-.15-.16-.16-.16-.36-.29-.59-.21-.2.07-.34.27-.32.49.02.26.27.43.44.6.09.09.19.19.28.28.11.11.2.22.36.21.17,0,.27-.15.38-.26ZM10.79,10.28c-.06-.06-.15-.14-.05-.19.08-.04.2.12.26.19.14.15.32.28.53.17.09-.05.16-.13.23-.2.08-.08.16-.16.25-.25.09-.09.17-.17.26-.26.07-.07.15-.19.24-.23.04-.02.08,0,.1.02.04.07-.03.12-.08.17-.31.31-.62.62-.94.94-.07.07-.16.14-.22.22,0,0,0,0,0,0,0,0,0,0,0,0-.03-.05-.08-.08-.12-.12-.15-.15-.3-.3-.45-.45Z"/>
    </g>
  </g>
</svg>