<svg width="16" height="16" viewBox="0 0 16 16" fill="none" xmlns="http://www.w3.org/2000/svg">
<path fill-rule="evenodd" clip-rule="evenodd" d="M9.91004 6.39039H11.69C11.78 6.39039 11.85 6.44039 11.88 6.52039L12.64 8.57039C12.67 8.63039 12.66 8.70039 12.62 8.75039C12.59 8.81039 12.53 8.84039 12.46 8.84039H9.91004C9.80004 8.84039 9.71004 8.75039 9.71004 8.64039V6.59039C9.71004 6.48039 9.80004 6.39039 9.91004 6.39039ZM10.12 6.80039V8.45039H12.18L11.57 6.80039H10.12Z" fill="#FF5800"/>
<path fill-rule="evenodd" clip-rule="evenodd" d="M12.51 6.07039L13.4 8.22039L13.41 8.21039C13.44 8.30039 13.46 8.39039 13.46 8.48039V10.4304C13.46 10.8204 13.14 11.1404 12.75 11.1404H12.4C12.3 11.7204 11.83 12.1704 11.21 12.1704C10.59 12.1704 10.1 11.7104 10.02 11.1104C9.99004 11.1304 9.93004 11.1504 9.93004 11.1504H6.24004C6.14004 11.7304 5.66004 12.1804 5.05004 12.1804C4.44004 12.1804 3.96004 11.7304 3.86004 11.1504H2.99004C2.88004 11.1504 2.79004 11.0604 2.79004 10.9504V9.92039C2.79004 9.81039 2.88004 9.72039 2.99004 9.72039H3.76004C3.87004 9.72039 3.96004 9.81039 3.96004 9.92039C3.96004 10.0304 3.87004 10.1204 3.76004 10.1204H3.19004V10.7404H3.86004C3.96004 10.1604 4.44004 9.71039 5.05004 9.71039C5.66004 9.71039 6.14004 10.1604 6.24004 10.7404H8.96004V10.0904C8.94004 10.0904 8.90004 10.1104 8.90004 10.1104H6.34004C6.23004 10.1104 6.14004 10.0204 6.14004 9.91039C6.14004 9.80039 6.23004 9.71039 6.34004 9.71039H8.90004C8.93004 9.71039 8.96004 9.73039 8.96004 9.73039V8.74039L4.30004 4.55039L4.05004 4.80039L7.77004 9.02039C7.84004 9.10039 7.83004 9.23039 7.75004 9.30039C7.71004 9.33039 7.67004 9.35039 7.62004 9.35039C7.56004 9.35039 7.47004 9.28039 7.47004 9.28039L3.97004 5.32039V8.00039C3.97004 8.32039 3.71004 8.58039 3.39004 8.58039C3.07004 8.58039 2.81004 8.32039 2.81004 8.00039V7.87039C2.81004 7.76039 2.90004 7.67039 3.01004 7.67039C3.12004 7.67039 3.21004 7.76039 3.21004 7.87039V8.00039C3.21004 8.10039 3.29004 8.18039 3.39004 8.18039C3.49004 8.18039 3.57004 8.10039 3.57004 8.00039V4.79039C3.57004 4.74039 3.63004 4.65039 3.63004 4.65039L4.14004 4.14039C4.22004 4.07039 4.34004 4.07039 4.42004 4.14039L8.96004 8.22039V6.34039C8.96004 5.95039 9.28004 5.63039 9.67004 5.63039H9.98004V5.32039C9.98004 4.93039 10.3 4.61039 10.69 4.61039C11.08 4.61039 11.4 4.93039 11.4 5.32039V5.63039H11.85C12.14 5.63039 12.4 5.80039 12.51 6.07039ZM10.68 5.00039C10.51 5.00039 10.37 5.14039 10.37 5.31039V5.62039H10.99V5.31039C10.99 5.14039 10.85 5.00039 10.68 5.00039ZM4.22004 10.9504C4.22004 11.4104 4.59004 11.7804 5.05004 11.7804C5.51004 11.7804 5.88004 11.4104 5.88004 10.9504C5.88004 10.4904 5.51004 10.1204 5.05004 10.1204C4.59004 10.1204 4.22004 10.4904 4.22004 10.9504ZM10.37 10.9504C10.37 11.4104 10.74 11.7804 11.2 11.7804C11.66 11.7804 12.03 11.4104 12.03 10.9504C12.03 10.4904 11.66 10.1204 11.2 10.1204C10.74 10.1204 10.37 10.4904 10.37 10.9504ZM12.74 10.7504C12.91 10.7504 13.05 10.6104 13.05 10.4404L13.04 10.4304V8.48039C13.04 8.44039 13.02 8.36039 13.02 8.36039L12.14 6.21039C12.09 6.10039 11.98 6.02039 11.85 6.02039H9.66004C9.49004 6.02039 9.35004 6.16039 9.35004 6.33039V10.7404H9.92004C9.95318 10.7404 9.97259 10.7541 9.99533 10.7702C10 10.7735 10.0049 10.777 10.01 10.7804C10.09 10.1904 10.59 9.72039 11.2 9.72039C11.81 9.72039 12.29 10.1704 12.39 10.7504H12.74Z" fill="#FF5800"/>
</svg>
