<?xml version="1.0" encoding="UTF-8"?>
<svg xmlns="http://www.w3.org/2000/svg" version="1.1" viewBox="0 0 16 16">
  <defs>
    <style>
      .cls-1 {
        fill: #f36522;
      }
    </style>
  </defs>
  <!-- Generator: Adobe Illustrator 28.7.1, SVG Export Plug-In . SVG Version: 1.2.0 Build 142)  -->
  <g>
    <g id="Layer_1">
      <g id="Layer_1-2" data-name="Layer_1">
        <g>
          <path class="cls-1" d="M9.44,5.58c0,.52.42.94.94.94s.94-.42.94-.94-.42-.94-.94-.94-.94.42-.94.94ZM9.88,5.58c0-.27.22-.5.5-.5s.5.22.5.5-.22.5-.5.5-.5-.22-.5-.5Z"/>
          <path class="cls-1" d="M10.7,3.64c-.18-.16-.44-.16-.61,0l-3.53,3.16h-.02v4.49c0,.29.22.52.48.52h6.7c.28,0,.51-.25.51-.56v-4.44l-3.54-3.18h0ZM7.31,6.72l3.06-2.75h.03l3.06,2.75s-6.15,0-6.15,0ZM9.09,8.04h-1.26c-.25,0-.45.2-.45.45v2.88h-.36s-.04-.03-.04-.08v-4.14h6.82v4.1c0,.07-.04.12-.08.12h-4.18v-2.88c0-.25-.2-.45-.45-.45ZM7.82,8.49h1.26v2.87h-1.28v-2.87h.02Z"/>
          <path class="cls-1" d="M11.24,10.15h1.62c.25,0,.46-.21.46-.46v-1.19c0-.25-.21-.46-.46-.46h-1.62c-.25,0-.46.21-.46.46v1.19c0,.25.21.46.46.46ZM11.85,9.3v.41h-.62s-.02,0-.02-.02v-.39s.64,0,.64,0ZM11.22,8.86v-.37s0-.02.02-.02h.62v.39h-.64ZM12.29,9.71v-.41h.58v.39s0,.02-.02.02c0,0-.56,0-.56,0ZM12.29,8.86v-.39h.56s.02,0,.02.02v.37h-.58Z"/>
        </g>
        <path class="cls-1" d="M4.98,11.43h-2.83c-.38,0-.84-.17-.84-.96,0-.16,0-.28.02-.4.04-.32.24-.5.42-.64.02-.01.03-.04.04-.05.05-.15.09-.31.13-.47l.08-.3c.11-.41.4-.64.77-.64h1.93c.38,0,.68.25.79.67l.05.17c.05.2.11.4.17.6,0,.01.02.03.03.04.32.2.47.5.46.88v.28c0,.49-.29.82-.72.84h-.5v-.02ZM4.59,11.03h.87c.29-.01.34-.29.34-.45v-.29c.01-.24-.07-.4-.27-.53-.06-.03-.1-.08-.14-.14h-3.28s-.07.09-.12.12c-.15.11-.25.21-.27.38,0,.1,0,.21,0,.31,0,.5.17.6.44.6h1.14s1.3,0,1.3,0ZM2.25,9.22h3c-.03-.11-.06-.22-.09-.33l-.05-.16c-.04-.14-.14-.37-.41-.37h-1.92c-.07,0-.29,0-.39.35l-.08.3c-.02.07-.04.14-.06.21ZM2.47,10.9h0c-.32,0-.58-.25-.58-.56,0-.16.06-.3.17-.42.11-.11.25-.17.41-.17h0c.32,0,.58.26.58.58,0,.15-.06.29-.16.4-.11.11-.26.17-.41.17h0ZM2.46,10.15s-.09.02-.12.05c-.03.04-.05.08-.05.13,0,.14.21.22.31.12.03-.03.05-.07.05-.11,0-.1-.08-.18-.19-.18h0ZM5.04,10.89c-.32,0-.58-.25-.58-.56,0-.16.06-.31.17-.42s.25-.17.41-.17h0c.32,0,.58.26.58.58,0,.15-.06.29-.16.4-.11.11-.26.17-.41.17h-.01ZM5.03,10.14s-.09.02-.12.05c-.03.03-.05.08-.05.13,0,.14.21.22.32.12.03-.03.05-.07.05-.11,0-.1-.08-.18-.19-.18h-.01Z"/>
        <path class="cls-1" d="M2.48,11.27c0,.16.06.34-.12.45-.07.04-.19.05-.26.01-.2-.09-.13-.28-.14-.46h.52Z"/>
        <path class="cls-1" d="M5.49,11.27c0,.16.06.34-.12.45-.07.04-.19.05-.26.01-.2-.09-.13-.28-.14-.46h.52Z"/>
      </g>
    </g>
  </g>
</svg>