<?xml version="1.0" encoding="UTF-8"?>
<svg xmlns="http://www.w3.org/2000/svg" version="1.1" viewBox="0 0 16 16">
  <defs>
    <style>
      .cls-1 {
        fill: #45b4fe;
      }
    </style>
  </defs>
  <!-- Generator: Adobe Illustrator 28.7.1, SVG Export Plug-In . SVG Version: 1.2.0 Build 142)  -->
  <g>
    <g id="Layer_1">
      <g>
        <path class="cls-1" d="M12.52,3.38v-.07c0-.55-.57-.48-.95-.48h-.55c-.08-.09-.18-.16-.3-.17h-.22c-.33-.04-.63-.21-.89-.41-.15-.11-.3-.28-.49-.29-.23-.02-.47,0-.7,0s-.44,0-.66,0c-.19,0-.32.16-.47.27-.26.2-.54.36-.87.42-.22.04-.44.02-.58.18h-.28c-.28,0-.74-.08-.97.12-.24.22-.17.67-.17.96v7.17c-.38,0-.75.06-1.03.37-.39.43-.38,1.12.03,1.53.3.31.69.35,1.09.35h5.36c.43,0,.9.05,1.33-.03.02,0,.03-.01.04-.01h0s.04-.01.06-.02c.52-.13.96-.5,1.13-1.02.07-.2.07-.41.07-.63v-4.23c0-1.34.03-2.68,0-4.01h.02ZM6.3,3.07c.1-.02.21-.02.31-.05.19-.05.37-.12.54-.21.21-.11.39-.26.58-.4.02,0,.04-.03.06-.04h1.31c.07.06.42.31.45.34.25.18.57.31.88.36.07,0,.15,0,.22.02.02,0,.05-.02.06,0,.05.03.06.19.07.23.02.13,0,.26,0,.39-.02.81-.27,1.61-.77,2.25-.25.32-.55.6-.89.82-.2.13-.44.29-.69.34-.14-.05-.22-.08-.38-.17-.33-.18-.64-.41-.9-.68-.37-.38-.65-.83-.82-1.33-.11-.33-.18-.67-.2-1.01-.01-.18-.02-.35-.01-.53,0-.17.03-.27.19-.31v-.02ZM10.4,12.93h-5.97c-.23,0-.46-.01-.65-.17-.52-.41-.23-1.23.4-1.29.11-.01.22,0,.33,0h5.89c-.16.17-.28.37-.31.62-.04.35.09.62.3.82v.02ZM12.09,12.02c-.1.46-.46.76-.89.87h-.05c-.1-.02-.19-.05-.28-.09-.28-.13-.41-.37-.36-.68.06-.4.45-.61.82-.62.26,0,.26-.4,0-.4h-6.5V3.42c0-.24.21-.19.39-.19h.48v.32c0,.22.02.45.05.67.09.66.32,1.3.71,1.83.46.64,1.12,1.16,1.87,1.43.05.02.09,0,.13-.01.02,0,.03.01.05.01.24-.05.48-.19.68-.31.36-.22.69-.49.96-.8.49-.56.81-1.24.94-1.97.04-.22.06-.45.07-.68v-.49c.22,0,.95-.06.95.08v7.67c0,.33.05.71-.02,1.04Z"/>
        <path class="cls-1" d="M10.41,10.13h-3.88c-.26,0-.26.4,0,.4h3.88c.26,0,.26-.4,0-.4Z"/>
        <path class="cls-1" d="M11.04,9.32h-5.14c-.26,0-.26.4,0,.4h5.14c.26,0,.26-.4,0-.4Z"/>
        <path class="cls-1" d="M5.87,8.87h5.14c.26,0,.26-.4,0-.4h-5.14c-.26,0-.26.4,0,.4Z"/>
        <path class="cls-1" d="M7.74,5.27l.28.28c.11.11.2.22.36.21.17,0,.27-.15.38-.26s.23-.23.34-.34c.23-.23.47-.47.7-.7.09-.09.17-.18.2-.31s0-.27-.08-.38c-.14-.21-.43-.25-.64-.13-.11.07-.2.17-.29.27-.1.1-.2.21-.31.31-.05.05-.1.1-.15.15-.05.05-.12.1-.16.15,0,0-.01.01-.02.02h0c-.02-.05-.11-.12-.15-.16-.16-.16-.36-.29-.59-.21-.2.07-.34.27-.32.49.02.26.27.43.44.6h.01ZM7.75,4.56c.08-.04.2.12.26.19.14.15.32.28.53.17.09-.05.16-.13.23-.2l.25-.25c.09-.09.17-.17.26-.26.07-.07.15-.19.24-.23.04-.02.08,0,.1.02.04.07-.03.12-.08.17-.31.31-.62.62-.94.94-.07.07-.16.14-.22.22h0c-.03-.05-.08-.08-.12-.12-.15-.15-.3-.3-.45-.45-.06-.06-.15-.14-.05-.19h0Z"/>
      </g>
    </g>
  </g>
</svg>