<?xml version="1.0" encoding="UTF-8"?>
<svg xmlns="http://www.w3.org/2000/svg" version="1.1" viewBox="0 0 16 16">
  <defs>
    <style>
      .cls-1 {
        fill: #45b4fe;
      }
    </style>
  </defs>
  <!-- Generator: Adobe Illustrator 28.7.1, SVG Export Plug-In . SVG Version: 1.2.0 Build 142)  -->
  <g>
    <g id="Layer_1">
      <g>
        <path class="cls-1" d="M8.12,13.65c-.75,0-1.48-.15-2.16-.44-.66-.28-1.25-.68-1.76-1.19-.51-.51-.91-1.1-1.19-1.76-.29-.69-.44-1.41-.44-2.16s.15-1.48.44-2.16c.28-.66.68-1.25,1.19-1.76.51-.51,1.1-.91,1.76-1.19,1.37-.58,2.95-.58,4.32,0,.66.28,1.25.68,1.76,1.19.51.51.91,1.1,1.19,1.76.29.69.44,1.41.44,2.16s-.15,1.47-.44,2.16c-.28.66-.68,1.25-1.19,1.76-.51.51-1.1.91-1.76,1.19-.68.29-1.41.44-2.16.44ZM8.12,2.96c-.7,0-1.37.14-2,.4-.61.26-1.16.63-1.64,1.1-.47.47-.84,1.02-1.1,1.64-.27.63-.4,1.31-.4,2s.14,1.37.4,2c.26.61.63,1.16,1.1,1.64s1.02.84,1.64,1.1c1.27.54,2.74.54,4.01,0,.61-.26,1.16-.63,1.64-1.1s.84-1.02,1.1-1.64c.27-.63.4-1.31.4-2s-.14-1.37-.4-2c-.26-.61-.63-1.16-1.1-1.64-.47-.47-1.02-.84-1.64-1.1-.63-.27-1.31-.4-2-.4Z"/>
        <g>
          <path class="cls-1" d="M8.12,12.65c-.94,0-1.84-.28-2.6-.82l-.16-.12,2.08-2.96.16.12c.31.22.74.22,1.05,0l.16-.12,2.08,2.96-.16.11c-.76.54-1.66.82-2.6.82ZM5.91,11.61c1.32.84,3.09.84,4.41,0l-1.62-2.31c-.36.18-.8.18-1.16,0l-1.63,2.31Z"/>
          <path class="cls-1" d="M3.63,8.72l-.02-.2c-.01-.13-.02-.27-.02-.4,0-1.75,1.03-3.37,2.62-4.11l.18-.08,1.53,3.28-.18.08c-.32.15-.53.47-.53.83,0,.03,0,.05,0,.08l.02.2-3.6.32ZM6.2,4.47c-1.35.71-2.21,2.12-2.21,3.66,0,.06,0,.11,0,.16l2.82-.25c.03-.41.24-.78.58-1.01l-1.19-2.56Z"/>
          <path class="cls-1" d="M12.61,8.72l-3.6-.32.02-.2s0-.05,0-.08c0-.35-.21-.68-.53-.83l-.18-.08,1.53-3.28.18.08c1.59.74,2.62,2.35,2.62,4.11,0,.13,0,.27-.02.4l-.02.2ZM9.43,8.04l2.82.25c0-.05,0-.11,0-.16,0-1.53-.86-2.95-2.21-3.66l-1.19,2.57c.34.23.55.6.58,1.01Z"/>
          <path class="cls-1" d="M8.1,8.72c-.33,0-.6-.27-.6-.6s.27-.6.6-.6.6.27.6.6-.27.6-.6.6ZM8.1,7.93c-.11,0-.2.09-.2.2s.09.2.2.2.2-.09.2-.2-.09-.2-.2-.2Z"/>
        </g>
      </g>
    </g>
  </g>
</svg>